<?xml version="1.0" standalone="no"?>
<!DOCTYPE svg PUBLIC "-//W3C//DTD SVG 1.1//EN" "http://www.w3.org/Graphics/SVG/1.1/DTD/svg11.dtd" >
<svg>
<metadata>
Created by FontForge 20120731 at Sun Oct 27 13:32:58 2013
 By Stefan Warting
(c) 1992, 1994, 1997, 2000, 2004, 2010 Adobe Systems Incorporated. All rights reserved.
</metadata>
<defs>
<font id="MyriadArabic-Bold" horiz-adv-x="0" >
  <font-face 
    font-family="Myriad Arabic"
    font-weight="700"
    font-stretch="normal"
    units-per-em="1400"
    panose-1="1 1 1 1 1 1 1 1 1 1"
    ascent="950"
    descent="-450"
    x-height="489"
    cap-height="674"
    bbox="-176 -701 2578 1343"
    underline-thickness="24"
    underline-position="-25"
    stemh="120"
    stemv="106"
    unicode-range="U+0020-FD3F"
  />
<missing-glyph horiz-adv-x="500" 
d="M0 0v700h500v-700h-500zM250 395l170 255h-340zM280 350l170 -255v510zM80 50h340l-170 255zM50 95l170 255l-170 255v-510z" />
    <glyph glyph-name="uni0627.f" unicode="&#x627;" horiz-adv-x="293" arabic-form="final" 
d="M74 238l-21 487l123 9l18 -452c3 -88 32 -118 99 -124c40 0 92 -18 92 -78c0 -37 -16 -80 -92 -80c-141 0 -211 65 -219 238z" />
    <glyph glyph-name="uni0622.f" unicode="&#x622;" horiz-adv-x="293" arabic-form="final" 
d="M74 238l-21 487l123 9l18 -452c3 -88 32 -118 99 -124c40 0 92 -18 92 -78c0 -37 -16 -80 -92 -80c-141 0 -211 65 -219 238zM155 811c-46 0 -73 20 -109 20c-14 0 -33 -3 -37 -45l-70 24c1 65 33 112 95 112c50 0 85 -25 130 -25c25 0 49 13 75 36l13 -69
c-20 -35 -57 -53 -97 -53z" />
    <glyph glyph-name="uni0623.f" unicode="&#x623;" horiz-adv-x="293" arabic-form="final" 
d="M74 238l-21 487l123 9l18 -452c3 -88 32 -118 99 -124c40 0 92 -18 92 -78c0 -37 -16 -80 -92 -80c-141 0 -211 65 -219 238zM120 810c-55 0 -98 -4 -134 -19l7 67c11 6 30 12 43 13c-16 12 -34 28 -34 61c0 65 58 93 114 93c51 0 86 -16 101 -29l-19 -66
c-19 14 -54 24 -76 24c-28 0 -47 -14 -47 -30c0 -25 28 -42 78 -42h80l-29 -72h-84z" />
    <glyph glyph-name="uni0625.f" unicode="&#x625;" horiz-adv-x="293" arabic-form="final" 
d="M74 238l-21 487l123 9l18 -452c3 -88 32 -118 99 -124c40 0 92 -18 92 -78c0 -37 -16 -80 -92 -80c-141 0 -211 65 -219 238zM194 -59c52 0 86 -15 101 -29l-19 -66c-19 15 -54 24 -76 24c-28 0 -46 -14 -46 -30c0 -25 27 -41 77 -41h80l-29 -73h-83
c-55 0 -99 -4 -135 -19l7 67c11 7 30 12 43 13c-16 12 -34 28 -34 61c0 66 59 93 114 93z" />
    <glyph glyph-name="uni0671.f" unicode="&#x671;" horiz-adv-x="293" arabic-form="final" 
d="M74 238l-21 487l123 9l18 -452c3 -88 32 -118 99 -124c40 0 92 -18 92 -78c0 -37 -16 -80 -92 -80c-141 0 -211 65 -219 238zM124 806c-65 0 -106 36 -135 36c-13 0 -32 -11 -50 -26v79c15 20 35 28 50 28c12 0 19 -3 22 -5c42 72 86 103 134 103c56 0 95 -48 95 -105
c0 -65 -54 -110 -116 -110zM126 884c24 0 47 13 48 31c0 16 -13 30 -34 30c-22 0 -47 -16 -70 -49c8 -5 32 -12 56 -12z" />
    <glyph glyph-name="uni0628.i" unicode="&#x628;" horiz-adv-x="310" arabic-form="initial" 
d="M0 0c-67 0 -82 48 -82 81c0 30 17 77 82 77h30c60 0 102 4 121 17v10c0 58 -40 146 -81 214l119 40c45 -82 76 -193 76 -276c0 -36 -6 -79 -20 -109c-26 -24 -75 -54 -235 -54h-10zM129 -134c44 0 72 -30 72 -76s-28 -74 -72 -74c-41 0 -71 28 -71 74s30 76 71 76z" />
    <glyph glyph-name="uni0628.m" unicode="&#x628;" horiz-adv-x="325" arabic-form="medial" 
d="M-3 0c-66 0 -84 45 -84 82c0 36 27 76 86 76c101 0 119 52 129 126l95 8c-1 -11 -2 -20 -2 -33c0 -60 21 -99 104 -101c40 0 92 -18 92 -78c0 -37 -16 -80 -92 -80c-99 0 -137 42 -157 90c-32 -55 -86 -90 -171 -90zM167 -134c44 0 72 -30 72 -76s-28 -74 -72 -74
c-41 0 -72 28 -72 74s31 76 72 76z" />
    <glyph glyph-name="uni0628.f" unicode="&#x628;" horiz-adv-x="909" arabic-form="final" 
d="M43 260c0 61 13 111 25 141l87 -13c-4 -20 -7 -47 -7 -68c0 -126 81 -185 250 -185c132 0 241 28 306 62c-2 10 -2 15 -2 27c0 27 4 47 11 70l95 8c-3 -16 -3 -33 -3 -44c0 -77 45 -99 105 -100c39 0 91 -18 91 -78c0 -37 -16 -80 -92 -80c-87 0 -138 30 -167 76
c-100 -67 -222 -97 -365 -97c-194 0 -330 83 -334 281zM459 -134c44 0 72 -30 72 -76s-28 -74 -72 -74c-41 0 -71 28 -71 74s30 76 71 76z" />
    <glyph glyph-name="uni062A.i" unicode="&#x62a;" horiz-adv-x="310" arabic-form="initial" 
d="M0 0c-67 0 -82 48 -82 81c0 30 17 77 82 77h30c60 0 102 4 121 17v10c0 58 -40 146 -81 214l119 40c45 -82 76 -193 76 -276c0 -36 -6 -79 -20 -109c-26 -24 -75 -54 -235 -54h-10zM170 534c-40 0 -68 26 -68 71c0 44 28 72 68 72s68 -28 68 -72c0 -43 -28 -71 -68 -71z
M4 534c-40 0 -70 26 -70 71c0 44 30 72 70 72s68 -28 68 -72c0 -43 -28 -71 -68 -71z" />
    <glyph glyph-name="uni062A.m" unicode="&#x62a;" horiz-adv-x="325" arabic-form="medial" 
d="M-3 0c-66 0 -84 45 -84 82c0 36 27 76 86 76c101 0 119 52 129 126l95 8c-1 -11 -2 -20 -2 -33c0 -60 21 -99 104 -101c40 0 92 -18 92 -78c0 -37 -16 -80 -92 -80c-99 0 -137 42 -157 90c-32 -55 -86 -90 -171 -90zM254 443c-40 0 -68 26 -68 71c0 44 28 71 68 71
s68 -27 68 -71s-28 -71 -68 -71zM87 443c-39 0 -69 26 -69 71c0 44 30 71 69 71c41 0 69 -27 69 -71s-28 -71 -69 -71z" />
    <glyph glyph-name="uni062A.f" unicode="&#x62a;" horiz-adv-x="909" arabic-form="final" 
d="M43 260c0 61 13 111 25 141l87 -13c-4 -20 -7 -47 -7 -68c0 -126 81 -185 250 -185c132 0 241 28 306 62c-2 10 -2 15 -2 27c0 27 4 47 11 70l95 8c-3 -16 -3 -33 -3 -44c0 -77 45 -99 105 -100c39 0 91 -18 91 -78c0 -37 -16 -80 -92 -80c-87 0 -138 30 -167 76
c-100 -67 -222 -97 -365 -97c-194 0 -330 83 -334 281zM514 442c-40 0 -67 25 -67 70s27 72 67 72s68 -27 68 -72c0 -43 -28 -70 -68 -70zM348 442c-40 0 -70 25 -70 70s30 72 70 72s68 -27 68 -72c0 -43 -28 -70 -68 -70z" />
    <glyph glyph-name="uni062B.i" unicode="&#x62b;" horiz-adv-x="310" arabic-form="initial" 
d="M0 0c-67 0 -82 48 -82 81c0 30 17 77 82 77h30c60 0 102 4 121 17v10c0 58 -40 146 -81 214l119 40c45 -82 76 -193 76 -276c0 -36 -6 -79 -20 -109c-26 -24 -75 -54 -235 -54h-10zM169 534c-39 0 -67 26 -67 71c0 44 28 72 67 72c41 0 68 -28 68 -72
c0 -43 -27 -71 -68 -71zM4 534c-40 0 -69 26 -69 71c0 44 30 72 69 72c40 0 68 -28 68 -72c0 -43 -28 -71 -68 -71zM87 684c-40 -1 -67 25 -67 71c0 44 27 72 67 72c41 0 68 -28 68 -72s-27 -71 -68 -71z" />
    <glyph glyph-name="uni062B.m" unicode="&#x62b;" horiz-adv-x="325" arabic-form="medial" 
d="M-3 0c-66 0 -84 45 -84 82c0 36 27 76 86 76c101 0 119 52 129 126l95 8c-1 -11 -2 -20 -2 -33c0 -60 21 -99 104 -101c40 0 92 -18 92 -78c0 -37 -16 -80 -92 -80c-99 0 -137 42 -157 90c-32 -55 -86 -90 -171 -90zM253 443c-39 0 -67 26 -67 71c0 44 28 71 67 71
c41 0 68 -27 68 -71s-27 -71 -68 -71zM88 443c-40 0 -69 26 -69 71c0 44 30 71 69 71c40 0 68 -27 68 -71s-28 -71 -68 -71zM171 592c-40 -1 -67 26 -67 71s27 72 67 72c41 0 68 -27 68 -72c0 -44 -27 -71 -68 -71z" />
    <glyph glyph-name="uni062B.f" unicode="&#x62b;" horiz-adv-x="909" arabic-form="final" 
d="M43 260c0 61 13 111 25 141l87 -13c-4 -20 -7 -47 -7 -68c0 -126 81 -185 250 -185c132 0 241 28 306 62c-2 10 -2 15 -2 27c0 27 4 47 11 70l95 8c-3 -16 -3 -33 -3 -44c0 -77 45 -99 105 -100c39 0 91 -18 91 -78c0 -37 -16 -80 -92 -80c-87 0 -138 30 -167 76
c-100 -67 -222 -97 -365 -97c-194 0 -330 83 -334 281zM514 442c-40 0 -68 25 -68 70c0 44 28 72 68 72s68 -28 68 -72c0 -43 -28 -70 -68 -70zM348 442c-40 0 -69 25 -69 70c0 44 30 72 69 72c40 0 68 -28 68 -72c0 -43 -28 -70 -68 -70zM431 591c-39 -1 -67 25 -67 71
c0 44 28 72 67 72c41 0 68 -28 68 -72s-27 -71 -68 -71z" />
    <glyph glyph-name="uni0679.i" unicode="&#x679;" horiz-adv-x="310" arabic-form="initial" 
d="M0 0c-67 0 -82 48 -82 81c0 30 17 77 82 77h30c60 0 102 4 121 17v10c0 58 -40 146 -81 214l119 40c45 -82 76 -193 76 -276c0 -36 -6 -79 -20 -109c-26 -24 -75 -54 -235 -54h-10zM60 525h-85l-36 75l58 -4c10 20 12 47 10 82l-12 159l63 6l6 -101c2 -23 3 -43 0 -61
c31 40 63 56 101 56c50 0 76 -38 76 -82c0 -91 -85 -130 -181 -130zM55 597c96 0 123 13 123 43c0 14 -12 25 -32 25c-27 0 -57 -20 -91 -68z" />
    <glyph glyph-name="uni0679.m" unicode="&#x679;" horiz-adv-x="325" arabic-form="medial" 
d="M-3 0c-66 0 -84 45 -84 82c0 36 27 76 86 76c101 0 119 52 129 126l95 8c-1 -11 -2 -20 -2 -33c0 -60 21 -99 104 -101c40 0 92 -18 92 -78c0 -37 -16 -80 -92 -80c-99 0 -137 42 -157 90c-32 -55 -86 -90 -171 -90zM144 434h-85l-36 74l58 -3c10 20 12 47 10 82l-12 159
l63 5l6 -101c2 -22 3 -42 0 -60c31 39 62 55 101 55c50 0 76 -38 76 -81c0 -92 -85 -130 -181 -130zM139 505c96 0 123 14 123 43c0 14 -13 26 -32 26c-27 0 -57 -21 -91 -69z" />
    <glyph glyph-name="uni0679.f" unicode="&#x679;" horiz-adv-x="909" arabic-form="final" 
d="M43 260c0 61 13 111 25 141l87 -13c-4 -20 -7 -47 -7 -68c0 -126 81 -185 250 -185c132 0 241 28 306 62c-2 10 -2 15 -2 27c0 27 4 47 11 70l95 8c-3 -16 -3 -33 -3 -44c0 -77 45 -99 105 -100c39 0 91 -18 91 -78c0 -37 -16 -80 -92 -80c-87 0 -138 30 -167 76
c-100 -67 -222 -97 -365 -97c-194 0 -330 83 -334 281zM404 433h-84l-37 74l59 -3c10 20 11 46 10 82l-12 158l62 6l7 -101c1 -22 2 -43 -1 -61c32 40 63 56 101 56c50 0 76 -38 76 -81c0 -92 -85 -130 -181 -130zM399 504c96 0 124 13 124 43c0 14 -13 25 -33 25
c-27 0 -57 -20 -91 -68z" />
    <glyph glyph-name="uni067E.i" unicode="&#x67e;" horiz-adv-x="310" arabic-form="initial" 
d="M0 0c-67 0 -82 48 -82 81c0 30 17 77 82 77h30c60 0 102 4 121 17v10c0 58 -40 146 -81 214l119 40c45 -82 76 -193 76 -276c0 -36 -6 -79 -20 -109c-26 -24 -75 -54 -235 -54h-10zM130 -283c38 0 68 -27 68 -71c0 -45 -30 -72 -68 -72c-41 0 -70 27 -70 72
c0 44 29 71 70 71zM46 -134c39 0 69 -27 69 -72c0 -42 -29 -70 -69 -70c-39 0 -68 28 -68 70c0 45 29 72 68 72zM213 -134c40 0 68 -27 68 -72c0 -43 -28 -70 -68 -70s-68 27 -68 70c0 45 28 72 68 72z" />
    <glyph glyph-name="uni067E.m" unicode="&#x67e;" horiz-adv-x="325" arabic-form="medial" 
d="M-3 0c-66 0 -84 45 -84 82c0 36 27 76 86 76c101 0 119 52 129 126l95 8c-1 -11 -2 -20 -2 -33c0 -60 21 -99 104 -101c40 0 92 -18 92 -78c0 -37 -16 -80 -92 -80c-99 0 -137 42 -157 90c-32 -55 -86 -90 -171 -90zM168 -283c38 0 67 -27 67 -71c0 -45 -29 -72 -68 -72
c-40 0 -69 27 -69 72c0 44 29 71 70 71zM84 -134c39 0 69 -27 69 -72c0 -42 -29 -70 -69 -70c-39 0 -68 28 -68 70c0 45 29 72 68 72zM251 -134c40 0 68 -27 68 -72c0 -43 -28 -70 -69 -70c-39 0 -67 27 -67 70c0 45 28 72 68 72z" />
    <glyph glyph-name="uni067E.f" unicode="&#x67e;" horiz-adv-x="909" arabic-form="final" 
d="M43 260c0 61 13 111 25 141l87 -13c-4 -20 -7 -47 -7 -68c0 -126 81 -185 250 -185c132 0 241 28 306 62c-2 10 -2 15 -2 27c0 27 4 47 11 70l95 8c-3 -16 -3 -33 -3 -44c0 -77 45 -99 105 -100c39 0 91 -18 91 -78c0 -37 -16 -80 -92 -80c-87 0 -138 30 -167 76
c-100 -67 -222 -97 -365 -97c-194 0 -330 83 -334 281zM460 -283c38 0 68 -27 68 -71c0 -45 -30 -72 -68 -72c-41 0 -70 27 -70 72c0 44 29 71 70 71zM376 -134c39 0 69 -27 69 -72c0 -42 -29 -70 -69 -70c-39 0 -68 28 -68 70c0 45 29 72 68 72zM543 -134
c40 0 68 -27 68 -72c0 -43 -28 -70 -68 -70s-68 27 -68 70c0 45 28 72 68 72z" />
    <glyph glyph-name="uni062D.i" unicode="&#x62d;" horiz-adv-x="694" arabic-form="initial" 
d="M0 0c-52 0 -85 30 -85 79c0 40 25 79 85 79h20c116 0 225 13 312 41c48 14 71 23 98 32c-69 30 -167 68 -240 68c-42 0 -96 -6 -142 -25l26 136c35 18 88 23 129 23c101 0 182 -37 272 -76c80 -33 105 -40 142 -40h45l-21 -139h-8c-51 0 -110 -20 -162 -52
c-165 -99 -296 -126 -451 -126h-20z" />
    <glyph glyph-name="uni062D.m" unicode="&#x62d;" horiz-adv-x="704" arabic-form="medial" 
d="M636 200h-19c-10 0 -21 -1 -32 -3c17 -31 58 -39 119 -39c40 0 92 -18 92 -78c0 -37 -16 -80 -92 -80c-135 0 -200 56 -210 166c-10 -5 -20 -11 -29 -17c-173 -118 -286 -149 -445 -149h-20c-52 0 -85 30 -85 79c0 40 25 79 85 79h18c120 0 232 17 299 44
c50 21 76 35 103 47c-71 24 -160 50 -235 50c-43 0 -96 0 -142 -25l27 136c34 20 97 23 130 23c88 0 170 -24 262 -59c81 -30 121 -36 159 -36h35z" />
    <glyph glyph-name="uni062D.f" unicode="&#x62d;" horiz-adv-x="701" arabic-form="final" 
d="M653 357l-34 -147c-7 2 -29 3 -49 3c12 -40 55 -55 131 -55c39 0 91 -18 91 -78c0 -37 -15 -80 -91 -80c-143 -3 -235 63 -232 208c-8 -1 -16 -2 -23 -4c-126 -24 -255 -105 -255 -233c0 -134 130 -201 332 -201c28 0 87 4 124 11l-53 -129c-32 -11 -90 -17 -133 -17
c-232 0 -415 110 -415 319c0 193 195 294 321 319c-42 11 -110 31 -178 31c-32 0 -95 -6 -141 -27l27 136c25 13 68 25 128 25c89 0 171 -27 264 -55c50 -16 99 -25 127 -25z" />
    <glyph glyph-name="uni062C.i" unicode="&#x62c;" horiz-adv-x="694" arabic-form="initial" 
d="M0 0c-52 0 -85 30 -85 79c0 40 25 79 85 79h20c116 0 225 13 312 41c48 14 71 23 98 32c-69 30 -167 68 -240 68c-42 0 -96 -6 -142 -25l26 136c35 18 88 23 129 23c101 0 182 -37 272 -76c80 -33 105 -40 142 -40h45l-21 -139h-8c-51 0 -110 -20 -162 -52
c-165 -99 -296 -126 -451 -126h-20zM323 -81c44 0 72 -29 72 -75s-28 -74 -72 -74c-41 0 -71 28 -71 74s30 75 71 75z" />
    <glyph glyph-name="uni062C.m" unicode="&#x62c;" horiz-adv-x="704" arabic-form="medial" 
d="M636 200h-19c-10 0 -21 -1 -32 -3c17 -31 58 -39 119 -39c40 0 92 -18 92 -78c0 -37 -16 -80 -92 -80c-135 0 -200 56 -210 166c-10 -5 -20 -11 -29 -17c-173 -118 -286 -149 -445 -149h-20c-52 0 -85 30 -85 79c0 40 25 79 85 79h18c120 0 232 17 299 44
c50 21 76 35 103 47c-71 24 -160 50 -235 50c-43 0 -96 0 -142 -25l27 136c34 20 97 23 130 23c88 0 170 -24 262 -59c81 -30 121 -36 159 -36h35zM323 -81c44 0 72 -29 72 -75s-28 -74 -72 -74c-41 0 -71 28 -71 74s30 75 71 75z" />
    <glyph glyph-name="uni062C.f" unicode="&#x62c;" horiz-adv-x="701" arabic-form="final" 
d="M653 357l-34 -147c-7 2 -29 3 -49 3c12 -40 55 -55 131 -55c39 0 91 -18 91 -78c0 -37 -15 -80 -91 -80c-143 -3 -235 63 -232 208c-8 -1 -16 -2 -23 -4c-126 -24 -255 -105 -255 -233c0 -134 130 -201 332 -201c28 0 87 4 124 11l-53 -129c-32 -11 -90 -17 -133 -17
c-232 0 -415 110 -415 319c0 193 195 294 321 319c-42 11 -110 31 -178 31c-32 0 -95 -6 -141 -27l27 136c25 13 68 25 128 25c89 0 171 -27 264 -55c50 -16 99 -25 127 -25zM392 53c43 0 72 -30 72 -76c0 -45 -29 -73 -73 -73c-41 0 -71 28 -71 73c0 46 30 76 72 76z" />
    <glyph glyph-name="uni062E.i" unicode="&#x62e;" horiz-adv-x="694" arabic-form="initial" 
d="M0 0c-52 0 -85 30 -85 79c0 40 25 79 85 79h20c116 0 225 13 312 41c48 14 71 23 98 32c-69 30 -167 68 -240 68c-42 0 -96 -6 -142 -25l26 136c35 18 88 23 129 23c101 0 182 -37 272 -76c80 -33 105 -40 142 -40h45l-21 -139h-8c-51 0 -110 -20 -162 -52
c-165 -99 -296 -126 -451 -126h-20zM369 533c-41 0 -72 28 -72 74s31 76 72 76c44 0 72 -30 72 -76s-28 -74 -72 -74z" />
    <glyph glyph-name="uni062E.m" unicode="&#x62e;" horiz-adv-x="704" arabic-form="medial" 
d="M369 533c-41 0 -72 28 -72 74s31 76 72 76c44 0 72 -30 72 -76s-28 -74 -72 -74zM636 200h-19c-10 0 -21 -1 -32 -3c17 -31 58 -39 119 -39c40 0 92 -18 92 -78c0 -37 -16 -80 -92 -80c-135 0 -200 56 -210 166c-10 -5 -20 -11 -29 -17c-173 -118 -286 -149 -445 -149
h-20c-52 0 -85 30 -85 79c0 40 25 79 85 79h18c120 0 232 17 299 44c50 21 76 35 103 47c-71 24 -160 50 -235 50c-43 0 -96 0 -142 -25l27 136c34 20 97 23 130 23c88 0 170 -24 262 -59c81 -30 121 -36 159 -36h35z" />
    <glyph glyph-name="uni062E.f" unicode="&#x62e;" horiz-adv-x="701" arabic-form="final" 
d="M371 537c-41 0 -72 28 -72 74s31 76 72 76c44 0 72 -30 72 -76s-28 -74 -72 -74zM653 357l-34 -147c-7 2 -29 3 -49 3c12 -40 55 -55 131 -55c39 0 91 -18 91 -78c0 -37 -15 -80 -91 -80c-143 -3 -235 63 -232 208c-8 -1 -16 -2 -23 -4c-126 -24 -255 -105 -255 -233
c0 -134 130 -201 332 -201c28 0 87 4 124 11l-53 -129c-32 -11 -90 -17 -133 -17c-232 0 -415 110 -415 319c0 193 195 294 321 319c-42 11 -110 31 -178 31c-32 0 -95 -6 -141 -27l27 136c25 13 68 25 128 25c89 0 171 -27 264 -55c50 -16 99 -25 127 -25z" />
    <glyph glyph-name="uni0686.i" unicode="&#x686;" horiz-adv-x="694" arabic-form="initial" 
d="M0 0c-52 0 -85 30 -85 79c0 40 25 79 85 79h20c116 0 225 13 312 41c48 14 71 23 98 32c-69 30 -167 68 -240 68c-42 0 -96 -6 -142 -25l26 136c35 18 88 23 129 23c101 0 182 -37 272 -76c80 -33 105 -40 142 -40h45l-21 -139h-8c-51 0 -110 -20 -162 -52
c-165 -99 -296 -126 -451 -126h-20zM324 -230c38 0 67 -27 67 -71s-29 -72 -68 -72c-40 0 -69 28 -69 72s29 71 70 71zM240 -81c39 0 69 -27 69 -71c0 -42 -29 -71 -69 -71c-39 0 -68 29 -68 71c0 44 29 71 68 71zM407 -81c40 0 68 -27 68 -71c0 -43 -28 -71 -68 -71
s-68 28 -68 71c0 44 28 71 68 71z" />
    <glyph glyph-name="uni0686.m" unicode="&#x686;" horiz-adv-x="704" arabic-form="medial" 
d="M636 200h-19c-10 0 -21 -1 -32 -3c17 -31 58 -39 119 -39c40 0 92 -18 92 -78c0 -37 -16 -80 -92 -80c-135 0 -200 56 -210 166c-10 -5 -20 -11 -29 -17c-173 -118 -286 -149 -445 -149h-20c-52 0 -85 30 -85 79c0 40 25 79 85 79h18c120 0 232 17 299 44
c50 21 76 35 103 47c-71 24 -160 50 -235 50c-43 0 -96 0 -142 -25l27 136c34 20 97 23 130 23c88 0 170 -24 262 -59c81 -30 121 -36 159 -36h35zM309 -152c0 -42 -29 -71 -69 -71c-39 0 -68 29 -68 71c0 44 29 71 68 71s69 -27 69 -71zM407 -81c40 0 68 -27 68 -71
c0 -43 -28 -71 -68 -71s-68 28 -68 71c0 44 28 71 68 71zM324 -230c38 0 67 -27 67 -71s-29 -72 -68 -72c-40 0 -69 28 -69 72s29 71 70 71z" />
    <glyph glyph-name="uni0686.f" unicode="&#x686;" horiz-adv-x="701" arabic-form="final" 
d="M653 357l-34 -147c-7 2 -29 3 -49 3c12 -40 55 -55 131 -55c39 0 91 -18 91 -78c0 -37 -15 -80 -91 -80c-143 -3 -235 63 -232 208c-8 -1 -16 -2 -23 -4c-126 -24 -255 -105 -255 -233c0 -134 130 -201 332 -201c28 0 87 4 124 11l-53 -129c-32 -11 -90 -17 -133 -17
c-232 0 -415 110 -415 319c0 193 195 294 321 319c-42 11 -110 31 -178 31c-32 0 -95 -6 -141 -27l27 136c25 13 68 25 128 25c89 0 171 -27 264 -55c50 -16 99 -25 127 -25zM376 14c0 -30 -21 -50 -48 -50s-45 20 -45 50c0 28 18 48 45 48c26 0 48 -20 48 -48zM500 14
c0 -31 -18 -50 -45 -50c-28 0 -48 19 -48 50c0 28 20 48 48 48c27 0 45 -20 45 -48zM392 -149c-28 0 -48 20 -48 49c0 31 20 48 48 48c26 0 45 -17 45 -48c0 -29 -19 -49 -45 -49z" />
    <glyph glyph-name="uni062F.f" unicode="&#x62f;" horiz-adv-x="599" arabic-form="final" 
d="M44 206l90 17c16 -46 42 -60 100 -60c47 0 103 15 129 38c9 9 13 17 12 22c-13 47 -36 150 -74 267l117 39c25 -93 45 -183 73 -280c23 -80 54 -91 108 -91c39 0 91 -18 91 -78c0 -37 -15 -80 -91 -80c-114 0 -149 39 -183 101c-25 -60 -103 -101 -199 -101
c-102 0 -175 49 -173 206z" />
    <glyph glyph-name="uni0630.f" unicode="&#x630;" horiz-adv-x="599" arabic-form="final" 
d="M44 206l90 17c16 -46 42 -60 100 -60c47 0 103 15 129 38c9 9 13 17 12 22c-13 47 -36 150 -74 267l117 39c25 -93 45 -183 73 -280c23 -80 54 -91 108 -91c39 0 91 -18 91 -78c0 -37 -15 -80 -91 -80c-114 0 -149 39 -183 101c-25 -60 -103 -101 -199 -101
c-102 0 -175 49 -173 206zM358 616c-41 0 -72 28 -72 74s31 75 72 75c43 0 72 -29 72 -75s-29 -74 -72 -74z" />
    <glyph glyph-name="uni0688.f" unicode="&#x688;" horiz-adv-x="599" arabic-form="final" 
d="M44 206l90 17c16 -46 42 -60 100 -60c47 0 103 15 129 38c9 9 13 17 12 22c-13 47 -36 150 -74 267l117 39c25 -93 45 -183 73 -280c23 -80 54 -91 108 -91c39 0 91 -18 91 -78c0 -37 -15 -80 -91 -80c-114 0 -149 39 -183 101c-25 -60 -103 -101 -199 -101
c-102 0 -175 49 -173 206zM330 607h-85l-36 74l58 -3c10 20 12 46 10 82l-12 159l63 5l6 -101c2 -22 3 -43 0 -60c31 39 62 55 100 55c51 0 77 -38 77 -81c0 -92 -86 -130 -181 -130zM324 678c96 0 124 13 124 43c0 14 -13 25 -32 25c-27 0 -57 -20 -92 -68z" />
    <glyph glyph-name="uni0631.f" unicode="&#x631;" horiz-adv-x="475" arabic-form="final" 
d="M206 270l117 57c21 -38 39 -72 53 -104c30 -55 66 -65 99 -65c40 0 92 -18 92 -78c0 -37 -16 -80 -92 -80c-9 0 -35 1 -54 11c-1 -15 -3 -33 -6 -44c-29 -131 -146 -218 -243 -218c-55 0 -121 20 -158 64l12 104c35 -17 81 -28 141 -28c54 0 137 46 152 143
c-3 48 -64 154 -113 238z" />
    <glyph glyph-name="uni0632.f" unicode="&#x632;" horiz-adv-x="475" arabic-form="final" 
d="M236 419c-41 0 -71 29 -71 74c0 46 30 76 72 76c43 0 72 -30 72 -76c0 -45 -29 -74 -73 -74zM206 270l117 57c21 -38 39 -72 53 -104c30 -55 66 -65 99 -65c40 0 92 -18 92 -78c0 -37 -16 -80 -92 -80c-9 0 -35 1 -54 11c-1 -15 -3 -33 -6 -44
c-29 -131 -146 -218 -243 -218c-55 0 -121 20 -158 64l12 104c35 -17 81 -28 141 -28c54 0 137 46 152 143c-3 48 -64 154 -113 238z" />
    <glyph glyph-name="uni0691.f" unicode="&#x691;" horiz-adv-x="475" arabic-form="final" 
d="M87 485l59 -4c10 20 11 47 10 82l-12 159l63 6l6 -101c2 -23 2 -43 -1 -61c32 40 63 56 101 56c50 0 77 -38 77 -82c0 -91 -86 -130 -181 -130h-85zM295 550c-28 0 -58 -20 -92 -68c96 0 124 13 124 43c0 14 -13 25 -32 25zM206 270l117 57c21 -38 39 -72 53 -104
c30 -55 66 -65 99 -65c40 0 92 -18 92 -78c0 -37 -16 -80 -92 -80c-9 0 -35 1 -54 11c-1 -15 -3 -33 -6 -44c-29 -131 -146 -218 -243 -218c-55 0 -121 20 -158 64l12 104c35 -17 81 -28 141 -28c54 0 137 46 152 143c-3 48 -64 154 -113 238z" />
    <glyph glyph-name="uni0698.f" unicode="&#x698;" horiz-adv-x="475" arabic-form="final" 
d="M235 569c-39 -1 -67 25 -67 71c0 44 28 72 67 72c41 0 69 -28 69 -72s-28 -71 -69 -71zM152 419c-39 0 -69 26 -69 71c0 44 30 72 69 72c41 0 69 -28 69 -72c0 -43 -28 -71 -69 -71zM250 490c0 44 28 72 68 72s68 -28 68 -72c0 -43 -28 -71 -68 -71s-68 26 -68 71z
M206 270l117 57c21 -38 39 -72 53 -104c30 -55 66 -65 99 -65c40 0 92 -18 92 -78c0 -37 -16 -80 -92 -80c-9 0 -35 1 -54 11c-1 -15 -3 -33 -6 -44c-29 -131 -146 -218 -243 -218c-55 0 -121 20 -158 64l12 104c35 -17 81 -28 141 -28c54 0 137 46 152 143
c-3 48 -64 154 -113 238z" />
    <glyph glyph-name="uni0633.i" unicode="&#x633;" horiz-adv-x="732" arabic-form="initial" 
d="M0 0c-68 0 -85 45 -85 79c0 44 25 79 85 79c83 0 119 24 133 111l105 5c-4 -14 -7 -25 -9 -44c-6 -46 3 -80 47 -80c46 0 73 35 86 112l102 4c-3 -15 -5 -25 -6 -40c-4 -59 23 -76 63 -76c28 0 60 18 60 52s-23 91 -38 127l121 28c14 -33 23 -82 23 -137
c0 -144 -80 -220 -180 -220c-68 0 -102 37 -120 69c-27 -46 -70 -69 -127 -69c-68 0 -93 34 -108 69c-31 -43 -85 -69 -152 -69z" />
    <glyph glyph-name="uni0633.m" unicode="&#x633;" horiz-adv-x="785" arabic-form="medial" 
d="M0 0c-67 0 -84 45 -84 79c0 44 24 79 84 79c83 0 120 25 134 112l105 4c-2 -8 -9 -26 -11 -45c-5 -44 6 -79 48 -79c38 0 69 18 86 108l102 4c-3 -16 -5 -25 -6 -41c-6 -56 14 -71 43 -71c54 0 76 68 86 145l98 8c-1 -13 -3 -17 -3 -38c-1 -66 19 -107 103 -107
c39 0 92 -18 92 -78c0 -37 -16 -80 -92 -80c-63 0 -126 14 -158 87c-27 -54 -77 -87 -133 -87c-65 0 -92 32 -107 70c-29 -46 -69 -70 -129 -70c-64 0 -93 38 -105 70c-31 -43 -86 -70 -153 -70z" />
    <glyph glyph-name="uni0633.f" unicode="&#x633;" horiz-adv-x="1141" arabic-form="final" 
d="M47 33c0 77 21 143 49 197l85 -14c-7 -26 -20 -73 -20 -133c0 -87 56 -157 158 -157c71 0 133 29 165 87c5 8 8 21 8 30c-8 82 -37 160 -75 237l116 45c19 -37 38 -92 55 -151c3 -14 16 -24 40 -24c45 0 72 15 90 108l101 3c-3 -13 -6 -36 -6 -49c0 -43 13 -62 46 -62
c54 0 73 68 84 145l99 8c-2 -11 -5 -29 -5 -40c0 -66 22 -105 104 -105c40 0 92 -18 92 -78c0 -37 -16 -80 -92 -80c-62 0 -118 14 -158 88c-28 -55 -79 -88 -134 -88c-72 0 -95 41 -105 70c-26 -42 -67 -70 -126 -70c-6 0 -17 1 -26 6c-1 -11 -4 -30 -9 -42
c-41 -109 -140 -188 -289 -188c-153 0 -247 113 -247 257z" />
    <glyph glyph-name="uni0634.i" unicode="&#x634;" horiz-adv-x="732" arabic-form="initial" 
d="M0 0c-68 0 -85 45 -85 79c0 44 25 79 85 79c83 0 119 24 133 111l105 5c-4 -14 -7 -25 -9 -44c-6 -46 3 -80 47 -80c46 0 73 35 86 112l102 4c-3 -15 -5 -25 -6 -40c-4 -59 23 -76 63 -76c28 0 60 18 60 52s-23 91 -38 127l121 28c14 -33 23 -82 23 -137
c0 -144 -80 -220 -180 -220c-68 0 -102 37 -120 69c-27 -46 -70 -69 -127 -69c-68 0 -93 34 -108 69c-31 -43 -85 -69 -152 -69zM461 417c-39 0 -67 26 -67 71c0 44 28 72 67 72c41 0 68 -28 68 -72c0 -43 -27 -71 -68 -71zM296 417c-40 0 -69 26 -69 71c0 44 29 72 69 72
s68 -28 68 -72c0 -43 -28 -71 -68 -71zM379 566c-40 0 -67 26 -67 71s27 72 67 72s68 -27 68 -72c0 -44 -28 -71 -68 -71z" />
    <glyph glyph-name="uni0634.m" unicode="&#x634;" horiz-adv-x="785" arabic-form="medial" 
d="M0 0c-67 0 -84 45 -84 79c0 44 24 79 84 79c83 0 120 25 134 112l105 4c-2 -8 -9 -26 -11 -45c-5 -44 6 -79 48 -79c38 0 69 18 86 108l102 4c-3 -16 -5 -25 -6 -41c-6 -56 14 -71 43 -71c54 0 76 68 86 145l98 8c-1 -13 -3 -17 -3 -38c-1 -66 19 -107 103 -107
c39 0 92 -18 92 -78c0 -37 -16 -80 -92 -80c-63 0 -126 14 -158 87c-27 -54 -77 -87 -133 -87c-65 0 -92 32 -107 70c-29 -46 -69 -70 -129 -70c-64 0 -93 38 -105 70c-31 -43 -86 -70 -153 -70zM457 417c-39 0 -67 26 -67 71c0 44 28 72 67 72c41 0 68 -28 68 -72
c0 -43 -27 -71 -68 -71zM292 417c-40 0 -69 26 -69 71c0 44 29 72 69 72s68 -28 68 -72c0 -43 -28 -71 -68 -71zM375 566c-40 0 -67 26 -67 71s27 72 67 72s68 -27 68 -72c0 -44 -28 -71 -68 -71z" />
    <glyph glyph-name="uni0634.f" unicode="&#x634;" horiz-adv-x="1141" arabic-form="final" 
d="M47 33c0 77 21 143 49 197l85 -14c-7 -26 -20 -73 -20 -133c0 -87 56 -157 158 -157c71 0 133 29 165 87c5 8 8 21 8 30c-8 82 -37 160 -75 237l116 45c19 -37 38 -92 55 -151c3 -14 16 -24 40 -24c45 0 72 15 90 108l101 3c-3 -13 -6 -36 -6 -49c0 -43 13 -62 46 -62
c54 0 73 68 84 145l99 8c-2 -11 -5 -29 -5 -40c0 -66 22 -105 104 -105c40 0 92 -18 92 -78c0 -37 -16 -80 -92 -80c-62 0 -118 14 -158 88c-28 -55 -79 -88 -134 -88c-72 0 -95 41 -105 70c-26 -42 -67 -70 -126 -70c-6 0 -17 1 -26 6c-1 -11 -4 -30 -9 -42
c-41 -109 -140 -188 -289 -188c-153 0 -247 113 -247 257zM815 417c-39 0 -67 26 -67 71c0 44 28 72 67 72c41 0 68 -28 68 -72c0 -43 -27 -71 -68 -71zM650 417c-40 0 -69 26 -69 71c0 44 29 72 69 72s68 -28 68 -72c0 -43 -28 -71 -68 -71zM733 566c-40 0 -67 26 -67 71
s27 72 67 72s68 -27 68 -72c0 -44 -28 -71 -68 -71z" />
    <glyph glyph-name="uni0635.i" unicode="&#x635;" horiz-adv-x="907" arabic-form="initial" 
d="M0 0c-61 0 -86 41 -86 79c0 47 34 79 85 79c102 0 122 71 128 162l101 5c-3 -15 -5 -29 -6 -43c-2 -68 22 -96 59 -110c82 125 220 263 371 263c144 0 214 -117 214 -207c0 -73 -46 -140 -132 -182c-58 -28 -143 -53 -292 -53c-188 0 -250 47 -286 102
c-34 -60 -84 -95 -156 -95zM384 152c31 -4 54 -6 82 -6c75 0 154 7 192 18c55 13 103 34 103 64c0 28 -36 79 -131 79c-70 0 -168 -53 -246 -155z" />
    <glyph glyph-name="uni0635.m" unicode="&#x635;" horiz-adv-x="934" arabic-form="medial" 
d="M127 320l101 5c-3 -15 -5 -29 -6 -43c-2 -68 22 -96 59 -110c82 125 220 263 371 263c144 0 214 -117 214 -207c0 -20 -4 -40 -11 -59c25 -7 64 -11 79 -11c39 0 91 -18 91 -78c0 -37 -15 -80 -91 -80h-16c-59 0 -136 25 -168 54c-5 -3 -11 -5 -16 -8
c-58 -28 -143 -53 -292 -53c-188 0 -250 47 -286 102c-34 -60 -84 -95 -156 -95c-61 0 -86 41 -86 79c0 47 34 79 85 79c102 0 122 71 128 162zM658 164c55 13 103 34 103 64c0 28 -36 79 -131 79c-70 0 -168 -53 -246 -155c31 -4 54 -6 82 -6c75 0 154 7 192 18z" />
    <glyph glyph-name="uni0635.f" unicode="&#x635;" horiz-adv-x="1276" arabic-form="final" 
d="M415 261l115 53c2 -5 4 -11 9 -23c26 -72 44 -102 86 -120c82 125 219 264 370 264c144 0 214 -117 214 -207c0 -20 -4 -40 -11 -59c25 -7 63 -11 78 -11c40 0 92 -18 92 -78c0 -37 -16 -80 -92 -80h-16c-59 0 -135 25 -167 54c-5 -3 -11 -5 -16 -8
c-58 -28 -142 -53 -276 -53c-114 0 -175 22 -211 43c-4 -32 -3 -60 -11 -82c-35 -106 -141 -180 -285 -180c-160 0 -247 109 -247 250c0 50 13 117 42 170l87 -14c-11 -35 -17 -79 -17 -106c0 -77 51 -150 156 -150c61 0 136 21 164 81c4 7 8 19 8 26c0 78 -34 153 -72 230z
M1002 164c54 13 102 34 102 64c0 29 -38 79 -124 79c-77 0 -173 -53 -255 -155c30 -4 58 -6 83 -6c76 0 155 8 194 18z" />
    <glyph glyph-name="uni0636.i" unicode="&#x636;" horiz-adv-x="907" arabic-form="initial" 
d="M0 0c-61 0 -86 41 -86 79c0 47 34 79 85 79c102 0 122 71 128 162l101 5c-3 -15 -5 -29 -6 -43c-2 -68 22 -96 59 -110c82 125 220 263 371 263c144 0 214 -117 214 -207c0 -73 -46 -140 -132 -182c-58 -28 -143 -53 -292 -53c-188 0 -250 47 -286 102
c-34 -60 -84 -95 -156 -95zM384 152c31 -4 54 -6 82 -6c75 0 154 7 192 18c55 13 103 34 103 64c0 28 -36 79 -131 79c-70 0 -168 -53 -246 -155zM502 542c-42 0 -72 28 -72 74s30 76 72 76c43 0 72 -30 72 -76s-29 -74 -72 -74z" />
    <glyph glyph-name="uni0636.m" unicode="&#x636;" horiz-adv-x="934" arabic-form="medial" 
d="M501 542c-41 0 -72 28 -72 74s31 76 72 76c44 0 72 -30 72 -76s-28 -74 -72 -74zM127 320l101 5c-3 -15 -5 -29 -6 -43c-2 -68 22 -96 59 -110c82 125 220 263 371 263c144 0 214 -117 214 -207c0 -20 -4 -40 -11 -59c25 -7 64 -11 79 -11c39 0 91 -18 91 -78
c0 -37 -15 -80 -91 -80h-16c-59 0 -136 25 -168 54c-5 -3 -11 -5 -16 -8c-58 -28 -143 -53 -292 -53c-188 0 -250 47 -286 102c-34 -60 -84 -95 -156 -95c-61 0 -86 41 -86 79c0 47 34 79 85 79c102 0 122 71 128 162zM658 164c55 13 103 34 103 64c0 28 -36 79 -131 79
c-70 0 -168 -53 -246 -155c31 -4 54 -6 82 -6c75 0 154 7 192 18z" />
    <glyph glyph-name="uni0636.f" unicode="&#x636;" horiz-adv-x="1276" arabic-form="final" 
d="M846 542c-42 0 -72 28 -72 74s30 76 72 76c43 0 72 -30 72 -76s-29 -74 -72 -74zM415 261l115 53c2 -5 4 -11 9 -23c26 -72 44 -102 86 -120c82 125 219 264 370 264c144 0 214 -117 214 -207c0 -20 -4 -40 -11 -59c25 -7 63 -11 78 -11c40 0 92 -18 92 -78
c0 -37 -16 -80 -92 -80h-16c-59 0 -135 25 -167 54c-5 -3 -11 -5 -16 -8c-58 -28 -142 -53 -276 -53c-114 0 -175 22 -211 43c-4 -32 -3 -60 -11 -82c-35 -106 -141 -180 -285 -180c-160 0 -247 109 -247 250c0 50 13 117 42 170l87 -14c-11 -35 -17 -79 -17 -106
c0 -77 51 -150 156 -150c61 0 136 21 164 81c4 7 8 19 8 26c0 78 -34 153 -72 230zM1002 164c54 13 102 34 102 64c0 29 -38 79 -124 79c-77 0 -173 -53 -255 -155c30 -4 58 -6 83 -6c76 0 155 8 194 18z" />
    <glyph glyph-name="uni0637.i" unicode="&#x637;" horiz-adv-x="710" arabic-form="initial" 
d="M0 0c-67 0 -82 49 -82 82c0 28 15 75 82 75h54c8 12 14 26 18 41c8 28 5 62 3 102l-19 425l124 9l11 -279c3 -86 2 -139 -2 -164c71 86 171 144 267 144c136 0 212 -108 212 -206c0 -60 -21 -140 -132 -186c-64 -27 -146 -43 -358 -43h-178zM194 157h37
c132 0 240 9 273 21c35 12 59 25 59 51c0 29 -38 78 -127 78c-72 0 -163 -48 -242 -150z" />
    <glyph glyph-name="uni0637.m" unicode="&#x637;" horiz-adv-x="735" arabic-form="medial" 
d="M180 734l11 -279c3 -86 2 -139 -2 -164c71 86 171 144 267 144c136 0 212 -108 212 -206c0 -19 -2 -40 -9 -61c24 -9 61 -10 76 -10c39 0 91 -18 91 -78c0 -37 -15 -80 -91 -80h-17c-64 0 -133 21 -166 50c-5 -2 -10 -5 -16 -7c-64 -27 -146 -43 -358 -43h-178
c-67 0 -82 49 -82 82c0 28 15 75 82 75h54c8 12 14 26 18 41c8 28 5 62 3 102l-19 425zM194 157h37c132 0 240 9 273 21c35 12 59 25 59 51c0 29 -38 78 -127 78c-72 0 -163 -48 -242 -150z" />
    <glyph glyph-name="uni0637.f" unicode="&#x637;" horiz-adv-x="841" arabic-form="final" 
d="M285 734l11 -279c4 -86 3 -139 -1 -164c71 86 171 144 267 144c136 0 212 -108 212 -206c0 -19 -2 -41 -9 -63c25 -7 62 -8 76 -8c40 0 92 -18 92 -78c0 -37 -16 -80 -92 -80h-16c-64 0 -136 20 -170 49c-4 -2 -9 -4 -13 -6c-65 -27 -146 -43 -358 -43
c-58 0 -138 2 -214 16l-45 158c40 -12 113 -16 135 -16c8 12 14 25 18 40c7 28 5 62 3 102l-19 425zM299 157h38c132 0 240 9 273 21c36 12 59 25 59 51c0 30 -40 78 -127 78c-73 0 -163 -48 -243 -150z" />
    <glyph glyph-name="uni0638.i" unicode="&#x638;" horiz-adv-x="710" arabic-form="initial" 
d="M0 0c-67 0 -82 49 -82 82c0 28 15 75 82 75h54c8 12 14 26 18 41c8 28 5 62 3 102l-19 425l124 9l11 -279c3 -86 2 -139 -2 -164c71 86 171 144 267 144c136 0 212 -108 212 -206c0 -60 -21 -140 -132 -186c-64 -27 -146 -43 -358 -43h-178zM194 157h37
c132 0 240 9 273 21c35 12 59 25 59 51c0 29 -38 78 -127 78c-72 0 -163 -48 -242 -150zM399 542c-41 0 -71 28 -71 74s30 76 71 76c44 0 72 -30 72 -76s-28 -74 -72 -74z" />
    <glyph glyph-name="uni0638.m" unicode="&#x638;" horiz-adv-x="735" arabic-form="medial" 
d="M180 734l11 -279c3 -86 2 -139 -2 -164c71 86 171 144 267 144c136 0 212 -108 212 -206c0 -19 -2 -40 -9 -61c24 -9 61 -10 76 -10c39 0 91 -18 91 -78c0 -37 -15 -80 -91 -80h-17c-64 0 -133 21 -166 50c-5 -2 -10 -5 -16 -7c-64 -27 -146 -43 -358 -43h-178
c-67 0 -82 49 -82 82c0 28 15 75 82 75h54c8 12 14 26 18 41c8 28 5 62 3 102l-19 425zM399 542c-41 0 -71 28 -71 74s30 76 71 76c44 0 72 -30 72 -76s-28 -74 -72 -74zM194 157h37c132 0 240 9 273 21c35 12 59 25 59 51c0 29 -38 78 -127 78c-72 0 -163 -48 -242 -150z
" />
    <glyph glyph-name="uni0638.f" unicode="&#x638;" horiz-adv-x="841" arabic-form="final" 
d="M285 734l11 -279c4 -86 3 -139 -1 -164c71 86 171 144 267 144c136 0 212 -108 212 -206c0 -19 -2 -41 -9 -63c25 -7 62 -8 76 -8c40 0 92 -18 92 -78c0 -37 -16 -80 -92 -80h-16c-64 0 -136 20 -170 49c-4 -2 -9 -4 -13 -6c-65 -27 -146 -43 -358 -43
c-58 0 -138 2 -214 16l-45 158c40 -12 113 -16 135 -16c8 12 14 25 18 40c7 28 5 62 3 102l-19 425zM504 542c-41 0 -71 28 -71 74s30 76 72 76c43 0 72 -30 72 -76s-29 -74 -73 -74zM299 157h38c132 0 240 9 273 21c36 12 59 25 59 51c0 30 -40 78 -127 78
c-73 0 -163 -48 -243 -150z" />
    <glyph glyph-name="uni0639.i" unicode="&#x639;" horiz-adv-x="501" arabic-form="initial" 
d="M0 0c-68 0 -85 48 -85 83s21 75 85 75h8c25 0 70 2 94 4c-19 18 -48 56 -48 110c0 115 98 203 220 203c56 0 98 -13 127 -33l13 -123c-32 17 -86 26 -130 26c-77 0 -124 -39 -124 -73c0 -23 20 -46 57 -68c22 -13 63 -22 84 -22c38 0 115 14 173 34l-25 -146
c-92 -41 -264 -70 -439 -70h-10z" />
    <glyph glyph-name="uni0639.m" unicode="&#x639;" horiz-adv-x="644" arabic-form="medial" 
d="M638 158h6c40 0 92 -18 92 -78c0 -37 -16 -80 -92 -80h-20c-97 0 -187 26 -265 67c-94 -41 -215 -67 -359 -67c-64 0 -82 48 -82 79s18 79 82 79h5c81 0 152 6 212 16c-37 37 -68 78 -92 121c-20 -7 -40 -15 -58 -23l-17 113c55 27 158 64 288 64c216 0 242 -83 242 -136
c0 -49 -24 -100 -70 -146c41 -6 83 -9 128 -9zM231 321c29 -49 73 -86 130 -112c75 27 112 58 112 77c0 17 -29 44 -143 44c-30 0 -64 -3 -99 -9z" />
    <glyph glyph-name="uni0639.f" unicode="&#x639;" horiz-adv-x="644" arabic-form="final" 
d="M603 158h41c40 0 92 -18 92 -78c0 -37 -16 -80 -92 -80h-39c-113 0 -210 29 -289 78c-111 -57 -153 -102 -153 -150c0 -67 90 -154 298 -154c59 0 120 4 165 16l-52 -127c-36 -10 -92 -20 -157 -20c-200 0 -381 93 -381 276c0 79 39 149 191 230c-44 42 -79 92 -107 145
c-21 -7 -40 -15 -59 -23l-17 113c55 28 169 65 289 65c202 0 244 -79 244 -136c0 -43 -11 -87 -97 -146c38 -6 79 -9 123 -9zM325 330c-31 0 -65 -3 -100 -9c26 -49 69 -87 124 -114c109 52 122 71 122 83c0 19 -38 40 -146 40z" />
    <glyph glyph-name="uni063A.i" unicode="&#x63a;" horiz-adv-x="501" arabic-form="initial" 
d="M0 0c-68 0 -85 48 -85 83s21 75 85 75h8c25 0 70 2 94 4c-19 18 -48 56 -48 110c0 115 98 203 220 203c56 0 98 -13 127 -33l13 -123c-32 17 -86 26 -130 26c-77 0 -124 -39 -124 -73c0 -23 20 -46 57 -68c22 -13 63 -22 84 -22c38 0 115 14 173 34l-25 -146
c-92 -41 -264 -70 -439 -70h-10zM232 583c-41 0 -71 29 -71 74c0 46 30 76 71 76c44 0 72 -30 72 -76c0 -45 -28 -74 -72 -74z" />
    <glyph glyph-name="uni063A.m" unicode="&#x63a;" horiz-adv-x="644" arabic-form="medial" 
d="M337 580c-41 0 -71 28 -71 74s30 76 71 76c44 0 72 -30 72 -76s-28 -74 -72 -74zM638 158h6c40 0 92 -18 92 -78c0 -37 -16 -80 -92 -80h-20c-97 0 -187 26 -265 67c-94 -41 -215 -67 -359 -67c-64 0 -82 48 -82 79s18 79 82 79h5c81 0 152 6 212 16
c-37 37 -68 78 -92 121c-20 -7 -40 -15 -58 -23l-17 113c55 27 158 64 288 64c216 0 242 -83 242 -136c0 -49 -24 -100 -70 -146c41 -6 83 -9 128 -9zM231 321c29 -49 73 -86 130 -112c75 27 112 58 112 77c0 17 -29 44 -143 44c-30 0 -64 -3 -99 -9z" />
    <glyph glyph-name="uni063A.f" unicode="&#x63a;" horiz-adv-x="644" arabic-form="final" 
d="M332 580c-41 0 -71 28 -71 74s30 76 71 76c44 0 73 -30 73 -76s-29 -74 -73 -74zM603 158h41c40 0 92 -18 92 -78c0 -37 -16 -80 -92 -80h-39c-113 0 -210 29 -289 78c-111 -57 -153 -102 -153 -150c0 -67 90 -154 298 -154c59 0 120 4 165 16l-52 -127
c-36 -10 -92 -20 -157 -20c-200 0 -381 93 -381 276c0 79 39 149 191 230c-44 42 -79 92 -107 145c-21 -7 -40 -15 -59 -23l-17 113c55 28 169 65 289 65c202 0 244 -79 244 -136c0 -43 -11 -87 -97 -146c38 -6 79 -9 123 -9zM325 330c-31 0 -65 -3 -100 -9
c26 -49 69 -87 124 -114c109 52 122 71 122 83c0 19 -38 40 -146 40z" />
    <glyph glyph-name="uni0641.i" unicode="&#x641;" horiz-adv-x="462" arabic-form="initial" 
d="M207 669c-41 0 -71 28 -71 74s30 76 71 76c44 0 72 -30 72 -76s-28 -74 -72 -74zM59 0h-59c-52 0 -85 38 -85 81c0 45 34 77 84 77l56 -1c51 0 192 6 240 16c1 5 2 11 3 17c-194 -10 -250 100 -250 173c0 38 11 94 58 141c40 44 96 60 128 60c84 0 181 -76 181 -272
c0 -43 -7 -153 -36 -219c-31 -23 -112 -73 -320 -73zM153 379c0 -42 61 -63 152 -64c3 43 -28 121 -85 121c-44 0 -67 -29 -67 -57z" />
    <glyph glyph-name="uni0641.m" unicode="&#x641;" horiz-adv-x="499" arabic-form="medial" 
d="M226 585c-41 0 -72 28 -72 74s31 76 72 76c44 0 72 -30 72 -76s-28 -74 -72 -74zM481 158h18c40 0 92 -18 92 -78c0 -37 -16 -80 -92 -80h-29c-75 0 -151 18 -217 49c-64 -31 -140 -49 -220 -49h-33c-60 0 -85 36 -85 80c0 30 19 78 85 78h16c26 0 59 0 94 2
c-25 34 -39 72 -39 112c0 132 116 212 193 212c73 0 165 -68 165 -204c0 -42 -14 -82 -38 -118c30 -3 61 -4 90 -4zM175 278c0 -44 34 -72 84 -91c40 17 67 44 67 85c0 36 -32 83 -74 83c-50 0 -77 -39 -77 -77z" />
    <glyph glyph-name="uni0641.f" unicode="&#x641;" horiz-adv-x="938" arabic-form="final" 
d="M682 585c-41 0 -71 28 -71 74s30 76 71 76c44 0 73 -30 73 -76s-29 -74 -73 -74zM920 158h18c40 0 92 -18 92 -78c0 -37 -16 -80 -92 -80h-10c-84 0 -163 17 -229 46c-78 -38 -184 -62 -323 -62c-257 0 -333 137 -333 270c0 63 14 125 31 166l87 -13
c-8 -31 -11 -70 -11 -96c0 -123 91 -178 272 -178c43 0 92 2 140 9c-34 40 -53 84 -53 131c0 136 122 211 189 211c73 0 170 -66 170 -200c0 -42 -11 -84 -36 -123c30 -2 60 -3 88 -3zM613 280c0 -48 37 -78 90 -96c37 21 61 49 61 88c0 40 -29 83 -77 83
c-47 0 -74 -41 -74 -75z" />
    <glyph glyph-name="uni06A4.i" unicode="&#x6a4;" horiz-adv-x="462" arabic-form="initial" 
d="M206 818c-40 -1 -67 26 -67 71c0 44 27 72 67 72c41 0 68 -28 68 -72s-27 -71 -68 -71zM123 669c-40 0 -69 26 -69 71c0 44 30 71 69 71c40 0 68 -27 68 -71s-28 -71 -68 -71zM288 669c-39 0 -67 26 -67 71c0 44 28 71 67 71c41 0 68 -27 68 -71s-27 -71 -68 -71zM59 0
h-59c-52 0 -85 38 -85 81c0 45 34 77 84 77l56 -1c51 0 192 6 240 16c1 5 2 11 3 17c-194 -10 -250 100 -250 173c0 38 11 94 58 141c40 44 96 60 128 60c84 0 181 -76 181 -272c0 -43 -7 -153 -36 -219c-31 -23 -112 -73 -320 -73zM153 379c0 -42 61 -63 152 -64
c3 43 -28 121 -85 121c-44 0 -67 -29 -67 -57z" />
    <glyph glyph-name="uni06A4.m" unicode="&#x6a4;" horiz-adv-x="499" arabic-form="medial" 
d="M225 734c-40 0 -67 26 -67 71s27 72 67 72s68 -27 68 -72c0 -44 -28 -71 -68 -71zM142 585c-40 0 -69 26 -69 71c0 44 29 72 69 72s68 -28 68 -72c0 -43 -28 -71 -68 -71zM240 656c0 44 28 72 67 72c41 0 68 -28 68 -72c0 -43 -27 -71 -68 -71c-39 0 -67 26 -67 71z
M481 158h18c40 0 92 -18 92 -78c0 -37 -16 -80 -92 -80h-29c-75 0 -151 18 -217 49c-64 -31 -140 -49 -220 -49h-33c-60 0 -85 36 -85 80c0 30 19 78 85 78h16c26 0 59 0 94 2c-25 34 -39 72 -39 112c0 132 116 212 193 212c73 0 165 -68 165 -204c0 -42 -14 -82 -38 -118
c30 -3 61 -4 90 -4zM175 278c0 -44 34 -72 84 -91c40 17 67 44 67 85c0 36 -32 83 -74 83c-50 0 -77 -39 -77 -77z" />
    <glyph glyph-name="uni06A4.f" unicode="&#x6a4;" horiz-adv-x="938" arabic-form="final" 
d="M681 734c-39 0 -67 26 -67 71s28 72 67 72c41 0 68 -27 68 -72c0 -44 -27 -71 -68 -71zM598 585c-40 0 -69 26 -69 71c0 44 30 72 69 72c40 0 68 -28 68 -72c0 -43 -28 -71 -68 -71zM696 656c0 44 28 72 68 72s68 -28 68 -72c0 -43 -28 -71 -68 -71s-68 26 -68 71z
M920 158h18c40 0 92 -18 92 -78c0 -37 -16 -80 -92 -80h-10c-84 0 -163 17 -229 46c-78 -38 -184 -62 -323 -62c-257 0 -333 137 -333 270c0 63 14 125 31 166l87 -13c-8 -31 -11 -70 -11 -96c0 -123 91 -178 272 -178c43 0 92 2 140 9c-34 40 -53 84 -53 131
c0 136 122 211 189 211c73 0 170 -66 170 -200c0 -42 -11 -84 -36 -123c30 -2 60 -3 88 -3zM613 280c0 -48 37 -78 90 -96c37 21 61 49 61 88c0 40 -29 83 -77 83c-47 0 -74 -41 -74 -75z" />
    <glyph glyph-name="uni0642.i" unicode="&#x642;" horiz-adv-x="462" arabic-form="initial" 
d="M122 669c-39 0 -69 25 -69 70s30 72 69 72c41 0 69 -27 69 -72c0 -43 -28 -70 -69 -70zM289 669c-40 0 -68 25 -68 70s28 72 68 72s68 -27 68 -72c0 -43 -28 -70 -68 -70zM59 0h-59c-52 0 -85 38 -85 81c0 45 34 77 84 77l56 -1c51 0 192 6 240 16c1 5 2 11 3 17
c-194 -10 -250 100 -250 173c0 38 11 94 58 141c40 44 96 60 128 60c84 0 181 -76 181 -272c0 -43 -7 -153 -36 -219c-31 -23 -112 -73 -320 -73zM153 379c0 -42 61 -63 152 -64c3 43 -28 121 -85 121c-44 0 -67 -29 -67 -57z" />
    <glyph glyph-name="uni0642.m" unicode="&#x642;" horiz-adv-x="499" arabic-form="medial" 
d="M141 585c-39 0 -69 26 -69 71c0 44 30 72 69 72c41 0 69 -28 69 -72s-28 -71 -69 -71zM308 585c-40 0 -68 26 -68 71c0 44 28 72 68 72s68 -28 68 -72s-28 -71 -68 -71zM481 158h18c40 0 92 -18 92 -78c0 -37 -16 -80 -92 -80h-29c-75 0 -151 18 -217 49
c-64 -31 -140 -49 -220 -49h-33c-60 0 -85 36 -85 80c0 30 19 78 85 78h16c26 0 59 0 94 2c-25 34 -39 72 -39 112c0 132 116 212 193 212c73 0 165 -68 165 -204c0 -42 -14 -82 -38 -118c30 -3 61 -4 90 -4zM175 278c0 -44 34 -72 84 -91c40 17 67 44 67 85
c0 36 -32 83 -74 83c-50 0 -77 -39 -77 -77z" />
    <glyph glyph-name="uni0642.f" unicode="&#x642;" horiz-adv-x="738" arabic-form="final" 
d="M363 513c-40 0 -70 26 -70 71c0 44 30 71 70 71s68 -27 68 -71s-28 -71 -68 -71zM529 513c-40 0 -67 26 -67 71c0 44 27 71 67 71s68 -27 68 -71s-28 -71 -68 -71zM669 158h69c40 0 92 -18 92 -78c0 -37 -16 -80 -92 -80h-75c-6 -41 -14 -70 -17 -75
c-58 -99 -171 -168 -317 -168c-151 0 -286 91 -286 298c0 63 16 130 34 168l94 -9c-8 -32 -16 -78 -16 -122c0 -115 63 -189 193 -189c94 0 170 38 196 79c1 2 3 9 5 18h-7c-192 0 -250 104 -251 202c-1 124 92 203 186 203c65 0 174 -46 192 -247zM545 158h13
c-14 84 -61 125 -103 125c-36 0 -61 -24 -61 -54c0 -38 27 -71 151 -71z" />
    <glyph glyph-name="uni0643.i" unicode="&#x643;" horiz-adv-x="410" arabic-form="initial" 
d="M0 0c-67 0 -85 50 -85 82c0 28 19 76 85 76h114c114 0 143 16 143 42c0 35 -88 127 -235 208c0 33 8 123 19 150c3 8 13 15 31 25c76 43 225 113 368 150l-33 -148c-73 -17 -210 -68 -271 -102c99 -71 227 -159 227 -296c0 -65 -35 -114 -76 -141
c-46 -30 -115 -46 -214 -46h-73z" />
    <glyph glyph-name="uni0643.m" unicode="&#x643;" horiz-adv-x="468" arabic-form="medial" 
d="M0 0c-67 0 -85 47 -85 82c0 31 19 76 85 76h32c119 0 171 17 171 47c0 14 -6 26 -30 57c-51 63 -106 107 -151 142c0 17 11 131 17 148c2 7 6 15 39 33c92 49 264 113 392 146l-32 -147c-63 -15 -240 -69 -314 -107c91 -78 150 -150 237 -262c38 -51 71 -55 107 -57
c39 0 91 -18 91 -78c0 -37 -15 -80 -91 -80c-90 2 -124 25 -195 115c-28 -86 -100 -115 -243 -115h-30z" />
    <glyph glyph-name="uni0643.f" unicode="&#x643;" horiz-adv-x="858" arabic-form="final" 
d="M43 231c0 29 6 69 16 94l90 -14c-2 -9 -4 -27 -4 -42c0 -86 74 -136 223 -136c118 0 238 33 265 70c5 6 7 25 5 75l-20 447l124 9l17 -452c5 -104 45 -120 99 -124c39 0 91 -18 91 -78c0 -37 -15 -80 -91 -80c-95 0 -152 45 -172 110c-33 -62 -171 -123 -335 -123
c-213 0 -308 99 -308 244zM302 288l-24 60c68 4 143 25 143 39c0 7 -17 8 -53 11c-53 4 -65 26 -65 57c0 67 63 135 159 140v-88c-70 -3 -89 -19 -89 -29c0 -5 10 -8 40 -12c65 -8 78 -27 78 -60c0 -87 -100 -120 -159 -120c-18 0 -24 1 -30 2z" />
    <glyph glyph-name="uni06AD.i" unicode="&#x6ad;" horiz-adv-x="410" arabic-form="initial" 
d="M0 0c-67 0 -85 50 -85 82c0 28 19 76 85 76h114c114 0 143 16 143 42c0 35 -88 127 -235 208c0 33 8 123 19 150c3 8 13 15 31 25c76 43 225 113 368 150l-33 -148c-73 -17 -210 -68 -271 -102c99 -71 227 -159 227 -296c0 -65 -35 -114 -76 -141
c-46 -30 -115 -46 -214 -46h-73zM213 753c-36 0 -63 24 -63 65c0 40 27 66 63 66c37 0 63 -26 63 -66s-26 -65 -63 -65zM63 753c-36 0 -63 24 -63 65c0 40 27 66 63 66c37 0 63 -26 63 -66s-26 -65 -63 -65zM138 888c-36 0 -62 23 -62 65c0 40 26 65 62 65
c37 0 63 -25 63 -65s-26 -65 -63 -65z" />
    <glyph glyph-name="uni06AD.m" unicode="&#x6ad;" horiz-adv-x="468" arabic-form="medial" 
d="M0 0c-67 0 -85 47 -85 82c0 31 19 76 85 76h32c119 0 171 17 171 47c0 14 -6 26 -30 57c-51 63 -106 107 -151 142c0 17 11 131 17 148c2 7 6 15 39 33c92 49 264 113 392 146l-32 -147c-63 -15 -240 -69 -314 -107c91 -78 150 -150 237 -262c38 -51 71 -55 107 -57
c39 0 91 -18 91 -78c0 -37 -15 -80 -91 -80c-90 2 -124 25 -195 115c-28 -86 -100 -115 -243 -115h-30zM213 753c-36 0 -63 24 -63 65c0 40 27 66 63 66c37 0 63 -26 63 -66s-26 -65 -63 -65zM63 753c-36 0 -63 24 -63 65c0 40 27 66 63 66c37 0 63 -26 63 -66
s-26 -65 -63 -65zM138 888c-36 0 -62 23 -62 65c0 40 26 65 62 65c37 0 63 -25 63 -65s-26 -65 -63 -65z" />
    <glyph glyph-name="uni06AD.f" unicode="&#x6ad;" horiz-adv-x="858" arabic-form="final" 
d="M43 231c0 29 6 69 16 94l90 -14c-2 -9 -4 -27 -4 -42c0 -86 74 -136 223 -136c118 0 238 33 265 70c5 6 7 25 5 75l-20 447l124 9l17 -452c5 -104 45 -120 99 -124c39 0 91 -18 91 -78c0 -37 -15 -80 -91 -80c-95 0 -152 45 -172 110c-33 -62 -171 -123 -335 -123
c-213 0 -308 99 -308 244zM302 288l-24 60c68 4 143 25 143 39c0 7 -17 8 -53 11c-53 4 -65 26 -65 57c0 67 63 135 159 140v-88c-70 -3 -89 -19 -89 -29c0 -5 10 -8 40 -12c65 -8 78 -27 78 -60c0 -87 -100 -120 -159 -120c-18 0 -24 1 -30 2zM438 684c-37 0 -63 23 -63 64
c0 40 26 66 63 66c36 0 62 -26 62 -66c0 -39 -26 -64 -62 -64zM288 684c-36 0 -64 23 -64 64c0 40 28 66 64 66s63 -26 63 -66c0 -39 -27 -64 -63 -64zM363 819c-36 0 -62 23 -62 64c0 40 26 65 62 65c37 0 63 -25 63 -65s-26 -64 -63 -64z" />
    <glyph glyph-name="uni06A9.f" unicode="&#x6a9;" horiz-adv-x="966" arabic-form="final" 
d="M43 231c0 27 6 69 16 94l89 -14c-2 -10 -4 -27 -4 -42c0 -86 73 -144 265 -144c179 0 269 53 269 77c0 13 -4 28 -27 61c-31 45 -80 93 -129 138c2 50 7 130 18 157c6 8 18 16 51 33c77 42 224 98 376 140l-30 -147c-50 -15 -231 -64 -314 -107c65 -60 126 -145 207 -247
c52 -67 87 -72 136 -72c40 0 92 -18 92 -78c0 -37 -16 -80 -92 -80h-12c-75 0 -134 25 -206 121c-45 -94 -182 -142 -362 -142c-243 0 -343 103 -343 252z" />
    <glyph glyph-name="uni06AF.i" unicode="&#x6af;" horiz-adv-x="410" arabic-form="initial" 
d="M0 0c-67 0 -85 50 -85 82c0 28 19 76 85 76h114c114 0 143 16 143 42c0 35 -88 127 -235 208c0 33 8 123 19 150c3 8 13 15 31 25c76 43 225 113 368 150l-33 -148c-73 -17 -210 -68 -271 -102c99 -71 227 -159 227 -296c0 -65 -35 -114 -76 -141
c-46 -30 -115 -46 -214 -46h-73zM69 760c82 45 249 110 396 150l-21 -91c-121 -32 -303 -103 -390 -147z" />
    <glyph glyph-name="uni06AF.m" unicode="&#x6af;" horiz-adv-x="468" arabic-form="medial" 
d="M0 0c-67 0 -85 47 -85 82c0 31 19 76 85 76h32c119 0 171 17 171 47c0 14 -6 26 -30 57c-51 63 -106 107 -151 142c0 17 11 131 17 148c2 7 6 15 39 33c92 49 264 113 392 146l-32 -147c-63 -15 -240 -69 -314 -107c91 -78 150 -150 237 -262c38 -51 71 -55 107 -57
c39 0 91 -18 91 -78c0 -37 -15 -80 -91 -80c-90 2 -124 25 -195 115c-28 -86 -100 -115 -243 -115h-30zM73 760c82 45 249 110 397 150l-21 -91c-122 -32 -304 -103 -390 -147z" />
    <glyph glyph-name="uni06AF.f" unicode="&#x6af;" horiz-adv-x="966" arabic-form="final" 
d="M43 231c0 27 6 69 16 94l89 -14c-2 -10 -4 -27 -4 -42c0 -86 73 -144 265 -144c179 0 269 53 269 77c0 13 -4 28 -27 61c-31 45 -80 93 -129 138c2 50 7 130 18 157c6 8 18 16 51 33c77 42 224 98 376 140l-30 -147c-50 -15 -231 -64 -314 -107c65 -60 126 -145 207 -247
c52 -67 87 -72 136 -72c40 0 92 -18 92 -78c0 -37 -16 -80 -92 -80h-12c-75 0 -134 25 -206 121c-45 -94 -182 -142 -362 -142c-243 0 -343 103 -343 252zM572 760c81 45 249 110 396 150l-21 -91c-122 -32 -304 -103 -390 -147z" />
    <glyph glyph-name="uni0644.i" unicode="&#x644;" horiz-adv-x="304" arabic-form="initial" 
d="M0 0c-67 0 -85 47 -85 82c0 31 24 76 85 76c71 0 107 30 102 113l-23 454l124 9l22 -481c10 -176 -71 -253 -225 -253z" />
    <glyph glyph-name="uni0644.m" unicode="&#x644;" horiz-adv-x="320" arabic-form="medial" 
d="M-2 0c-66 0 -85 45 -85 82c0 36 27 76 86 76c70 0 103 30 99 137l-17 430l122 9l17 -440c5 -104 33 -131 100 -136c39 0 91 -18 91 -78c0 -36 -15 -80 -91 -80c-71 0 -127 32 -149 90c-43 -67 -104 -90 -173 -90z" />
    <glyph glyph-name="uni0644.f" unicode="&#x644;" horiz-adv-x="694" arabic-form="final" 
d="M578 734l17 -485c10 -87 61 -91 99 -91c40 0 92 -18 92 -78c0 -37 -16 -80 -92 -80c-24 0 -65 6 -93 42c-4 -75 -22 -121 -47 -150c-62 -83 -164 -116 -257 -116c-139 0 -253 84 -253 244c0 46 13 106 38 161l92 -16c-11 -39 -15 -69 -15 -97c0 -91 58 -153 162 -153
c58 0 124 19 154 58c8 10 9 26 8 48l-29 705z" />
    <glyph glyph-name="uni0645.i" unicode="&#x645;" horiz-adv-x="491" arabic-form="initial" 
d="M-1 0c-39 0 -92 18 -92 79c0 36 16 79 92 79h3c44 0 59 16 81 69c54 125 99 177 187 177c117 0 179 -132 179 -241c0 -87 -48 -163 -140 -163c-65 0 -121 25 -181 63c-26 -34 -51 -63 -125 -63h-4zM185 198c32 -27 90 -46 123 -46c24 0 38 6 38 28c0 42 -37 95 -83 95
c-31 0 -57 -16 -78 -77z" />
    <glyph glyph-name="uni0645.m" unicode="&#x645;" horiz-adv-x="529" arabic-form="medial" 
d="M-1 158h5c37 1 57 13 80 69c54 123 99 165 187 165s147 -75 171 -159c32 -72 61 -75 87 -75c39 0 91 -18 91 -78c0 -37 -15 -80 -91 -80c-37 0 -79 15 -103 49c-23 -37 -61 -61 -113 -61c-64 0 -126 25 -186 63c-27 -31 -57 -51 -124 -51h-3c-40 0 -92 18 -92 79
c0 36 15 79 91 79zM309 140c23 0 38 6 38 28c0 42 -36 95 -83 95c-31 0 -59 -16 -81 -77c33 -27 93 -46 126 -46z" />
    <glyph glyph-name="uni0645.f" unicode="&#x645;" horiz-adv-x="859" arabic-form="final" 
d="M773 246v1c34 -82 57 -87 85 -89c39 0 91 -18 91 -78c0 -37 -15 -80 -91 -80c-44 0 -79 21 -101 53c-22 -39 -58 -65 -108 -65c-65 0 -115 21 -175 59c-8 -29 -28 -84 -40 -100c-55 -76 -198 -144 -327 -168l-77 84c128 51 290 139 340 208c16 17 34 91 51 140
c45 129 97 181 186 181c80 0 141 -68 166 -146zM645 140c23 0 37 18 37 40c0 42 -37 83 -83 83c-30 0 -61 -16 -81 -77c33 -27 94 -46 127 -46z" />
    <glyph glyph-name="uni0646.i" unicode="&#x6ba;" horiz-adv-x="310" 
d="M0 0c-67 0 -82 48 -82 81c0 30 17 77 82 77h30c60 0 102 4 121 17v10c0 58 -40 146 -81 214l119 40c45 -82 76 -193 76 -276c0 -36 -6 -79 -20 -109c-26 -24 -75 -54 -235 -54h-10zM88 534c-41 0 -71 29 -71 74c0 46 30 76 71 76c44 0 72 -30 72 -76
c0 -45 -28 -74 -72 -74z" />
    <glyph glyph-name="uni0646.m" unicode="&#x6ba;" horiz-adv-x="325" 
d="M-3 0c-66 0 -84 45 -84 82c0 36 27 76 86 76c101 0 119 52 129 126l95 8c-1 -11 -2 -20 -2 -33c0 -60 21 -99 104 -101c40 0 92 -18 92 -78c0 -37 -16 -80 -92 -80c-99 0 -137 42 -157 90c-32 -55 -86 -90 -171 -90zM172 443c-41 0 -71 28 -71 74s30 76 71 76
c44 0 72 -30 72 -76s-28 -74 -72 -74z" />
    <glyph glyph-name="uni06BA.f" unicode="&#x6ba;" horiz-adv-x="668" arabic-form="final" 
d="M43 35c0 70 19 136 46 185l90 -14c-10 -39 -21 -76 -21 -130c0 -97 71 -151 166 -151c33 0 107 10 148 58c16 16 30 44 30 60c0 20 -1 34 -5 55c-21 91 -62 163 -78 192l119 49c14 -22 48 -102 64 -171c17 -7 39 -10 66 -10c39 0 91 -18 91 -78c0 -37 -15 -80 -91 -80
c-35 0 -56 4 -66 8c-5 -34 -23 -79 -42 -105c-47 -70 -121 -127 -254 -127c-176 0 -263 121 -263 259z" />
    <glyph glyph-name="uni0646.f" unicode="&#x646;" horiz-adv-x="668" arabic-form="final" 
d="M43 35c0 70 19 136 46 185l90 -14c-10 -39 -21 -76 -21 -130c0 -97 71 -151 166 -151c33 0 107 10 148 58c16 16 30 44 30 60c0 20 -1 34 -5 55c-21 91 -62 163 -78 192l119 49c14 -22 48 -102 64 -171c17 -7 39 -10 66 -10c39 0 91 -18 91 -78c0 -37 -15 -80 -91 -80
c-35 0 -56 4 -66 8c-5 -34 -23 -79 -42 -105c-47 -70 -121 -127 -254 -127c-176 0 -263 121 -263 259zM295 384c-41 0 -71 28 -71 74c0 45 30 75 71 75c44 0 72 -30 72 -75c0 -46 -28 -74 -72 -74z" />
    <glyph glyph-name="uni0647.i" unicode="&#x647;" horiz-adv-x="684" arabic-form="initial" 
d="M178 479l66 106c55 -34 170 -106 237 -157c107 -80 157 -152 157 -246c1 -120 -105 -202 -226 -202c-68 0 -129 20 -179 51c-58 -20 -127 -31 -204 -31h-29c-69 0 -82 45 -82 81c0 29 16 77 82 77h39c26 0 51 0 76 1c-16 32 -24 64 -24 95c0 91 56 156 123 199zM203 281
c0 -41 18 -74 46 -100c56 20 91 57 91 126c0 48 -29 76 -54 76c-39 0 -83 -38 -83 -102zM424 120c72 0 107 24 107 67c0 49 -42 99 -87 134c3 -14 3 -23 3 -37c0 -60 -23 -115 -65 -161c14 -2 28 -3 42 -3z" />
    <glyph glyph-name="uni0647.m" unicode="&#x647;" horiz-adv-x="498" arabic-form="medial" 
d="M393 158h105c40 0 92 -18 92 -78c0 -36 -16 -80 -92 -80h-68c26 -22 38 -49 38 -78c0 -92 -86 -157 -167 -157c-143 0 -221 119 -241 235h-60c-59 0 -84 41 -84 80c0 33 23 78 84 78h65c27 120 98 240 152 319h35c44 -45 157 -150 157 -240c0 -26 -6 -53 -16 -79z
M172 158h46c78 0 87 24 87 47c0 32 -30 83 -66 109c-20 -27 -51 -82 -67 -156zM217 0h-46c19 -69 71 -116 131 -116c40 0 56 20 56 43c0 34 -41 73 -141 73z" />
    <glyph glyph-name="uni0647.f" unicode="&#x647;" horiz-adv-x="518" arabic-form="final" 
d="M399 564l12 -292c5 -94 42 -114 107 -114c39 0 91 -18 91 -78c0 -37 -15 -80 -91 -80c-91 0 -156 24 -188 100c-35 -25 -87 -39 -125 -39c-98 0 -162 64 -162 146c0 71 35 131 101 185c40 33 101 65 150 89l-2 73zM307 226l-7 142c-87 -29 -145 -71 -145 -113
c0 -29 24 -46 71 -46c28 0 62 9 81 17z" />
    <glyph glyph-name="uni0629.f" unicode="&#x629;" horiz-adv-x="518" arabic-form="final" 
d="M246 651c-39 0 -69 26 -69 71c0 44 30 72 69 72c41 0 69 -28 69 -72s-28 -71 -69 -71zM413 651c-40 0 -68 26 -68 71c0 44 28 72 68 72s68 -28 68 -72s-28 -71 -68 -71zM399 564l12 -292c5 -94 42 -114 107 -114c39 0 91 -18 91 -78c0 -37 -15 -80 -91 -80
c-91 0 -156 24 -188 100c-35 -25 -87 -39 -125 -39c-98 0 -162 64 -162 146c0 71 35 131 101 185c40 33 101 65 150 89l-2 73zM307 226l-7 142c-87 -29 -145 -71 -145 -113c0 -29 24 -46 71 -46c28 0 62 9 81 17z" />
    <glyph glyph-name="uni06BE.f" unicode="&#x6be;" horiz-adv-x="553" arabic-form="final" 
d="M454 158h99c39 0 91 -18 91 -78c0 -37 -15 -80 -91 -80h-68c25 -22 37 -49 37 -78c0 -92 -85 -157 -166 -157c-134 0 -210 104 -236 212c-26 -2 -52 -2 -76 -2l-33 158c39 0 74 0 104 1c23 128 99 259 156 343h35c45 -45 158 -154 158 -249c0 -26 -3 -49 -10 -70z
M293 314c-21 -31 -55 -90 -68 -172c117 14 135 43 135 63c0 32 -30 82 -67 109zM356 -116c41 0 57 20 57 43c0 34 -37 72 -146 73l-36 -9c22 -66 69 -107 125 -107z" />
    <glyph glyph-name="uni06C0.f" unicode="&#x6c0;" horiz-adv-x="518" arabic-form="final" 
d="M421 661h-83c-55 0 -99 -4 -135 -19l7 67c11 7 30 12 43 13c-16 12 -34 28 -34 61c0 66 59 93 114 93c52 0 86 -15 101 -29l-19 -66c-19 15 -54 24 -76 24c-28 0 -47 -13 -47 -30c0 -25 28 -41 78 -41h80zM399 564l12 -292c5 -94 42 -114 107 -114c39 0 91 -18 91 -78
c0 -37 -15 -80 -91 -80c-91 0 -156 24 -188 100c-35 -25 -87 -39 -125 -39c-98 0 -162 64 -162 146c0 71 35 131 101 185c40 33 101 65 150 89l-2 73zM307 226l-7 142c-87 -29 -145 -71 -145 -113c0 -29 24 -46 71 -46c28 0 62 9 81 17z" />
    <glyph glyph-name="uni06C1.i" unicode="&#x6c1;" horiz-adv-x="500" arabic-form="initial" 
d="M0 0c-68 0 -85 45 -85 79c0 44 25 79 85 79c86 0 117 27 130 104l102 4c-3 -15 -5 -25 -5 -40c-4 -59 23 -76 63 -76c28 0 60 18 60 52s-23 91 -38 127l120 28c15 -33 24 -82 24 -137c0 -144 -81 -220 -181 -220c-68 0 -103 40 -121 72c-26 -46 -93 -72 -154 -72z
M258 -72l97 -33c-20 -29 -41 -61 -41 -105c0 -37 14 -69 41 -102l-104 -44c-31 30 -55 88 -55 142c0 46 22 99 62 142z" />
    <glyph glyph-name="uni06C1.m" unicode="&#x6c1;" horiz-adv-x="511" arabic-form="medial" 
d="M0 0c-67 0 -85 48 -85 84c0 32 20 74 85 74h30c112 0 157 67 194 154l106 -20c-40 -92 -79 -185 -79 -279c0 -59 13 -109 39 -142l9 4c-5 18 -11 63 -11 92c0 124 58 192 187 191h36c40 0 92 -18 92 -78c0 -37 -16 -80 -92 -80h-35c-64 0 -86 -29 -86 -92
c0 -50 14 -120 32 -172l-131 -75c-85 66 -158 195 -158 323c0 7 0 30 1 46c-26 -23 -67 -30 -107 -30h-27z" />
    <glyph glyph-name="uni06C1.f" unicode="&#x6c1;" horiz-adv-x="518" arabic-form="final" 
d="M399 564l12 -292c5 -94 42 -114 107 -114c39 0 91 -18 91 -78c0 -37 -15 -80 -91 -80c-91 0 -156 24 -188 100c-35 -25 -87 -39 -125 -39c-98 0 -162 64 -162 146c0 71 35 131 101 185c40 33 101 65 150 89l-2 73zM307 226l-7 142c-87 -29 -145 -71 -145 -113
c0 -29 24 -46 71 -46c28 0 62 9 81 17z" />
    <glyph glyph-name="uni06C2.f" unicode="&#x6c2;" horiz-adv-x="518" 
d="M421 661h-83c-55 0 -99 -4 -135 -19l7 67c11 7 30 12 43 13c-16 12 -34 28 -34 61c0 66 59 93 114 93c52 0 86 -15 101 -29l-19 -66c-19 15 -54 24 -76 24c-28 0 -47 -13 -47 -30c0 -25 28 -41 78 -41h80zM399 564l12 -292c5 -94 42 -114 107 -114c39 0 91 -18 91 -78
c0 -37 -15 -80 -91 -80c-91 0 -156 24 -188 100c-35 -25 -87 -39 -125 -39c-98 0 -162 64 -162 146c0 71 35 131 101 185c40 33 101 65 150 89l-2 73zM307 226l-7 142c-87 -29 -145 -71 -145 -113c0 -29 24 -46 71 -46c28 0 62 9 81 17z" />
    <glyph glyph-name="uni06C3.f" unicode="&#x6c3;" horiz-adv-x="518" 
d="M246 651c-39 0 -69 26 -69 71c0 44 30 72 69 72c41 0 69 -28 69 -72s-28 -71 -69 -71zM413 651c-40 0 -68 26 -68 71c0 44 28 72 68 72s68 -28 68 -72s-28 -71 -68 -71zM399 564l12 -292c5 -94 42 -114 107 -114c39 0 91 -18 91 -78c0 -37 -15 -80 -91 -80
c-91 0 -156 24 -188 100c-35 -25 -87 -39 -125 -39c-98 0 -162 64 -162 146c0 71 35 131 101 185c40 33 101 65 150 89l-2 73zM307 226l-7 142c-87 -29 -145 -71 -145 -113c0 -29 24 -46 71 -46c28 0 62 9 81 17z" />
    <glyph glyph-name="uni06D5.f" unicode="&#x6d5;" horiz-adv-x="518" 
d="M399 564l12 -292c5 -94 42 -114 107 -114c39 0 91 -18 91 -78c0 -37 -15 -80 -91 -80c-91 0 -156 24 -188 100c-35 -25 -87 -39 -125 -39c-98 0 -162 64 -162 146c0 71 35 131 101 185c40 33 101 65 150 89l-2 73zM307 226l-7 142c-87 -29 -145 -71 -145 -113
c0 -29 24 -46 71 -46c28 0 62 9 81 17z" />
    <glyph glyph-name="uni0648.f" unicode="&#x648;" horiz-adv-x="579" arabic-form="final" 
d="M509 158h69c40 0 92 -18 92 -78c0 -37 -15 -80 -91 -80h-81c-39 -154 -164 -263 -299 -263c-52 0 -133 11 -185 66l23 101c32 -17 70 -31 142 -31c92 0 166 46 200 127c-192 0 -244 104 -244 203c0 125 95 202 182 202c64 0 175 -46 192 -247zM381 158h12
c-13 85 -55 125 -97 125c-36 0 -59 -26 -59 -54c0 -32 20 -71 144 -71z" />
    <glyph glyph-name="uni0624.f" unicode="&#x624;" horiz-adv-x="579" arabic-form="final" 
d="M373 520h-84c-55 0 -98 -4 -134 -19l7 67c11 7 30 12 43 13c-16 12 -34 28 -34 61c0 66 58 93 114 93c51 0 86 -15 101 -29l-19 -66c-19 15 -54 24 -76 24c-28 0 -47 -14 -47 -30c0 -25 28 -41 78 -41h80zM509 158h69c40 0 92 -18 92 -78c0 -37 -15 -80 -91 -80h-81
c-39 -154 -164 -263 -299 -263c-52 0 -133 11 -185 66l23 101c32 -17 70 -31 142 -31c92 0 166 46 200 127c-192 0 -244 104 -244 203c0 125 95 202 182 202c64 0 175 -46 192 -247zM381 158h12c-13 85 -55 125 -97 125c-36 0 -59 -26 -59 -54c0 -32 20 -71 144 -71z" />
    <glyph glyph-name="uni06C6.f" unicode="&#x6c6;" horiz-adv-x="579" arabic-form="final" 
d="M319 504h-83c-17 38 -60 98 -114 160l68 52c41 -40 76 -87 92 -115c20 31 49 69 93 119l61 -50c-50 -61 -98 -127 -117 -166zM509 158h69c40 0 92 -18 92 -78c0 -37 -15 -80 -91 -80h-81c-39 -154 -164 -263 -299 -263c-52 0 -133 11 -185 66l23 101
c32 -17 70 -31 142 -31c92 0 166 46 200 127c-192 0 -244 104 -244 203c0 125 95 202 182 202c64 0 175 -46 192 -247zM381 158h12c-13 85 -55 125 -97 125c-36 0 -59 -26 -59 -54c0 -32 20 -71 144 -71z" />
    <glyph glyph-name="uni06C7.f" unicode="&#x6c7;" horiz-adv-x="579" arabic-form="final" 
d="M149 514l5 55c19 -6 48 -7 58 -7c34 0 64 10 77 24c-57 4 -98 34 -98 90c0 52 42 97 101 97c43 0 95 -37 95 -112c1 -110 -85 -165 -163 -164c-36 0 -64 9 -75 17zM248 682c0 -17 16 -43 77 -41c5 32 -11 67 -46 67c-17 0 -31 -10 -31 -26zM509 158h69
c40 0 92 -18 92 -78c0 -37 -15 -80 -91 -80h-81c-39 -154 -164 -263 -299 -263c-52 0 -133 11 -185 66l23 101c32 -17 70 -31 142 -31c92 0 166 46 200 127c-192 0 -244 104 -244 203c0 125 95 202 182 202c64 0 175 -46 192 -247zM381 158h12c-13 85 -55 125 -97 125
c-36 0 -59 -26 -59 -54c0 -32 20 -71 144 -71z" />
    <glyph glyph-name="uni06C8.f" unicode="&#x6c8;" horiz-adv-x="579" arabic-form="final" 
d="M329 516l-97 -7l-20 249l109 9zM509 158h69c40 0 92 -18 92 -78c0 -37 -15 -80 -91 -80h-81c-39 -154 -164 -263 -299 -263c-52 0 -133 11 -185 66l23 101c32 -17 70 -31 142 -31c92 0 166 46 200 127c-192 0 -244 104 -244 203c0 125 95 202 182 202
c64 0 175 -46 192 -247zM381 158h12c-13 85 -55 125 -97 125c-36 0 -59 -26 -59 -54c0 -32 20 -71 144 -71z" />
    <glyph glyph-name="uni06C9.f" unicode="&#x6c9;" horiz-adv-x="579" arabic-form="final" 
d="M441 548l-69 -52c-41 40 -75 87 -91 115c-21 -31 -50 -69 -94 -119l-61 50c50 61 98 127 117 166h83c17 -38 60 -98 115 -160zM509 158h69c40 0 92 -18 92 -78c0 -37 -15 -80 -91 -80h-81c-39 -154 -164 -263 -299 -263c-52 0 -133 11 -185 66l23 101
c32 -17 70 -31 142 -31c92 0 166 46 200 127c-192 0 -244 104 -244 203c0 125 95 202 182 202c64 0 175 -46 192 -247zM381 158h12c-13 85 -55 125 -97 125c-36 0 -59 -26 -59 -54c0 -32 20 -71 144 -71z" />
    <glyph glyph-name="uni06CB.f" unicode="&#x6cb;" horiz-adv-x="579" arabic-form="final" 
d="M282 659c-40 0 -67 26 -67 71s27 72 67 72s68 -27 68 -72c0 -44 -28 -71 -68 -71zM198 510c-39 0 -68 26 -68 71c0 44 29 72 68 72c41 0 69 -28 69 -72c0 -43 -28 -71 -69 -71zM297 581c0 44 28 72 67 72c41 0 68 -28 68 -72c0 -43 -27 -71 -68 -71c-39 0 -67 26 -67 71z
M509 158h69c40 0 92 -18 92 -78c0 -37 -15 -80 -91 -80h-81c-39 -154 -164 -263 -299 -263c-52 0 -133 11 -185 66l23 101c32 -17 70 -31 142 -31c92 0 166 46 200 127c-192 0 -244 104 -244 203c0 125 95 202 182 202c64 0 175 -46 192 -247zM381 158h12
c-13 85 -55 125 -97 125c-36 0 -59 -26 -59 -54c0 -32 20 -71 144 -71z" />
    <glyph glyph-name="uni06C5.f" unicode="&#x6c5;" horiz-adv-x="590" arabic-form="final" 
d="M520 158h70c39 0 92 -18 92 -78c0 -37 -16 -80 -92 -80h-75c-34 -191 -169 -319 -313 -319c-51 0 -132 12 -184 67l23 101c32 -17 70 -32 142 -32c66 0 124 26 166 74h-216v68h258c5 13 9 27 13 41h-14c-192 0 -246 104 -247 203c-1 127 92 202 186 202
c64 0 172 -40 191 -247zM393 158h17c-15 86 -61 125 -102 125c-37 0 -62 -23 -62 -53c0 -39 23 -72 147 -72z" />
    <glyph glyph-name="uni0649.i" unicode="&#x649;" horiz-adv-x="310" 
d="M0 0c-67 0 -82 48 -82 81c0 30 17 77 82 77h30c60 0 102 4 121 17v10c0 58 -40 146 -81 214l119 40c45 -82 76 -193 76 -276c0 -36 -6 -79 -20 -109c-26 -24 -75 -54 -235 -54h-10z" />
    <glyph glyph-name="uni0649.m" unicode="&#x649;" horiz-adv-x="325" 
d="M-3 0c-66 0 -84 45 -84 82c0 36 27 76 86 76c101 0 119 52 129 126l95 8c-1 -11 -2 -20 -2 -33c0 -60 21 -99 104 -101c40 0 92 -18 92 -78c0 -37 -16 -80 -92 -80c-99 0 -137 42 -157 90c-32 -55 -86 -90 -171 -90z" />
    <glyph glyph-name="uni0649.f" unicode="&#x649;" horiz-adv-x="673" arabic-form="final" 
d="M43 8c0 62 21 140 49 191l89 -10c-13 -43 -23 -90 -23 -139c0 -87 47 -175 200 -175c87 0 160 26 200 56c16 12 25 25 25 31c0 19 -33 38 -110 38h-7l41 158h166c39 0 91 -18 91 -78c0 -37 -15 -80 -91 -80h-3c12 -14 15 -33 15 -48c0 -29 -11 -65 -38 -97
c-59 -72 -177 -123 -311 -123c-196 0 -293 107 -293 276z" />
    <glyph glyph-name="uni0626.i" unicode="&#x626;" horiz-adv-x="310" arabic-form="initial" 
d="M0 0c-67 0 -82 48 -82 81c0 30 17 77 82 77h30c60 0 102 4 121 17v10c0 58 -40 146 -81 214l119 40c45 -82 76 -193 76 -276c0 -36 -6 -79 -20 -109c-26 -24 -75 -54 -235 -54h-10zM95 544c-55 0 -99 -4 -135 -19l7 68c11 6 30 11 43 12c-16 12 -34 28 -34 62
c0 65 59 92 114 92c52 0 86 -15 101 -29l-19 -65c-19 14 -54 23 -76 23c-28 0 -46 -13 -46 -30c0 -25 27 -41 77 -41h80l-29 -73h-83z" />
    <glyph glyph-name="uni0626.m" unicode="&#x626;" horiz-adv-x="325" arabic-form="medial" 
d="M-3 0c-66 0 -84 45 -84 82c0 36 27 76 86 76c101 0 119 52 129 126l95 8c-1 -11 -2 -20 -2 -33c0 -60 21 -99 104 -101c40 0 92 -18 92 -78c0 -37 -16 -80 -92 -80c-99 0 -137 42 -157 90c-32 -55 -86 -90 -171 -90zM179 453c-55 0 -99 -4 -135 -19l7 67
c11 7 30 12 43 13c-16 12 -34 28 -34 61c0 66 59 93 114 93c52 0 86 -16 101 -29l-19 -66c-19 15 -54 24 -76 24c-28 0 -46 -14 -46 -30c0 -25 27 -41 77 -41h80l-29 -73h-83z" />
    <glyph glyph-name="uni0626.f" unicode="&#x626;" horiz-adv-x="673" arabic-form="final" 
d="M43 8c0 62 21 140 49 191l89 -10c-13 -43 -23 -90 -23 -139c0 -87 47 -175 200 -175c87 0 160 26 200 56c16 12 25 25 25 31c0 19 -33 38 -110 38h-7l41 158h166c39 0 91 -18 91 -78c0 -37 -15 -80 -91 -80h-3c12 -14 15 -33 15 -48c0 -29 -11 -65 -38 -97
c-59 -72 -177 -123 -311 -123c-196 0 -293 107 -293 276zM341 451c-55 0 -99 -4 -135 -19l7 67c11 6 30 12 43 13c-16 12 -34 28 -34 61c0 65 59 93 114 93c52 0 86 -16 102 -29l-20 -66c-19 15 -53 24 -75 24c-29 0 -47 -14 -47 -30c0 -25 27 -42 78 -42h79l-29 -72h-83z
" />
    <glyph glyph-name="uni064A.i" unicode="&#x64a;" horiz-adv-x="310" arabic-form="initial" 
d="M0 0c-67 0 -82 48 -82 81c0 30 17 77 82 77h30c60 0 102 4 121 17v10c0 58 -40 146 -81 214l119 40c45 -82 76 -193 76 -276c0 -36 -6 -79 -20 -109c-26 -24 -75 -54 -235 -54h-10zM213 -134c40 0 68 -27 68 -72c0 -43 -28 -70 -68 -70s-67 25 -67 70s27 72 67 72z
M47 -134c40 0 68 -27 68 -72c0 -43 -28 -70 -68 -70s-70 25 -70 70s30 72 70 72z" />
    <glyph glyph-name="uni064A.m" unicode="&#x64a;" horiz-adv-x="325" arabic-form="medial" 
d="M-3 0c-66 0 -84 45 -84 82c0 36 27 76 86 76c101 0 119 52 129 126l95 8c-1 -11 -2 -20 -2 -33c0 -60 21 -99 104 -101c40 0 92 -18 92 -78c0 -37 -16 -80 -92 -80c-99 0 -137 42 -157 90c-32 -55 -86 -90 -171 -90zM251 -134c40 0 68 -27 68 -72c0 -43 -28 -70 -68 -70
s-68 25 -68 70s28 72 68 72zM85 -134c40 0 68 -27 68 -72c0 -43 -28 -70 -68 -70s-70 25 -70 70s30 72 70 72z" />
    <glyph glyph-name="uni064A.f" unicode="&#x64a;" horiz-adv-x="673" arabic-form="final" 
d="M43 8c0 62 21 140 49 191l89 -10c-13 -43 -23 -90 -23 -139c0 -87 47 -175 200 -175c87 0 160 26 200 56c16 12 25 25 25 31c0 19 -33 38 -110 38h-7l41 158h166c39 0 91 -18 91 -78c0 -37 -15 -80 -91 -80h-3c12 -14 15 -33 15 -48c0 -29 -11 -65 -38 -97
c-59 -72 -177 -123 -311 -123c-196 0 -293 107 -293 276zM452 -354c40 0 68 -27 68 -72c0 -43 -28 -70 -68 -70s-67 25 -67 70s27 72 67 72zM286 -354c40 0 68 -27 68 -72c0 -43 -28 -70 -68 -70s-70 25 -70 70s30 72 70 72z" />
    <glyph glyph-name="uni06D0.i" unicode="&#x6d0;" horiz-adv-x="310" arabic-form="initial" 
d="M0 0c-67 0 -82 48 -82 81c0 30 17 77 82 77h30c60 0 102 4 121 17v10c0 58 -40 146 -81 214l119 40c45 -82 76 -193 76 -276c0 -36 -6 -79 -20 -109c-26 -24 -75 -54 -235 -54h-10zM130 -299c39 0 67 -28 67 -72c0 -43 -28 -70 -67 -70c-40 0 -69 25 -69 70
c0 44 28 72 69 72zM128 -131c41 0 69 -28 69 -72s-28 -71 -69 -71c-39 0 -67 27 -67 71s28 72 67 72z" />
    <glyph glyph-name="uni06D0.m" unicode="&#x6d0;" horiz-adv-x="325" arabic-form="medial" 
d="M-3 0c-66 0 -84 45 -84 82c0 36 27 76 86 76c101 0 119 52 129 126l95 8c-1 -11 -2 -20 -2 -33c0 -60 21 -99 104 -101c40 0 92 -18 92 -78c0 -37 -16 -80 -92 -80c-99 0 -137 42 -157 90c-32 -55 -86 -90 -171 -90zM168 -299c39 0 67 -28 67 -72c0 -43 -28 -70 -67 -70
c-41 0 -69 25 -69 70c0 44 28 72 69 72zM166 -131c41 0 69 -28 69 -72s-28 -71 -69 -71c-39 0 -68 27 -68 71s29 72 68 72z" />
    <glyph glyph-name="uni06D0.f" unicode="&#x6d0;" horiz-adv-x="673" arabic-form="final" 
d="M43 8c0 62 21 140 49 191l89 -10c-13 -43 -23 -90 -23 -139c0 -87 47 -175 200 -175c87 0 160 26 200 56c16 12 25 25 25 31c0 19 -33 38 -110 38h-7l41 158h166c39 0 91 -18 91 -78c0 -37 -15 -80 -91 -80h-3c12 -14 15 -33 15 -48c0 -29 -11 -65 -38 -97
c-59 -72 -177 -123 -311 -123c-196 0 -293 107 -293 276zM369 -519c39 0 67 -28 67 -72c0 -43 -28 -70 -67 -70c-40 0 -69 25 -69 70c0 44 28 72 69 72zM367 -351c41 0 69 -28 69 -72s-28 -71 -69 -71c-39 0 -68 27 -68 71s29 72 68 72z" />
    <glyph glyph-name="uni0675.f" unicode="&#x675;" horiz-adv-x="409" 
d="M73 239l-21 486l123 9l18 -456c5 -91 34 -120 119 -120h97c39 0 92 -18 92 -78c0 -37 -15 -80 -91 -80h-75c-164 0 -249 37 -262 239zM338 750c-55 0 -99 -4 -135 -19l7 67c11 6 30 12 43 13c-16 12 -34 28 -34 61c0 65 59 93 114 93c52 0 86 -16 101 -29l-19 -66
c-19 14 -54 24 -76 24c-28 0 -46 -14 -46 -30c0 -25 27 -42 77 -42h80l-29 -72h-83z" />
    <glyph glyph-name="uni0676.f" unicode="&#x676;" horiz-adv-x="662" 
d="M574 506h-83c-55 0 -99 -4 -135 -19l7 67c11 6 30 12 43 13c-16 12 -34 28 -34 61c0 65 59 93 114 93c52 0 87 -16 102 -29l-20 -66c-19 15 -53 24 -75 24c-28 0 -47 -14 -47 -30c0 -25 27 -42 78 -42h79zM509 158h153c39 0 91 -18 91 -78c0 -36 -15 -80 -91 -80h-164
c-39 -154 -164 -263 -299 -263c-52 0 -133 11 -185 66l23 101c32 -17 70 -31 142 -31c92 0 166 45 200 127c-192 0 -247 104 -247 203c-2 127 91 202 186 202c64 0 173 -46 191 -247zM381 158h12c-12 86 -54 125 -97 125c-37 0 -59 -23 -59 -53c0 -39 20 -72 144 -72z" />
    <glyph glyph-name="uni0677.f" unicode="&#x677;" horiz-adv-x="662" 
d="M79 476l5 55c19 -6 48 -7 58 -7c34 0 64 10 77 24c-57 3 -98 34 -98 90c0 52 42 96 101 96c43 0 95 -37 95 -111c1 -110 -85 -165 -163 -165c-36 0 -64 9 -75 18zM574 506h-83c-55 0 -99 -4 -135 -19l7 67c11 6 30 12 43 13c-16 12 -34 28 -34 61c0 65 59 93 114 93
c52 0 87 -16 102 -29l-20 -66c-19 15 -53 24 -75 24c-28 0 -47 -14 -47 -30c0 -25 27 -42 78 -42h79zM178 644c0 -17 16 -43 77 -41c5 31 -11 67 -46 67c-17 0 -31 -11 -31 -26zM509 158h153c39 0 91 -18 91 -78c0 -36 -15 -80 -91 -80h-164c-39 -154 -164 -263 -299 -263
c-52 0 -133 11 -185 66l23 101c32 -17 70 -31 142 -31c92 0 166 45 200 127c-192 0 -247 104 -247 203c-2 127 91 202 186 202c64 0 173 -46 191 -247zM381 158h12c-12 86 -54 125 -97 125c-37 0 -59 -23 -59 -53c0 -39 20 -72 144 -72z" />
    <glyph glyph-name="uni0678.i" unicode="&#x678;" horiz-adv-x="456" 
d="M0 0c-67 0 -82 48 -82 81c0 30 17 77 82 77h30c60 0 102 4 121 17v10c0 58 -40 146 -81 214l119 40c45 -82 76 -193 76 -276c0 -36 -6 -79 -20 -109c-26 -24 -75 -54 -235 -54h-10zM347 544c-55 0 -99 -4 -135 -19l7 68c11 6 30 11 43 12c-16 12 -34 28 -34 62
c0 65 59 92 114 92c52 0 86 -15 101 -29l-19 -65c-19 14 -54 23 -75 23c-29 0 -47 -13 -47 -30c0 -25 27 -41 77 -41h80l-29 -73h-83z" />
    <glyph glyph-name="uni0678.m" unicode="&#x678;" horiz-adv-x="497" 
d="M-3 0c-66 0 -84 45 -84 82c0 36 27 76 86 76c101 0 119 62 129 137l96 7c-2 -14 -3 -30 -3 -43c1 -60 21 -98 106 -101h170c40 0 92 -18 92 -78c0 -37 -16 -80 -92 -80h-170c-102 0 -140 43 -159 91c-33 -54 -87 -91 -171 -91zM344 453c-55 0 -99 -4 -135 -19l7 67
c11 7 30 12 43 13c-16 12 -34 28 -34 61c0 66 59 93 114 93c52 0 86 -16 101 -29l-19 -66c-19 15 -54 24 -76 24c-28 0 -46 -14 -46 -30c0 -25 27 -41 77 -41h80l-29 -73h-83z" />
    <glyph glyph-name="uni0678.f" unicode="&#x678;" horiz-adv-x="965" 
d="M43 8c0 62 21 140 49 191l89 -10c-13 -43 -23 -90 -23 -139c0 -87 47 -175 200 -175c87 0 162 23 200 56c14 12 18 25 18 31c0 20 -26 38 -103 38h-7l41 158h458c39 0 91 -18 91 -78c0 -37 -15 -80 -91 -80h-297c14 -14 17 -33 17 -48c0 -29 -11 -65 -38 -97
c-59 -72 -177 -123 -311 -123c-196 0 -293 107 -293 276zM724 453c-55 0 -98 -4 -134 -19l6 67c11 7 31 12 43 13c-16 12 -33 28 -33 61c0 66 58 93 114 93c51 0 86 -16 101 -29l-20 -66c-19 15 -53 24 -75 24c-28 0 -47 -14 -47 -30c0 -25 27 -41 78 -41h80l-30 -73h-83z
" />
    <glyph glyph-name="uni06D2.f" unicode="&#x6d2;" horiz-adv-x="304" arabic-form="final" 
d="M304 0h-36c-101 0 -135 -31 -135 -65c0 -30 30 -52 143 -52c213 0 421 14 534 24l-28 -136c-110 -16 -265 -30 -495 -30c-180 0 -259 61 -259 176c0 59 22 107 41 134c45 61 129 107 221 107h14c39 0 91 -18 91 -78c0 -37 -15 -80 -91 -80z" />
    <glyph glyph-name="uni06D3.f" unicode="&#x6d3;" horiz-adv-x="304" arabic-form="final" 
d="M285 284h-83c-55 0 -99 -4 -135 -19l7 67c11 6 30 12 43 13c-16 12 -34 28 -34 61c0 65 59 93 114 93c52 0 86 -16 101 -29l-19 -66c-19 14 -54 24 -75 24c-29 0 -47 -14 -47 -30c0 -25 27 -42 77 -42h80zM304 0h-36c-101 0 -135 -31 -135 -65c0 -30 30 -52 143 -52
c213 0 421 14 534 24l-28 -136c-110 -16 -265 -30 -495 -30c-180 0 -259 61 -259 176c0 59 22 107 41 134c45 61 129 107 221 107h14c39 0 91 -18 91 -78c0 -37 -15 -80 -91 -80z" />
    <glyph glyph-name="uni0643.iz" unicode="&#x6aa;" horiz-adv-x="966" 
d="M0 0c-67 -1 -85 50 -85 82c0 28 19 76 85 76h56c317 0 523 20 751 31c-4 47 -42 77 -132 77c-55 0 -141 -4 -217 -10c-74 -4 -155 -10 -224 -10c-86 0 -183 9 -183 118c0 51 36 115 116 179c86 69 205 120 269 139l-31 -151c-78 -22 -159 -59 -202 -93
c-19 -17 -31 -29 -31 -40c0 -13 26 -19 58 -19c103 0 208 7 282 11c65 4 117 5 162 5c155 -1 237 -59 240 -217c1 -45 -13 -100 -22 -136c-264 -8 -541 -42 -823 -42h-69z" />
    <glyph glyph-name="uni0643.mz" unicode="&#x6aa;" horiz-adv-x="976" 
d="M436 682l-31 -151c-78 -22 -159 -59 -202 -93c-19 -17 -31 -29 -31 -40c0 -13 26 -19 58 -19c103 0 208 7 282 11c65 4 117 5 162 5c155 -1 237 -59 240 -217v-5c19 -13 46 -15 62 -15c39 0 91 -18 91 -78c0 -37 -15 -80 -91 -80c-59 0 -98 15 -126 41
c-251 -10 -514 -41 -781 -41h-69c-67 -1 -85 50 -85 82c0 28 19 76 85 76h56c317 0 523 20 751 31c-4 47 -42 77 -132 77c-55 0 -141 -4 -217 -10c-74 -4 -155 -10 -224 -10c-86 0 -183 9 -183 118c0 51 36 115 116 179c86 69 205 120 269 139z" />
    <glyph glyph-name="uni0643.fz" unicode="&#x6aa;" horiz-adv-x="1090" 
d="M550 682l-32 -151c-78 -21 -159 -58 -201 -93c-20 -17 -32 -29 -32 -40c0 -13 27 -19 60 -19c104 0 206 8 280 12c65 4 118 4 162 4c156 -1 238 -59 240 -217v-5c19 -13 47 -15 63 -15c39 0 91 -18 91 -78c0 -37 -15 -80 -91 -80c-58 0 -98 15 -125 40
c-161 -10 -441 -45 -681 -45c-59 0 -163 7 -204 15l-51 168c57 -16 172 -25 242 -25c280 0 502 25 649 36c-4 47 -43 77 -136 77c-53 0 -137 -4 -213 -10c-74 -4 -154 -10 -224 -10c-86 0 -183 9 -183 118c0 51 36 115 116 179c87 69 205 120 270 139z" />
    <glyph glyph-name="uni066E.f" unicode="&#x66e;" horiz-adv-x="909" 
d="M43 260c0 61 13 111 25 141l87 -13c-4 -20 -7 -47 -7 -68c0 -126 81 -185 250 -185c132 0 241 28 306 62c-2 10 -2 15 -2 27c0 27 4 47 11 70l95 8c-3 -16 -3 -33 -3 -44c0 -77 45 -99 105 -100c39 0 91 -18 91 -78c0 -37 -16 -80 -92 -80c-87 0 -138 30 -167 76
c-100 -67 -222 -97 -365 -97c-194 0 -330 83 -334 281z" />
    <glyph glyph-name="uni06A1.i" unicode="&#x6a1;" horiz-adv-x="462" 
d="M59 0h-59c-52 0 -85 38 -85 81c0 45 34 77 84 77l56 -1c51 0 192 6 240 16c1 5 2 11 3 17c-194 -10 -250 100 -250 173c0 38 11 94 58 141c40 44 96 60 128 60c84 0 181 -76 181 -272c0 -43 -7 -153 -36 -219c-31 -23 -112 -73 -320 -73zM153 379c0 -42 61 -63 152 -64
c3 43 -28 121 -85 121c-44 0 -67 -29 -67 -57z" />
    <glyph glyph-name="uni06A1.m" unicode="&#x6a1;" horiz-adv-x="499" 
d="M481 158h18c40 0 92 -18 92 -78c0 -37 -16 -80 -92 -80h-29c-75 0 -151 18 -217 49c-64 -31 -140 -49 -220 -49h-33c-60 0 -85 36 -85 80c0 30 19 78 85 78h16c26 0 59 0 94 2c-25 34 -39 72 -39 112c0 132 116 212 193 212c73 0 165 -68 165 -204
c0 -42 -14 -82 -38 -118c30 -3 61 -4 90 -4zM175 278c0 -44 34 -72 84 -91c40 17 67 44 67 85c0 36 -32 83 -74 83c-50 0 -77 -39 -77 -77z" />
    <glyph glyph-name="uni06A1.f" unicode="&#x6a1;" horiz-adv-x="938" 
d="M920 158h18c40 0 92 -18 92 -78c0 -37 -16 -80 -92 -80h-10c-84 0 -163 17 -229 46c-78 -38 -184 -62 -323 -62c-257 0 -333 137 -333 270c0 63 14 125 31 166l87 -13c-8 -31 -11 -70 -11 -96c0 -123 91 -178 272 -178c43 0 92 2 140 9c-34 40 -53 84 -53 131
c0 136 122 211 189 211c73 0 170 -66 170 -200c0 -42 -11 -84 -36 -123c30 -2 60 -3 88 -3zM613 280c0 -48 37 -78 90 -96c37 21 61 49 61 88c0 40 -29 83 -77 83c-47 0 -74 -41 -74 -75z" />
    <glyph glyph-name="uni066F.f" unicode="&#x66f;" horiz-adv-x="738" 
d="M669 158h69c40 0 92 -18 92 -78c0 -37 -16 -80 -92 -80h-75c-6 -41 -14 -70 -17 -75c-58 -99 -171 -168 -317 -168c-151 0 -286 91 -286 298c0 63 16 130 34 168l94 -9c-8 -32 -16 -78 -16 -122c0 -115 63 -189 193 -189c94 0 170 38 196 79c1 2 3 9 5 18h-7
c-192 0 -250 104 -251 202c-1 124 92 203 186 203c65 0 174 -46 192 -247zM545 158h13c-14 84 -61 125 -103 125c-36 0 -61 -24 -61 -54c0 -38 27 -71 151 -71z" />
    <glyph glyph-name=".notdef" horiz-adv-x="500" 
d="M0 0v700h500v-700h-500zM250 395l170 255h-340zM280 350l170 -255v510zM80 50h340l-170 255zM50 95l170 255l-170 255v-510z" />
    <glyph glyph-name="space" unicode=" " horiz-adv-x="242" 
 />
    <glyph glyph-name="uni0621" unicode="&#x621;" horiz-adv-x="474" 
d="M60 18l12 110c15 9 38 15 55 18c-22 16 -49 40 -49 91c0 83 83 135 176 135c61 0 108 -18 125 -37l-14 -100c-32 21 -69 26 -103 26c-48 0 -73 -17 -73 -38c0 -36 54 -55 135 -55h88l-27 -112h-88c-108 0 -166 -7 -237 -38z" />
    <glyph glyph-name="uni0627" unicode="&#x627;" horiz-adv-x="282" 
d="M89 0l-30 725l123 9l30 -734h-123z" />
    <glyph glyph-name="uni0622" unicode="&#x622;" horiz-adv-x="282" 
d="M89 0l-30 725l123 9l30 -734h-123zM160 811c-46 0 -73 20 -109 20c-14 0 -33 -3 -37 -45l-70 24c1 65 33 112 95 112c50 0 85 -25 130 -25c25 0 49 13 75 36l13 -69c-20 -35 -57 -53 -97 -53z" />
    <glyph glyph-name="uni0623" unicode="&#x623;" horiz-adv-x="282" 
d="M89 0l-30 725l123 9l30 -734h-123zM125 810c-55 0 -98 -4 -134 -19l7 67c11 6 30 12 43 13c-16 12 -34 28 -34 61c0 65 58 93 114 93c51 0 86 -16 101 -29l-19 -66c-19 14 -54 24 -76 24c-28 0 -47 -14 -47 -30c0 -25 28 -42 78 -42h80l-29 -72h-84z" />
    <glyph glyph-name="uni0625" unicode="&#x625;" horiz-adv-x="282" 
d="M89 0l-30 725l123 9l30 -734h-123zM159 -59c52 0 86 -15 101 -29l-19 -66c-19 15 -53 24 -75 24c-29 0 -47 -14 -47 -30c0 -25 27 -41 77 -41h80l-29 -73h-83c-55 0 -99 -4 -135 -19l7 67c11 7 30 12 43 13c-16 12 -34 28 -34 61c0 66 59 93 114 93z" />
    <glyph glyph-name="uni0671" unicode="&#x671;" horiz-adv-x="282" 
d="M89 0l-30 725l123 9l30 -734h-123zM129 806c-65 0 -106 36 -135 36c-13 0 -32 -11 -50 -26v79c15 20 35 28 50 28c12 0 19 -3 22 -5c42 72 86 103 134 103c56 0 95 -48 95 -105c0 -65 -54 -110 -116 -110zM131 884c24 0 47 13 48 31c0 16 -13 30 -34 30
c-22 0 -47 -16 -70 -49c8 -5 32 -12 56 -12z" />
    <glyph glyph-name="uni0628" unicode="&#x628;" horiz-adv-x="882" 
d="M43 260c0 57 12 109 26 141l86 -14c-3 -18 -7 -46 -7 -67c0 -133 86 -188 265 -188c153 0 253 17 308 37c1 5 1 7 1 11c-5 52 -26 133 -75 221l123 24c30 -55 67 -153 67 -260c0 -49 -7 -69 -15 -104c-115 -48 -258 -78 -423 -78c-275 0 -356 122 -356 277zM459 -134
c44 0 72 -30 72 -76s-28 -74 -72 -74c-41 0 -71 28 -71 74s30 76 71 76z" />
    <glyph glyph-name="uni0628.j" horiz-adv-x="1670" 
d="M88 39l-72 156l2 2c96 -43 471 -88 754 -88c376 0 663 31 732 57v16c-3 52 -21 141 -69 228l123 24c31 -55 67 -152 67 -260c0 -49 -5 -79 -12 -106c-112 -59 -441 -109 -840 -109c-359 0 -630 55 -685 80zM1061 -154c44 0 72 -30 72 -76s-28 -74 -72 -74
c-41 0 -71 28 -71 74s30 76 71 76z" />
    <glyph glyph-name="uni0628.fj" horiz-adv-x="1669" 
d="M88 39l-72 155l3 3c96 -43 444 -88 752 -88c368 0 615 46 693 87c-2 10 -2 17 -2 29c0 28 4 50 11 69l95 8c-3 -16 -3 -33 -3 -44c-1 -72 44 -100 104 -100c40 0 92 -18 92 -78c0 -37 -16 -80 -92 -80c-86 0 -141 33 -171 79c-116 -69 -393 -119 -727 -120
c-356 0 -628 55 -683 80zM1061 -154c44 0 72 -30 72 -76s-28 -74 -72 -74c-41 0 -71 28 -71 74s30 76 71 76z" />
    <glyph glyph-name="uni062A" unicode="&#x62a;" horiz-adv-x="882" 
d="M43 260c0 57 12 109 26 141l86 -14c-3 -18 -7 -46 -7 -67c0 -133 86 -188 265 -188c153 0 253 17 308 37c1 5 1 7 1 11c-5 52 -26 133 -75 221l123 24c30 -55 67 -153 67 -260c0 -49 -7 -69 -15 -104c-115 -48 -258 -78 -423 -78c-275 0 -356 122 -356 277zM514 442
c-40 0 -67 25 -67 70s27 72 67 72s68 -27 68 -72c0 -43 -28 -70 -68 -70zM348 442c-40 0 -70 25 -70 70s30 72 70 72s68 -27 68 -72c0 -43 -28 -70 -68 -70z" />
    <glyph glyph-name="uni062A.j" horiz-adv-x="1670" 
d="M88 39l-72 156l2 2c96 -43 471 -88 754 -88c376 0 663 31 732 57v16c-3 52 -21 141 -69 228l123 24c31 -55 67 -152 67 -260c0 -49 -5 -79 -12 -106c-112 -59 -441 -109 -840 -109c-359 0 -630 55 -685 80zM962 442c-39 0 -67 25 -67 70s28 72 67 72c41 0 69 -27 69 -72
c0 -43 -28 -70 -69 -70zM796 442c-39 0 -69 25 -69 70s30 72 69 72c41 0 69 -27 69 -72c0 -43 -28 -70 -69 -70z" />
    <glyph glyph-name="uni062A.fj" horiz-adv-x="1669" 
d="M88 39l-72 155l3 3c96 -43 444 -88 752 -88c368 0 615 46 693 87c-2 10 -2 17 -2 29c0 28 4 50 11 69l95 8c-3 -16 -3 -33 -3 -44c-1 -72 44 -100 104 -100c40 0 92 -18 92 -78c0 -37 -16 -80 -92 -80c-86 0 -141 33 -171 79c-116 -69 -393 -119 -727 -120
c-356 0 -628 55 -683 80zM962 442c-39 0 -67 25 -67 70s28 72 67 72c41 0 69 -27 69 -72c0 -43 -28 -70 -69 -70zM796 442c-39 0 -69 25 -69 70s30 72 69 72c41 0 69 -27 69 -72c0 -43 -28 -70 -69 -70z" />
    <glyph glyph-name="uni062B" unicode="&#x62b;" horiz-adv-x="882" 
d="M43 260c0 57 12 109 26 141l86 -14c-3 -18 -7 -46 -7 -67c0 -133 86 -188 265 -188c153 0 253 17 308 37c1 5 1 7 1 11c-5 52 -26 133 -75 221l123 24c30 -55 67 -153 67 -260c0 -49 -7 -69 -15 -104c-115 -48 -258 -78 -423 -78c-275 0 -356 122 -356 277zM514 442
c-40 0 -68 25 -68 70c0 44 28 72 68 72s68 -28 68 -72c0 -43 -28 -70 -68 -70zM348 442c-40 0 -69 25 -69 70c0 44 30 72 69 72c40 0 68 -28 68 -72c0 -43 -28 -70 -68 -70zM431 591c-39 -1 -67 25 -67 71c0 44 28 72 67 72c41 0 68 -28 68 -72s-27 -71 -68 -71z" />
    <glyph glyph-name="uni062B.j" horiz-adv-x="1670" 
d="M88 39l-72 156l2 2c96 -43 471 -88 754 -88c376 0 663 31 732 57v16c-3 52 -21 141 -69 228l123 24c31 -55 67 -152 67 -260c0 -49 -5 -79 -12 -106c-112 -59 -441 -109 -840 -109c-359 0 -630 55 -685 80zM962 442c-40 0 -67 25 -67 70c0 44 27 72 67 72
c41 0 68 -28 68 -72c0 -43 -27 -70 -68 -70zM796 442c-39 0 -68 25 -68 70c0 44 29 72 68 72c41 0 69 -28 69 -72c0 -43 -28 -70 -69 -70zM879 591c-39 -1 -67 25 -67 71c0 44 28 72 67 72c41 0 69 -28 69 -72s-28 -71 -69 -71z" />
    <glyph glyph-name="uni062B.fj" horiz-adv-x="1669" 
d="M88 39l-72 155l3 3c96 -43 444 -88 752 -88c368 0 615 46 693 87c-2 10 -2 17 -2 29c0 28 4 50 11 69l95 8c-3 -16 -3 -33 -3 -44c-1 -72 44 -100 104 -100c40 0 92 -18 92 -78c0 -37 -16 -80 -92 -80c-86 0 -141 33 -171 79c-116 -69 -393 -119 -727 -120
c-356 0 -628 55 -683 80zM962 442c-40 0 -67 25 -67 70c0 44 27 72 67 72c41 0 68 -28 68 -72c0 -43 -27 -70 -68 -70zM796 442c-39 0 -68 25 -68 70c0 44 29 72 68 72c41 0 69 -28 69 -72c0 -43 -28 -70 -69 -70zM879 591c-39 -1 -67 25 -67 71c0 44 28 72 67 72
c41 0 69 -28 69 -72s-28 -71 -69 -71z" />
    <glyph glyph-name="uni0679" unicode="&#x679;" horiz-adv-x="882" 
d="M43 260c0 57 12 109 26 141l86 -14c-3 -18 -7 -46 -7 -67c0 -133 86 -188 265 -188c153 0 253 17 308 37c1 5 1 7 1 11c-5 52 -26 133 -75 221l123 24c30 -55 67 -153 67 -260c0 -49 -7 -69 -15 -104c-115 -48 -258 -78 -423 -78c-275 0 -356 122 -356 277zM404 433h-84
l-37 74l59 -3c10 20 11 46 10 82l-12 158l62 6l7 -101c1 -22 2 -43 -1 -61c32 40 63 56 101 56c50 0 76 -38 76 -81c0 -92 -85 -130 -181 -130zM399 504c96 0 124 13 124 43c0 14 -13 25 -33 25c-27 0 -57 -20 -91 -68z" />
    <glyph glyph-name="uni0679.j" horiz-adv-x="1670" 
d="M88 39l-72 156l2 2c96 -43 471 -88 754 -88c376 0 663 31 732 57v16c-3 52 -21 141 -69 228l123 24c31 -55 67 -152 67 -260c0 -49 -5 -79 -12 -106c-112 -59 -441 -109 -840 -109c-359 0 -630 55 -685 80zM853 433h-85l-37 74l59 -3c10 20 11 46 10 82l-12 158l63 6
l6 -101c2 -22 3 -43 0 -61c31 40 62 56 100 56c50 0 77 -38 77 -81c0 -92 -86 -130 -181 -130zM847 504c96 0 124 13 124 43c0 14 -13 25 -32 25c-28 0 -58 -20 -92 -68z" />
    <glyph glyph-name="uni0679.fj" horiz-adv-x="1669" 
d="M88 39l-72 155l3 3c96 -43 444 -88 752 -88c368 0 615 46 693 87c-2 10 -2 17 -2 29c0 28 4 50 11 69l95 8c-3 -16 -3 -33 -3 -44c-1 -72 44 -100 104 -100c40 0 92 -18 92 -78c0 -37 -16 -80 -92 -80c-86 0 -141 33 -171 79c-116 -69 -393 -119 -727 -120
c-356 0 -628 55 -683 80zM853 433h-85l-37 74l59 -3c10 20 11 46 10 82l-12 158l63 6l6 -101c2 -22 3 -43 0 -61c31 40 62 56 100 56c50 0 77 -38 77 -81c0 -92 -86 -130 -181 -130zM847 504c96 0 124 13 124 43c0 14 -13 25 -32 25c-28 0 -58 -20 -92 -68z" />
    <glyph glyph-name="uni067E" unicode="&#x67e;" horiz-adv-x="882" 
d="M43 260c0 57 12 109 26 141l86 -14c-3 -18 -7 -46 -7 -67c0 -133 86 -188 265 -188c153 0 253 17 308 37c1 5 1 7 1 11c-5 52 -26 133 -75 221l123 24c30 -55 67 -153 67 -260c0 -49 -7 -69 -15 -104c-115 -48 -258 -78 -423 -78c-275 0 -356 122 -356 277zM460 -283
c38 0 68 -27 68 -71c0 -45 -30 -72 -68 -72c-41 0 -70 27 -70 72c0 44 29 71 70 71zM376 -134c39 0 69 -27 69 -72c0 -42 -29 -70 -69 -70c-39 0 -68 28 -68 70c0 45 29 72 68 72zM543 -134c40 0 68 -27 68 -72c0 -43 -28 -70 -68 -70s-68 27 -68 70c0 45 28 72 68 72z" />
    <glyph glyph-name="uni067E.j" horiz-adv-x="1670" 
d="M88 39l-72 156l2 2c96 -43 471 -88 754 -88c376 0 663 31 732 57v16c-3 52 -21 141 -69 228l123 24c31 -55 67 -152 67 -260c0 -49 -5 -79 -12 -106c-112 -59 -441 -109 -840 -109c-359 0 -630 55 -685 80zM1062 -303c38 0 68 -27 68 -71c0 -45 -30 -72 -68 -72
c-41 0 -70 27 -70 72c0 44 29 71 70 71zM978 -154c39 0 69 -27 69 -72c0 -42 -29 -70 -69 -70c-39 0 -68 28 -68 70c0 45 29 72 68 72zM1145 -154c40 0 68 -27 68 -72c0 -43 -28 -70 -68 -70s-68 27 -68 70c0 45 28 72 68 72z" />
    <glyph glyph-name="uni067E.fj" horiz-adv-x="1669" 
d="M88 39l-72 155l3 3c96 -43 444 -88 752 -88c368 0 615 46 693 87c-2 10 -2 17 -2 29c0 28 4 50 11 69l95 8c-3 -16 -3 -33 -3 -44c-1 -72 44 -100 104 -100c40 0 92 -18 92 -78c0 -37 -16 -80 -92 -80c-86 0 -141 33 -171 79c-116 -69 -393 -119 -727 -120
c-356 0 -628 55 -683 80zM1062 -303c38 0 68 -27 68 -71c0 -45 -30 -72 -68 -72c-41 0 -70 27 -70 72c0 44 29 71 70 71zM978 -154c39 0 69 -27 69 -72c0 -42 -29 -70 -69 -70c-39 0 -68 28 -68 70c0 45 29 72 68 72zM1145 -154c40 0 68 -27 68 -72c0 -43 -28 -70 -68 -70
s-68 27 -68 70c0 45 28 72 68 72z" />
    <glyph glyph-name="uni062D" unicode="&#x62d;" horiz-adv-x="685" 
d="M46 -51c0 186 187 286 330 313c-40 12 -95 42 -187 42c-32 0 -95 -6 -141 -26l27 137c23 11 67 23 129 23c89 0 167 -27 260 -61c65 -26 101 -37 129 -38l60 -1l-34 -148c-20 2 -69 4 -89 4c-25 0 -61 -4 -90 -9c-125 -24 -248 -98 -248 -219c0 -129 141 -196 331 -196
c28 0 87 5 124 11l-53 -129c-32 -10 -90 -17 -133 -17c-232 0 -415 109 -415 314z" />
    <glyph glyph-name="uni062C" unicode="&#x62c;" horiz-adv-x="685" 
d="M46 -51c0 186 187 286 330 313c-40 12 -95 42 -187 42c-32 0 -95 -6 -141 -26l27 137c23 11 67 23 129 23c89 0 167 -27 260 -61c65 -26 101 -37 129 -38l60 -1l-34 -148c-20 2 -69 4 -89 4c-25 0 -61 -4 -90 -9c-125 -24 -248 -98 -248 -219c0 -129 141 -196 331 -196
c28 0 87 5 124 11l-53 -129c-32 -10 -90 -17 -133 -17c-232 0 -415 109 -415 314zM515 -15c0 -45 -28 -74 -72 -74c-41 0 -71 29 -71 74c0 46 30 76 71 76c44 0 72 -30 72 -76z" />
    <glyph glyph-name="uni062E" unicode="&#x62e;" horiz-adv-x="685" 
d="M46 -51c0 186 187 286 330 313c-40 12 -95 42 -187 42c-32 0 -95 -6 -141 -26l27 137c23 11 67 23 129 23c89 0 167 -27 260 -61c65 -26 101 -37 129 -38l60 -1l-34 -148c-20 2 -69 4 -89 4c-25 0 -61 -4 -90 -9c-125 -24 -248 -98 -248 -219c0 -129 141 -196 331 -196
c28 0 87 5 124 11l-53 -129c-32 -10 -90 -17 -133 -17c-232 0 -415 109 -415 314zM371 537c-41 0 -72 28 -72 74s31 76 72 76c44 0 72 -30 72 -76s-28 -74 -72 -74z" />
    <glyph glyph-name="uni0686" unicode="&#x686;" horiz-adv-x="685" 
d="M46 -51c0 186 187 286 330 313c-40 12 -95 42 -187 42c-32 0 -95 -6 -141 -26l27 137c23 11 67 23 129 23c89 0 167 -27 260 -61c65 -26 101 -37 129 -38l60 -1l-34 -148c-20 2 -69 4 -89 4c-25 0 -61 -4 -90 -9c-125 -24 -248 -98 -248 -219c0 -129 141 -196 331 -196
c28 0 87 5 124 11l-53 -129c-32 -10 -90 -17 -133 -17c-232 0 -415 109 -415 314zM445 -42c31 0 55 -22 55 -59c0 -36 -24 -59 -56 -59c-34 0 -57 23 -57 59c0 37 23 59 58 59zM430 30c0 -35 -25 -60 -58 -60s-55 25 -55 60c0 36 22 58 55 58c31 0 58 -22 58 -58zM459 30
c0 36 23 58 56 58s55 -22 55 -58s-22 -60 -55 -60s-56 24 -56 60z" />
    <glyph glyph-name="uni062F" unicode="&#x62f;" horiz-adv-x="525" 
d="M60 30l-19 152c41 -17 131 -24 191 -24c49 0 97 8 127 21c-1 68 -76 166 -217 240l110 87c113 -57 222 -189 222 -336c0 -27 -3 -68 -10 -89c-50 -52 -139 -81 -257 -81c-65 0 -114 11 -147 30z" />
    <glyph glyph-name="uni0630" unicode="&#x630;" horiz-adv-x="525" 
d="M60 30l-19 152c41 -17 131 -24 191 -24c49 0 97 8 127 21c-1 68 -76 166 -217 240l110 87c113 -57 222 -189 222 -336c0 -27 -3 -68 -10 -89c-50 -52 -139 -81 -257 -81c-65 0 -114 11 -147 30zM235 616c-41 0 -71 28 -71 74s30 75 72 75c43 0 72 -29 72 -75
s-29 -74 -73 -74z" />
    <glyph glyph-name="uni0688" unicode="&#x688;" horiz-adv-x="525" 
d="M60 30l-19 152c41 -17 131 -24 191 -24c49 0 97 8 127 21c-1 68 -76 166 -217 240l110 87c113 -57 222 -189 222 -336c0 -27 -3 -68 -10 -89c-50 -52 -139 -81 -257 -81c-65 0 -114 11 -147 30zM208 607h-85l-37 74l59 -3c10 20 11 46 10 82l-12 159l63 5l6 -101
c2 -22 2 -43 -1 -60c32 39 63 55 101 55c50 0 77 -38 77 -81c0 -92 -86 -130 -181 -130zM202 678c96 0 124 13 124 43c0 14 -13 25 -32 25c-28 0 -58 -20 -92 -68z" />
    <glyph glyph-name="uni0631" unicode="&#x631;" horiz-adv-x="469" 
d="M30 -61c43 -22 78 -28 119 -28c48 0 113 33 149 103c11 22 16 43 16 55c0 41 -26 138 -106 292l118 53c66 -117 98 -257 98 -333c0 -38 -10 -88 -23 -120c-52 -128 -156 -188 -236 -188c-65 0 -117 24 -149 63z" />
    <glyph glyph-name="uni0632" unicode="&#x632;" horiz-adv-x="469" 
d="M30 -61c43 -22 78 -28 119 -28c48 0 113 33 149 103c11 22 16 43 16 55c0 41 -26 138 -106 292l118 53c66 -117 98 -257 98 -333c0 -38 -10 -88 -23 -120c-52 -128 -156 -188 -236 -188c-65 0 -117 24 -149 63zM236 514c-41 0 -71 28 -71 74c0 45 30 75 72 75
c43 0 72 -30 72 -75c0 -46 -29 -74 -73 -74z" />
    <glyph glyph-name="uni0691" unicode="&#x691;" horiz-adv-x="469" 
d="M30 -61c43 -22 78 -28 119 -28c48 0 113 33 149 103c11 22 16 43 16 55c0 41 -26 138 -106 292l118 53c66 -117 98 -257 98 -333c0 -38 -10 -88 -23 -120c-52 -128 -156 -188 -236 -188c-65 0 -117 24 -149 63zM209 505h-85l-37 74l59 -3c10 20 11 46 10 82l-12 159l63 5
l6 -101c2 -22 2 -43 -1 -61c32 40 63 56 101 56c50 0 77 -38 77 -81c0 -92 -86 -130 -181 -130zM203 576c96 0 124 13 124 43c0 14 -13 25 -32 25c-28 0 -58 -20 -92 -68z" />
    <glyph glyph-name="uni0698" unicode="&#x698;" horiz-adv-x="469" 
d="M30 -61c43 -22 78 -28 119 -28c48 0 113 33 149 103c11 22 16 43 16 55c0 41 -26 138 -106 292l118 53c66 -117 98 -257 98 -333c0 -38 -10 -88 -23 -120c-52 -128 -156 -188 -236 -188c-65 0 -117 24 -149 63zM318 514c-40 0 -68 25 -68 70c0 44 28 72 68 72
s68 -28 68 -72c0 -43 -28 -70 -68 -70zM152 514c-39 0 -69 25 -69 70c0 44 30 72 69 72c41 0 69 -28 69 -72c0 -43 -28 -70 -69 -70zM235 663c-39 -1 -67 26 -67 71c0 44 28 72 67 72c41 0 69 -28 69 -72s-28 -71 -69 -71z" />
    <glyph glyph-name="uni0633" unicode="&#x633;" horiz-adv-x="1086" 
d="M47 40c0 59 12 116 38 170l87 -14c-8 -37 -13 -60 -13 -112c0 -82 58 -158 161 -158c71 0 139 33 163 87c4 8 10 20 10 34c-3 64 -39 157 -76 233l116 45c19 -37 39 -90 55 -153c4 -15 16 -22 39 -22c44 0 77 29 90 112l102 4c-3 -15 -5 -25 -6 -40c-4 -59 23 -76 63 -76
c28 0 60 18 60 52s-23 91 -38 127l120 28c15 -33 24 -82 24 -137c0 -144 -81 -220 -181 -220c-69 0 -100 36 -118 71c-26 -47 -73 -71 -126 -71c-5 0 -16 1 -25 4c-3 -9 -2 -20 -9 -42c-41 -108 -139 -186 -289 -186c-153 0 -247 113 -247 264z" />
    <glyph glyph-name="uni0633.j" horiz-adv-x="2064" 
d="M20 49c136 -77 413 -167 797 -167c405 0 610 91 648 140c7 8 11 16 11 22c-3 64 -44 160 -81 236l116 45c18 -37 38 -90 55 -153c4 -15 15 -22 38 -22c45 0 78 29 90 112l102 4c-3 -15 -5 -25 -6 -40c-4 -59 23 -76 63 -76c28 0 61 18 61 52s-24 91 -39 127l121 28
c14 -33 23 -82 23 -137c0 -144 -80 -220 -180 -220c-69 0 -100 36 -119 71c-26 -47 -73 -71 -126 -71c-6 0 -16 1 -25 5c-1 -10 -3 -19 -12 -39c-52 -110 -365 -227 -759 -227c-325 0 -603 80 -711 149l-69 158z" />
    <glyph glyph-name="uni0633.fj" horiz-adv-x="2119" 
d="M20 49c136 -77 413 -167 797 -167c405 0 610 91 648 140c7 8 11 16 11 22c-3 64 -44 160 -81 236l116 45c18 -37 38 -90 55 -152c4 -16 16 -23 39 -23c45 0 72 15 91 108l101 3c-3 -13 -6 -36 -6 -49c0 -43 12 -63 45 -63c54 0 74 69 85 146l99 8c-2 -11 -5 -29 -5 -40
c0 -66 22 -105 104 -105c39 0 91 -18 91 -78c0 -37 -15 -80 -91 -80c-62 0 -118 14 -158 88c-28 -55 -80 -88 -135 -88c-71 0 -95 41 -105 70c-26 -42 -68 -70 -127 -70c-6 0 -15 1 -25 4c-1 -8 -5 -24 -12 -38c-53 -110 -365 -227 -759 -227c-325 0 -603 80 -711 149
l-69 158z" />
    <glyph glyph-name="uni0634" unicode="&#x634;" horiz-adv-x="1086" 
d="M47 40c0 59 12 116 38 170l87 -14c-8 -37 -13 -60 -13 -112c0 -82 58 -158 161 -158c71 0 139 33 163 87c4 8 10 20 10 34c-3 64 -39 157 -76 233l116 45c19 -37 39 -90 55 -153c4 -15 16 -22 39 -22c44 0 77 29 90 112l102 4c-3 -15 -5 -25 -6 -40c-4 -59 23 -76 63 -76
c28 0 60 18 60 52s-23 91 -38 127l120 28c15 -33 24 -82 24 -137c0 -144 -81 -220 -181 -220c-69 0 -100 36 -118 71c-26 -47 -73 -71 -126 -71c-5 0 -16 1 -25 4c-3 -9 -2 -20 -9 -42c-41 -108 -139 -186 -289 -186c-153 0 -247 113 -247 264zM815 417c-39 0 -67 26 -67 71
c0 44 28 72 67 72c41 0 68 -28 68 -72c0 -43 -27 -71 -68 -71zM650 417c-40 0 -69 26 -69 71c0 44 29 72 69 72s68 -28 68 -72c0 -43 -28 -71 -68 -71zM733 566c-40 0 -67 26 -67 71s27 72 67 72s68 -27 68 -72c0 -44 -28 -71 -68 -71z" />
    <glyph glyph-name="uni0634.j" horiz-adv-x="2064" 
d="M20 49c136 -77 413 -167 797 -167c405 0 610 91 648 140c7 8 11 16 11 22c-3 64 -44 160 -81 236l116 45c18 -37 38 -90 55 -153c4 -15 15 -22 38 -22c45 0 78 29 90 112l102 4c-3 -15 -5 -25 -6 -40c-4 -59 23 -76 63 -76c28 0 61 18 61 52s-24 91 -39 127l121 28
c14 -33 23 -82 23 -137c0 -144 -80 -220 -180 -220c-69 0 -100 36 -119 71c-26 -47 -73 -71 -126 -71c-6 0 -16 1 -25 5c-1 -10 -3 -19 -12 -39c-52 -110 -365 -227 -759 -227c-325 0 -603 80 -711 149l-69 158zM1793 417c-40 0 -68 26 -68 71c0 44 28 72 68 72
s68 -28 68 -72c0 -43 -28 -71 -68 -71zM1627 417c-40 0 -69 26 -69 71c0 44 30 72 69 72c40 0 68 -28 68 -72c0 -43 -28 -71 -68 -71zM1710 566c-39 0 -67 26 -67 71s28 72 67 72c41 0 68 -27 68 -72c0 -44 -27 -71 -68 -71z" />
    <glyph glyph-name="uni0634.fj" horiz-adv-x="2119" 
d="M20 49c136 -77 413 -167 797 -167c405 0 610 91 648 140c7 8 11 16 11 22c-3 64 -44 160 -81 236l116 45c18 -37 38 -90 55 -152c4 -16 16 -23 39 -23c45 0 72 15 91 108l101 3c-3 -13 -6 -36 -6 -49c0 -43 12 -63 45 -63c54 0 74 69 85 146l99 8c-2 -11 -5 -29 -5 -40
c0 -66 22 -105 104 -105c39 0 91 -18 91 -78c0 -37 -15 -80 -91 -80c-62 0 -118 14 -158 88c-28 -55 -80 -88 -135 -88c-71 0 -95 41 -105 70c-26 -42 -68 -70 -127 -70c-6 0 -15 1 -25 4c-1 -8 -5 -24 -12 -38c-53 -110 -365 -227 -759 -227c-325 0 -603 80 -711 149
l-69 158zM1793 417c-40 0 -68 26 -68 71c0 44 28 72 68 72s68 -28 68 -72c0 -43 -28 -71 -68 -71zM1627 417c-40 0 -69 26 -69 71c0 44 30 72 69 72c40 0 68 -28 68 -72c0 -43 -28 -71 -68 -71zM1710 566c-39 0 -67 26 -67 71s28 72 67 72c41 0 68 -27 68 -72
c0 -44 -27 -71 -68 -71z" />
    <glyph glyph-name="uni0635" unicode="&#x635;" horiz-adv-x="1251" 
d="M47 24c0 50 13 117 42 170l87 -14c-11 -35 -17 -79 -17 -106c0 -77 51 -150 156 -150c61 0 136 21 164 81c4 7 8 19 8 26c0 78 -34 153 -72 230l115 53c2 -5 4 -11 9 -23c26 -72 44 -102 86 -120c82 125 219 264 370 264c144 0 214 -117 214 -207
c0 -73 -46 -140 -132 -182c-58 -28 -142 -53 -276 -53c-114 0 -175 22 -211 43c-4 -32 -3 -60 -11 -82c-35 -106 -141 -180 -285 -180c-160 0 -247 109 -247 250zM725 152c30 -4 58 -6 83 -6c76 0 155 8 194 18c54 13 102 34 102 64c0 29 -38 79 -124 79
c-77 0 -173 -53 -255 -155z" />
    <glyph glyph-name="uni0635.j" horiz-adv-x="2246" 
d="M20 51c140 -70 389 -169 783 -169c423 0 637 86 671 142c3 6 5 11 5 15c0 78 -29 145 -67 222l113 53l8 -22c27 -71 45 -104 87 -121c82 125 218 264 370 264c143 0 214 -117 214 -207c0 -73 -46 -140 -132 -182c-58 -28 -135 -53 -284 -53c-93 0 -167 21 -203 42
c-4 -31 -6 -46 -14 -67c-54 -114 -379 -229 -780 -229c-334 0 -591 83 -704 149l-71 158zM1723 152c30 -4 53 -6 81 -6c75 0 154 7 193 18c54 13 102 34 102 64c0 28 -40 79 -124 79c-76 0 -174 -52 -252 -155z" />
    <glyph glyph-name="uni0635.fj" horiz-adv-x="2270" 
d="M1525 314l8 -22c27 -71 45 -104 87 -121c82 125 218 264 370 264c143 0 214 -117 214 -207c0 -20 -4 -40 -11 -60c24 -6 60 -10 77 -10c40 0 92 -18 92 -78c0 -37 -16 -80 -92 -80h-16c-58 0 -135 24 -167 54c-5 -3 -10 -5 -15 -8c-58 -28 -135 -53 -284 -53
c-93 0 -167 21 -203 42c-4 -31 -6 -46 -14 -67c-54 -114 -379 -229 -780 -229c-334 0 -591 83 -704 149l-71 158l4 5c140 -70 389 -169 783 -169c423 0 637 86 671 142c3 6 5 11 5 15c0 78 -29 145 -67 222zM1997 164c54 13 102 34 102 64c0 28 -40 79 -124 79
c-76 0 -174 -52 -252 -155c30 -4 53 -6 81 -6c75 0 154 7 193 18z" />
    <glyph glyph-name="uni0636" unicode="&#x636;" horiz-adv-x="1251" 
d="M47 24c0 50 13 117 42 170l87 -14c-11 -35 -17 -79 -17 -106c0 -77 51 -150 156 -150c61 0 136 21 164 81c4 7 8 19 8 26c0 78 -34 153 -72 230l115 53c2 -5 4 -11 9 -23c26 -72 44 -102 86 -120c82 125 219 264 370 264c144 0 214 -117 214 -207
c0 -73 -46 -140 -132 -182c-58 -28 -142 -53 -276 -53c-114 0 -175 22 -211 43c-4 -32 -3 -60 -11 -82c-35 -106 -141 -180 -285 -180c-160 0 -247 109 -247 250zM725 152c30 -4 58 -6 83 -6c76 0 155 8 194 18c54 13 102 34 102 64c0 29 -38 79 -124 79
c-77 0 -173 -53 -255 -155zM842 542c-42 0 -72 28 -72 74s30 76 72 76c43 0 72 -30 72 -76s-29 -74 -72 -74z" />
    <glyph glyph-name="uni0636.j" horiz-adv-x="2246" 
d="M20 51c140 -70 389 -169 783 -169c423 0 637 86 671 142c3 6 5 11 5 15c0 78 -29 145 -67 222l113 53l8 -22c27 -71 45 -104 87 -121c82 125 218 264 370 264c143 0 214 -117 214 -207c0 -73 -46 -140 -132 -182c-58 -28 -135 -53 -284 -53c-93 0 -167 21 -203 42
c-4 -31 -6 -46 -14 -67c-54 -114 -379 -229 -780 -229c-334 0 -591 83 -704 149l-71 158zM1723 152c30 -4 53 -6 81 -6c75 0 154 7 193 18c54 13 102 34 102 64c0 28 -40 79 -124 79c-76 0 -174 -52 -252 -155zM1838 542c-41 0 -71 28 -71 74s30 76 72 76
c43 0 72 -30 72 -76s-29 -74 -73 -74z" />
    <glyph glyph-name="uni0636.fj" horiz-adv-x="2270" 
d="M1838 542c-41 0 -71 28 -71 74s30 76 72 76c43 0 72 -30 72 -76s-29 -74 -73 -74zM1525 314l8 -22c27 -71 45 -104 87 -121c82 125 218 264 370 264c143 0 214 -117 214 -207c0 -20 -4 -40 -11 -60c24 -6 60 -10 77 -10c40 0 92 -18 92 -78c0 -37 -16 -80 -92 -80h-16
c-58 0 -135 24 -167 54c-5 -3 -10 -5 -15 -8c-58 -28 -135 -53 -284 -53c-93 0 -167 21 -203 42c-4 -31 -6 -46 -14 -67c-54 -114 -379 -229 -780 -229c-334 0 -591 83 -704 149l-71 158l4 5c140 -70 389 -169 783 -169c423 0 637 86 671 142c3 6 5 11 5 15
c0 78 -29 145 -67 222zM1997 164c54 13 102 34 102 64c0 28 -40 79 -124 79c-76 0 -174 -52 -252 -155c30 -4 53 -6 81 -6c75 0 154 7 193 18z" />
    <glyph glyph-name="uni0637" unicode="&#x637;" horiz-adv-x="816" 
d="M70 16l-45 158c40 -12 113 -16 135 -16c8 12 14 25 18 40c7 28 5 62 3 102l-19 425l123 9l11 -279c4 -86 3 -139 -1 -164c71 86 171 144 267 144c136 0 212 -108 212 -206c0 -60 -21 -140 -132 -186c-65 -27 -146 -43 -358 -43c-58 0 -138 2 -214 16zM299 157h38
c132 0 240 9 273 21c36 12 59 25 59 51c0 30 -40 78 -127 78c-73 0 -163 -48 -243 -150z" />
    <glyph glyph-name="uni0638" unicode="&#x638;" horiz-adv-x="816" 
d="M70 16l-45 158c40 -12 113 -16 135 -16c8 12 14 25 18 40c7 28 5 62 3 102l-19 425l123 9l11 -279c4 -86 3 -139 -1 -164c71 86 171 144 267 144c136 0 212 -108 212 -206c0 -60 -21 -140 -132 -186c-65 -27 -146 -43 -358 -43c-58 0 -138 2 -214 16zM299 157h38
c132 0 240 9 273 21c36 12 59 25 59 51c0 30 -40 78 -127 78c-73 0 -163 -48 -243 -150zM504 542c-41 0 -71 28 -71 74s30 76 72 76c43 0 72 -30 72 -76s-29 -74 -73 -74z" />
    <glyph glyph-name="uni0639" unicode="&#x639;" horiz-adv-x="572" 
d="M31 -82c0 86 45 168 127 224c-64 47 -93 108 -93 167c0 120 109 208 240 208c53 0 100 -12 133 -30l11 -120c-33 15 -87 21 -137 21c-95 0 -138 -50 -138 -83c0 -42 46 -73 96 -87c56 19 154 50 246 76l-18 -154c-64 -15 -136 -34 -181 -51c-116 -44 -160 -102 -160 -159
c0 -74 85 -163 295 -163c58 0 103 3 150 14l-49 -126c-47 -15 -94 -19 -141 -20c-241 2 -380 113 -381 283z" />
    <glyph glyph-name="uni063A" unicode="&#x63a;" horiz-adv-x="572" 
d="M31 -82c0 86 45 168 127 224c-64 47 -93 108 -93 167c0 120 109 208 240 208c53 0 100 -12 133 -30l11 -120c-33 15 -87 21 -137 21c-95 0 -138 -50 -138 -83c0 -42 46 -73 96 -87c56 19 154 50 246 76l-18 -154c-64 -15 -136 -34 -181 -51c-116 -44 -160 -102 -160 -159
c0 -74 85 -163 295 -163c58 0 103 3 150 14l-49 -126c-47 -15 -94 -19 -141 -20c-241 2 -380 113 -381 283zM239 616c-41 0 -71 28 -71 74s30 75 71 75c44 0 73 -29 73 -75s-29 -74 -73 -74z" />
    <glyph glyph-name="uni0641" unicode="&#x641;" horiz-adv-x="917" 
d="M661 669c-41 0 -71 28 -71 74s30 76 71 76c44 0 72 -30 72 -76s-28 -74 -72 -74zM73 422l88 -15c-8 -31 -13 -58 -13 -90c0 -136 108 -185 269 -185c138 0 262 19 339 43c1 6 3 12 4 17c-209 -10 -254 101 -254 171c0 37 13 94 60 141c40 44 94 60 126 60
c84 0 181 -84 181 -287c0 -43 -9 -136 -38 -203c-99 -54 -276 -91 -430 -91c-306 0 -362 158 -362 282c0 57 11 110 30 157zM610 379c0 -47 68 -61 154 -63c-9 76 -42 120 -88 120c-38 0 -66 -29 -66 -57z" />
    <glyph glyph-name="uni0641.j" horiz-adv-x="1784" 
d="M1527 669c-41 0 -72 28 -72 74s31 76 72 76c43 0 72 -30 72 -76s-29 -74 -72 -74zM16 198l3 4c134 -47 528 -94 825 -94c325 0 641 22 779 67c2 6 3 12 4 18c-213 -13 -254 99 -254 170c0 37 13 94 59 141c41 44 95 60 126 60c84 0 181 -84 181 -287
c0 -43 -8 -138 -37 -203c-178 -85 -525 -115 -876 -116c-277 0 -667 46 -739 89zM1478 379c0 -48 65 -61 152 -63c-9 76 -44 120 -88 120c-39 0 -64 -29 -64 -57z" />
    <glyph glyph-name="uni0641.fj" horiz-adv-x="1807" 
d="M1552 585c-41 0 -72 28 -72 74s31 76 72 76c43 0 72 -30 72 -76s-29 -74 -72 -74zM1790 158h17c40 0 92 -18 92 -78c0 -37 -16 -80 -92 -80h-10c-91 0 -177 20 -246 54c-135 -56 -364 -96 -751 -96c-269 0 -641 46 -713 89l-71 151l3 4c134 -47 492 -94 790 -94
c289 0 491 10 623 35c-34 39 -53 83 -53 130c0 136 119 211 186 211c75 0 172 -66 172 -200c0 -39 -8 -81 -36 -122c29 -3 60 -4 89 -4zM1483 281c0 -44 37 -74 90 -93c42 24 61 54 61 90c0 32 -29 77 -79 77c-40 0 -72 -33 -72 -74z" />
    <glyph glyph-name="uni06A4" unicode="&#x6a4;" horiz-adv-x="917" 
d="M660 818c-39 -1 -67 26 -67 71c0 44 28 72 67 72c41 0 68 -28 68 -72s-27 -71 -68 -71zM577 669c-40 0 -69 26 -69 71c0 44 30 71 69 71c40 0 68 -27 68 -71s-28 -71 -68 -71zM675 740c0 44 28 71 68 71s68 -27 68 -71s-28 -71 -68 -71s-68 26 -68 71zM73 422l88 -15
c-8 -31 -13 -58 -13 -90c0 -136 108 -185 269 -185c138 0 262 19 339 43c1 6 3 12 4 17c-209 -10 -254 101 -254 171c0 37 13 94 60 141c40 44 94 60 126 60c84 0 181 -84 181 -287c0 -43 -9 -136 -38 -203c-99 -54 -276 -91 -430 -91c-306 0 -362 158 -362 282
c0 57 11 110 30 157zM610 379c0 -47 68 -61 154 -63c-9 76 -42 120 -88 120c-38 0 -66 -29 -66 -57z" />
    <glyph glyph-name="uni06A4.j" horiz-adv-x="1784" 
d="M1526 818c-40 -1 -67 26 -67 71c0 44 27 72 67 72s68 -28 68 -72s-28 -71 -68 -71zM1442 669c-39 0 -68 26 -68 71c0 44 29 71 68 71c41 0 69 -27 69 -71s-28 -71 -69 -71zM1541 740c0 44 28 71 67 71c41 0 68 -27 68 -71s-27 -71 -68 -71c-39 0 -67 26 -67 71zM16 198
l3 4c134 -47 528 -94 825 -94c325 0 641 22 779 67c2 6 3 12 4 18c-213 -13 -254 99 -254 170c0 37 13 94 59 141c41 44 95 60 126 60c84 0 181 -84 181 -287c0 -43 -8 -138 -37 -203c-178 -85 -525 -115 -876 -116c-277 0 -667 46 -739 89zM1478 379c0 -48 65 -61 152 -63
c-9 76 -44 120 -88 120c-39 0 -64 -29 -64 -57z" />
    <glyph glyph-name="uni06A4.fj" horiz-adv-x="1807" 
d="M1551 734c-40 0 -67 26 -67 71s27 72 67 72s68 -27 68 -72c0 -44 -28 -71 -68 -71zM1467 585c-39 0 -68 26 -68 71c0 44 29 72 68 72c41 0 69 -28 69 -72c0 -43 -28 -71 -69 -71zM1566 656c0 44 28 72 67 72c41 0 68 -28 68 -72c0 -43 -27 -71 -68 -71
c-39 0 -67 26 -67 71zM1790 158h17c40 0 92 -18 92 -78c0 -37 -16 -80 -92 -80h-10c-91 0 -177 20 -246 54c-135 -56 -364 -96 -751 -96c-269 0 -641 46 -713 89l-71 151l3 4c134 -47 492 -94 790 -94c289 0 491 10 623 35c-34 39 -53 83 -53 130c0 136 119 211 186 211
c75 0 172 -66 172 -200c0 -39 -8 -81 -36 -122c29 -3 60 -4 89 -4zM1483 281c0 -44 37 -74 90 -93c42 24 61 54 61 90c0 32 -29 77 -79 77c-40 0 -72 -33 -72 -74z" />
    <glyph glyph-name="uni0642" unicode="&#x642;" horiz-adv-x="739" 
d="M391 559c-40 0 -69 26 -69 71c0 44 29 72 69 72s68 -28 68 -72c0 -43 -28 -71 -68 -71zM557 559c-40 0 -67 26 -67 71c0 44 27 72 67 72c41 0 68 -28 68 -72c0 -43 -27 -71 -68 -71zM83 301l88 -9c-10 -38 -16 -79 -16 -119c0 -127 74 -205 200 -205c73 0 159 21 210 76
c3 2 8 6 13 26c-17 -2 -48 -3 -53 -3c-139 1 -206 75 -206 183c0 115 100 202 186 202c102 0 189 -106 189 -279c0 -69 -16 -158 -28 -177c-61 -105 -181 -173 -337 -173c-161 0 -286 104 -286 298c0 70 20 140 40 180zM423 272c0 -32 38 -67 116 -67c10 0 30 1 45 2
c-11 86 -56 123 -99 123c-39 0 -62 -25 -62 -58z" />
    <glyph glyph-name="uni0642.j" horiz-adv-x="1844" 
d="M1498 559c-40 0 -69 26 -69 71c0 44 29 72 69 72s68 -28 68 -72c0 -43 -28 -71 -68 -71zM1664 559c-40 0 -67 26 -67 71c0 44 27 72 67 72s68 -28 68 -72c0 -43 -28 -71 -68 -71zM15 68l3 5c134 -59 525 -156 906 -156c505 0 727 81 750 123c3 5 7 14 11 31
c-18 -3 -42 -4 -59 -4c-95 0 -201 46 -201 188c0 106 82 197 184 197c131 0 191 -135 191 -276c0 -93 -20 -185 -34 -203c-88 -115 -369 -205 -848 -205c-395 0 -764 97 -833 142zM1528 273c0 -42 44 -63 104 -63c14 0 40 1 58 2c-14 99 -68 119 -99 119
c-46 0 -63 -34 -63 -58z" />
    <glyph glyph-name="uni0642.fj" horiz-adv-x="1781" 
d="M1406 513c-39 0 -69 26 -69 71c0 44 30 71 69 71c41 0 69 -27 69 -71s-28 -71 -69 -71zM1572 513c-39 0 -67 26 -67 71c0 44 28 71 67 71c41 0 69 -27 69 -71s-28 -71 -69 -71zM1711 158h70c39 0 91 -18 91 -78c0 -37 -15 -80 -91 -80h-76c-6 -34 -13 -61 -19 -73
c-56 -114 -330 -222 -838 -222c-362 0 -694 93 -763 138l-70 158l3 5c105 -47 463 -151 841 -151c472 0 680 76 716 124c2 2 5 10 9 21h-3c-192 0 -247 99 -247 198c0 119 87 207 186 207c64 0 173 -46 191 -247zM1584 158h13c-13 86 -56 125 -98 125c-38 0 -60 -25 -60 -54
c0 -39 21 -71 145 -71z" />
    <glyph glyph-name="uni0643" unicode="&#x643;" horiz-adv-x="802" 
d="M43 231c0 29 5 69 16 94l89 -14c-2 -10 -4 -25 -4 -42c0 -82 74 -124 223 -124c89 0 164 8 232 22c2 11 3 35 0 90l-20 468l123 9l20 -502c4 -93 1 -147 -3 -168c-97 -43 -244 -64 -368 -64c-213 0 -308 88 -308 231zM298 288l-24 60c67 4 143 25 143 39
c0 7 -17 8 -53 11c-53 4 -65 26 -65 57c0 67 63 135 158 140v-88c-70 -3 -88 -19 -88 -29c0 -5 10 -8 40 -12c65 -8 78 -27 78 -60c0 -87 -100 -120 -160 -120c-17 0 -23 1 -29 2z" />
    <glyph glyph-name="uni0643.j" horiz-adv-x="1503" 
d="M87 31l-71 145l2 4c93 -25 359 -42 666 -43c259 -1 489 4 616 28c3 10 4 49 2 104l-20 456l123 9l19 -490c3 -59 2 -135 -12 -178c-97 -47 -330 -79 -744 -79c-278 0 -523 19 -581 44zM683 288l-24 60c68 4 143 25 143 39c0 7 -16 8 -52 11c-53 4 -65 26 -65 57
c0 67 62 135 158 140v-88c-70 -3 -88 -19 -88 -29c0 -5 9 -8 39 -12c65 -8 79 -27 79 -60c0 -87 -101 -120 -160 -120c-18 0 -24 1 -30 2z" />
    <glyph glyph-name="uni0643.fj" horiz-adv-x="1514" 
d="M89 53l-71 150l3 4c104 -31 336 -70 598 -70c377 0 604 36 666 88c5 8 11 15 9 76l-19 424l123 9l17 -452c4 -104 44 -122 99 -124c40 0 92 -18 92 -78c0 -37 -16 -80 -92 -80c-91 0 -149 45 -174 125c-42 -70 -286 -138 -740 -138c-258 0 -452 41 -511 66zM682 288
l-24 60c68 4 143 25 143 39c0 7 -17 8 -52 11c-53 4 -66 26 -66 57c0 67 63 135 159 140v-88c-70 -3 -88 -19 -88 -29c0 -5 9 -8 39 -12c65 -8 78 -27 78 -60c0 -87 -100 -120 -159 -120c-18 0 -24 1 -30 2z" />
    <glyph glyph-name="uni0643.is" horiz-adv-x="327" 
d="M0 0c-67 0 -85 50 -85 82c0 28 19 76 85 76h28c104 0 148 16 148 42c0 35 -92 129 -239 210c0 32 8 121 18 148c3 8 14 15 31 25c77 43 226 113 369 150l-33 -148c-73 -17 -210 -68 -271 -102c99 -71 232 -155 232 -292c0 -77 -38 -121 -80 -149
c-46 -30 -108 -42 -191 -42h-12z" />
    <glyph glyph-name="uni0643.ms" horiz-adv-x="395" 
d="M397 731l-31 -147c-64 -15 -240 -69 -314 -107c90 -78 151 -151 192 -204c83 -110 106 -114 151 -115c40 0 92 -18 92 -78c0 -37 -16 -80 -92 -80c-76 1 -111 15 -191 114c-22 -70 -84 -114 -205 -114c-66 0 -84 47 -84 82c0 31 19 76 85 76h4c81 0 130 16 130 45
c0 13 -7 28 -31 58c-52 63 -116 116 -154 147c1 17 11 127 18 144c2 7 6 15 39 33c92 49 263 113 391 146z" />
    <glyph glyph-name="uni0643.il" horiz-adv-x="460" 
d="M123 0h-123c-67 0 -82 47 -82 82c0 31 19 76 82 76h164c114 0 143 16 143 42c0 35 -88 127 -235 208c0 33 8 123 19 150c3 8 13 15 31 25c76 43 225 113 368 150l-33 -148c-73 -17 -210 -68 -271 -102c99 -71 227 -159 227 -296c0 -65 -35 -114 -76 -141
c-46 -30 -115 -46 -214 -46z" />
    <glyph glyph-name="uni0643.ml" horiz-adv-x="518" 
d="M80 0h-80c-67 0 -82 47 -82 82c0 31 19 76 82 76h82c119 0 171 17 171 47c0 14 -6 26 -30 57c-51 63 -106 107 -151 142c0 17 11 131 17 148c2 7 6 15 39 33c92 49 264 113 392 146l-32 -147c-63 -15 -240 -69 -314 -107c91 -78 150 -150 237 -262c38 -51 71 -55 107 -57
c39 0 91 -18 91 -78c0 -37 -15 -80 -91 -80c-90 2 -124 25 -195 115c-28 -86 -100 -115 -243 -115z" />
    <glyph glyph-name="uni06AD" unicode="&#x6ad;" horiz-adv-x="802" 
d="M43 231c0 29 5 69 16 94l89 -14c-2 -10 -4 -25 -4 -42c0 -82 74 -124 223 -124c89 0 164 8 232 22c2 11 3 35 0 90l-20 468l123 9l20 -502c4 -93 1 -147 -3 -168c-97 -43 -244 -64 -368 -64c-213 0 -308 88 -308 231zM298 288l-24 60c67 4 143 25 143 39
c0 7 -17 8 -53 11c-53 4 -65 26 -65 57c0 67 63 135 158 140v-88c-70 -3 -88 -19 -88 -29c0 -5 10 -8 40 -12c65 -8 78 -27 78 -60c0 -87 -100 -120 -160 -120c-17 0 -23 1 -29 2zM433 684c-36 0 -62 23 -62 64c0 40 26 66 62 66c37 0 63 -26 63 -66c0 -39 -26 -64 -63 -64z
M284 684c-37 0 -64 23 -64 64c0 40 28 66 64 66s63 -26 63 -66c0 -39 -27 -64 -63 -64zM359 819c-37 0 -62 23 -62 64c0 40 25 65 62 65s63 -25 63 -65s-26 -64 -63 -64z" />
    <glyph glyph-name="uni06AD.j" horiz-adv-x="1503" 
d="M87 31l-71 145l2 4c93 -25 359 -42 666 -43c259 -1 489 4 616 28c3 10 4 49 2 104l-20 456l123 9l19 -490c3 -59 2 -135 -12 -178c-97 -47 -330 -79 -744 -79c-278 0 -523 19 -581 44zM683 288l-24 60c68 4 143 25 143 39c0 7 -16 8 -52 11c-53 4 -65 26 -65 57
c0 67 62 135 158 140v-88c-70 -3 -88 -19 -88 -29c0 -5 9 -8 39 -12c65 -8 79 -27 79 -60c0 -87 -101 -120 -160 -120c-18 0 -24 1 -30 2zM851 684c-36 0 -62 23 -62 64c0 40 26 66 62 66c37 0 63 -26 63 -66c0 -39 -26 -64 -63 -64zM702 684c-37 0 -64 23 -64 64
c0 40 27 66 64 66c36 0 63 -26 63 -66c0 -39 -27 -64 -63 -64zM777 819c-37 0 -62 23 -62 64c0 40 25 65 62 65c36 0 63 -25 63 -65s-27 -64 -63 -64z" />
    <glyph glyph-name="uni06AD.fj" horiz-adv-x="1514" 
d="M89 53l-71 150l3 4c104 -31 336 -70 598 -70c377 0 604 36 666 88c5 8 11 15 9 76l-19 424l123 9l17 -452c4 -104 44 -122 99 -124c40 0 92 -18 92 -78c0 -37 -16 -80 -92 -80c-91 0 -149 45 -174 125c-42 -70 -286 -138 -740 -138c-258 0 -452 41 -511 66zM682 288
l-24 60c68 4 143 25 143 39c0 7 -17 8 -52 11c-53 4 -66 26 -66 57c0 67 63 135 159 140v-88c-70 -3 -88 -19 -88 -29c0 -5 9 -8 39 -12c65 -8 78 -27 78 -60c0 -87 -100 -120 -159 -120c-18 0 -24 1 -30 2zM841 684c-36 0 -62 23 -62 64c0 40 26 66 62 66
c37 0 63 -26 63 -66c0 -39 -26 -64 -63 -64zM692 684c-37 0 -64 23 -64 64c0 40 27 66 64 66c36 0 63 -26 63 -66c0 -39 -27 -64 -63 -64zM767 819c-37 0 -62 23 -62 64c0 40 25 65 62 65c36 0 63 -25 63 -65s-27 -64 -63 -64z" />
    <glyph glyph-name="uni06AD.is" horiz-adv-x="327" 
d="M0 0c-67 0 -85 50 -85 82c0 28 19 76 85 76h28c104 0 148 16 148 42c0 35 -92 129 -239 210c0 32 8 121 18 148c3 8 14 15 31 25c77 43 226 113 369 150l-33 -148c-73 -17 -210 -68 -271 -102c99 -71 232 -155 232 -292c0 -77 -38 -121 -80 -149
c-46 -30 -108 -42 -191 -42h-12zM133 753c-36 0 -63 24 -63 65c0 40 27 66 63 66c37 0 63 -26 63 -66s-26 -65 -63 -65zM-17 753c-36 0 -63 24 -63 65c0 40 27 66 63 66c37 0 63 -26 63 -66s-26 -65 -63 -65zM58 888c-36 0 -62 23 -62 65c0 40 26 65 62 65
c37 0 63 -25 63 -65s-26 -65 -63 -65z" />
    <glyph glyph-name="uni06AD.ms" horiz-adv-x="395" 
d="M64 888c-36 0 -62 23 -62 65c0 40 26 65 62 65c37 0 63 -25 63 -65s-26 -65 -63 -65zM-11 753c-36 0 -63 24 -63 65c0 40 27 66 63 66c37 0 63 -26 63 -66s-26 -65 -63 -65zM76 818c0 40 27 66 63 66c37 0 63 -26 63 -66s-26 -65 -63 -65c-36 0 -63 24 -63 65zM397 731
l-31 -147c-64 -15 -240 -69 -314 -107c90 -78 151 -151 192 -204c83 -110 106 -114 151 -115c40 0 92 -18 92 -78c0 -37 -16 -80 -92 -80c-76 1 -111 15 -191 114c-22 -70 -84 -114 -205 -114c-66 0 -84 47 -84 82c0 31 19 76 85 76h4c81 0 130 16 130 45c0 13 -7 28 -31 58
c-52 63 -116 116 -154 147c1 17 11 127 18 144c2 7 6 15 39 33c92 49 263 113 391 146z" />
    <glyph glyph-name="uni06AD.il" horiz-adv-x="460" 
d="M123 0h-123c-67 0 -82 47 -82 82c0 31 19 76 82 76h164c114 0 143 16 143 42c0 35 -88 127 -235 208c0 33 8 123 19 150c3 8 13 15 31 25c76 43 225 113 368 150l-33 -148c-73 -17 -210 -68 -271 -102c99 -71 227 -159 227 -296c0 -65 -35 -114 -76 -141
c-46 -30 -115 -46 -214 -46zM263 753c-36 0 -63 24 -63 65c0 40 27 66 63 66c37 0 63 -26 63 -66s-26 -65 -63 -65zM113 753c-36 0 -63 24 -63 65c0 40 27 66 63 66c37 0 63 -26 63 -66s-26 -65 -63 -65zM188 888c-36 0 -62 23 -62 65c0 40 26 65 62 65c37 0 63 -25 63 -65
s-26 -65 -63 -65z" />
    <glyph glyph-name="uni06AD.ml" horiz-adv-x="518" 
d="M80 0h-80c-67 0 -82 47 -82 82c0 31 19 76 82 76h82c119 0 171 17 171 47c0 14 -6 26 -30 57c-51 63 -106 107 -151 142c0 17 11 131 17 148c2 7 6 15 39 33c92 49 264 113 392 146l-32 -147c-63 -15 -240 -69 -314 -107c91 -78 150 -150 237 -262c38 -51 71 -55 107 -57
c39 0 91 -18 91 -78c0 -37 -15 -80 -91 -80c-90 2 -124 25 -195 115c-28 -86 -100 -115 -243 -115zM263 753c-36 0 -63 24 -63 65c0 40 27 66 63 66c37 0 63 -26 63 -66s-26 -65 -63 -65zM113 753c-36 0 -63 24 -63 65c0 40 27 66 63 66c37 0 63 -26 63 -66s-26 -65 -63 -65
zM188 888c-36 0 -62 23 -62 65c0 40 26 65 62 65c37 0 63 -25 63 -65s-26 -65 -63 -65z" />
    <glyph glyph-name="uni06A9" unicode="&#x6a9;" horiz-adv-x="918" 
d="M43 231c0 27 5 68 16 94l88 -14c-2 -10 -4 -27 -4 -42c0 -86 74 -144 266 -144c235 0 349 52 349 75c0 9 -7 22 -31 45c-52 53 -145 103 -249 154c1 51 6 118 18 144c3 10 16 20 48 38c80 42 248 112 393 152l-33 -144c-75 -17 -246 -79 -315 -113
c117 -59 271 -148 271 -275c0 -144 -227 -222 -474 -222c-243 0 -343 103 -343 252z" />
    <glyph glyph-name="uni06A9.j" horiz-adv-x="1705" 
d="M89 77l-73 147l2 3c93 -39 445 -118 795 -118c470 0 730 69 730 107c0 8 -8 21 -34 44c-54 45 -143 95 -244 134c2 51 7 125 18 150c4 9 13 19 46 37c77 42 235 111 395 150l-33 -146c-77 -19 -240 -69 -314 -107c122 -52 271 -140 271 -258c0 -158 -307 -261 -840 -261
c-341 0 -604 67 -719 118z" />
    <glyph glyph-name="uni06A9.fj" horiz-adv-x="1814" 
d="M89 76l-73 143l5 8c93 -39 461 -117 804 -118c443 0 696 62 696 93c0 5 -7 18 -35 51c-49 61 -128 120 -171 152c3 51 11 123 19 146c3 9 18 17 50 34c85 44 264 109 432 146l-31 -144c-81 -16 -279 -71 -362 -112c80 -65 147 -135 251 -246c62 -69 113 -71 140 -71
c40 0 92 -18 92 -78c0 -37 -16 -80 -92 -80h-13c-56 0 -120 27 -205 124c-60 -95 -320 -165 -779 -165c-328 0 -627 69 -728 117z" />
    <glyph glyph-name="uni06AF" unicode="&#x6af;" horiz-adv-x="918" 
d="M43 231c0 27 5 68 16 94l88 -14c-2 -10 -4 -27 -4 -42c0 -86 74 -144 266 -144c235 0 349 52 349 75c0 9 -7 22 -31 45c-52 53 -145 103 -249 154c1 51 6 118 18 144c3 10 16 20 48 38c80 42 248 112 393 152l-33 -144c-75 -17 -246 -79 -315 -113
c117 -59 271 -148 271 -275c0 -144 -227 -222 -474 -222c-243 0 -343 103 -343 252zM532 760c81 45 249 110 396 150l-21 -91c-122 -32 -304 -103 -390 -147z" />
    <glyph glyph-name="uni06AF.j" horiz-adv-x="1705" 
d="M89 77l-73 147l2 3c93 -39 445 -118 795 -118c470 0 730 69 730 107c0 8 -8 21 -34 44c-54 45 -143 95 -244 134c2 51 7 125 18 150c4 9 13 19 46 37c77 42 235 111 395 150l-33 -146c-77 -19 -240 -69 -314 -107c122 -52 271 -140 271 -258c0 -158 -307 -261 -840 -261
c-341 0 -604 67 -719 118zM1317 760c82 45 249 110 397 150l-21 -91c-122 -32 -304 -103 -390 -147z" />
    <glyph glyph-name="uni06AF.fj" horiz-adv-x="1814" 
d="M89 76l-73 143l5 8c93 -39 461 -117 804 -118c443 0 696 62 696 93c0 5 -7 18 -35 51c-49 61 -128 120 -171 152c3 51 11 123 19 146c3 9 18 17 50 34c85 44 264 109 432 146l-31 -144c-81 -16 -279 -71 -362 -112c80 -65 147 -135 251 -246c62 -69 113 -71 140 -71
c40 0 92 -18 92 -78c0 -37 -16 -80 -92 -80h-13c-56 0 -120 27 -205 124c-60 -95 -320 -165 -779 -165c-328 0 -627 69 -728 117zM1386 760c81 45 249 110 396 150l-21 -91c-121 -32 -303 -103 -390 -147z" />
    <glyph glyph-name="uni06AF.is" horiz-adv-x="327" 
d="M0 0c-67 0 -85 50 -85 82c0 28 19 76 85 76h28c104 0 148 16 148 42c0 35 -92 129 -239 210c0 32 8 121 18 148c3 8 14 15 31 25c77 43 226 113 369 150l-33 -148c-73 -17 -210 -68 -271 -102c99 -71 232 -155 232 -292c0 -77 -38 -121 -80 -149
c-46 -30 -108 -42 -191 -42h-12zM-11 760c82 45 249 110 396 150l-21 -91c-121 -32 -303 -103 -390 -147z" />
    <glyph glyph-name="uni06AF.ms" horiz-adv-x="395" 
d="M400 910l-21 -91c-122 -32 -304 -103 -390 -147l14 88c82 45 249 110 397 150zM397 731l-31 -147c-64 -15 -240 -69 -314 -107c90 -78 151 -151 192 -204c83 -110 106 -114 151 -115c40 0 92 -18 92 -78c0 -37 -16 -80 -92 -80c-76 1 -111 15 -191 114
c-22 -70 -84 -114 -205 -114c-66 0 -84 47 -84 82c0 31 19 76 85 76h4c81 0 130 16 130 45c0 13 -7 28 -31 58c-52 63 -116 116 -154 147c1 17 11 127 18 144c2 7 6 15 39 33c92 49 263 113 391 146z" />
    <glyph glyph-name="uni06AF.il" horiz-adv-x="460" 
d="M123 0h-123c-67 0 -82 47 -82 82c0 31 19 76 82 76h164c114 0 143 16 143 42c0 35 -88 127 -235 208c0 33 8 123 19 150c3 8 13 15 31 25c76 43 225 113 368 150l-33 -148c-73 -17 -210 -68 -271 -102c99 -71 227 -159 227 -296c0 -65 -35 -114 -76 -141
c-46 -30 -115 -46 -214 -46zM119 760c82 45 249 110 396 150l-21 -91c-121 -32 -303 -103 -390 -147z" />
    <glyph glyph-name="uni06AF.ml" horiz-adv-x="518" 
d="M80 0h-80c-67 0 -82 47 -82 82c0 31 19 76 82 76h82c119 0 171 17 171 47c0 14 -6 26 -30 57c-51 63 -106 107 -151 142c0 17 11 131 17 148c2 7 6 15 39 33c92 49 264 113 392 146l-32 -147c-63 -15 -240 -69 -314 -107c91 -78 150 -150 237 -262c38 -51 71 -55 107 -57
c39 0 91 -18 91 -78c0 -37 -15 -80 -91 -80c-90 2 -124 25 -195 115c-28 -86 -100 -115 -243 -115zM123 760c82 45 249 110 397 150l-21 -91c-122 -32 -304 -103 -390 -147z" />
    <glyph glyph-name="uni0644" unicode="&#x644;" horiz-adv-x="658" 
d="M46 107c0 42 9 99 34 156l93 -13c-8 -30 -12 -65 -12 -96c0 -91 54 -143 149 -143c47 0 116 15 143 48c6 7 7 22 6 38l-27 628l123 9l26 -602c2 -66 -11 -102 -24 -124c-50 -89 -161 -136 -260 -136c-164 0 -251 94 -251 235z" />
    <glyph glyph-name="uni0644.j" horiz-adv-x="1706" 
d="M17 98l3 3c98 -43 414 -128 754 -128c291 0 604 60 728 131c2 10 4 54 1 110l-21 511l123 9l21 -540c3 -59 3 -140 -5 -175c-113 -70 -404 -195 -854 -195c-329 0 -616 74 -676 114z" />
    <glyph glyph-name="uni0644.fj" horiz-adv-x="1762" 
d="M1646 734l21 -539c18 -26 57 -37 95 -37c40 0 92 -18 92 -78c0 -37 -16 -80 -92 -80c-30 0 -75 8 -105 31c-6 -24 -15 -42 -27 -58c-92 -129 -430 -222 -829 -222c-339 0 -642 80 -714 126l-71 152l5 4c54 -31 398 -139 784 -139c310 0 650 59 736 166c6 8 8 23 8 56
l-27 609z" />
    <glyph glyph-name="uni0645" unicode="&#x645;" horiz-adv-x="828" 
d="M31 -75c128 51 291 139 340 207c16 18 35 93 52 142c45 128 96 180 185 180c106 0 178 -119 178 -220c0 -97 -45 -184 -137 -184c-63 0 -114 20 -174 59c-8 -29 -22 -78 -40 -103c-55 -76 -199 -142 -327 -165zM521 248c33 -27 91 -46 124 -46c24 0 38 18 38 39
c0 43 -38 84 -83 84c-30 0 -59 -17 -79 -77z" />
    <glyph glyph-name="uni0645.a" horiz-adv-x="549" 
d="M47 78c2 72 54 142 150 142c71 0 178 -16 195 -20c-29 60 -70 100 -117 100c-29 0 -52 -21 -69 -69l-95 43c26 112 96 155 160 155c41 0 76 -13 105 -35c90 -67 132 -184 132 -221c0 -19 -29 -115 -41 -137c-63 12 -169 27 -241 27c-43 0 -49 -19 -49 -35
c0 -18 17 -92 34 -158c33 -131 41 -171 42 -193l-118 -41c-8 56 -38 188 -66 296c-13 52 -22 105 -22 146z" />
    <glyph glyph-name="uni0645.fa" horiz-adv-x="644" 
d="M251 -323l-116 -40c-3 40 -17 102 -37 188c-29 123 -54 226 -54 293c0 57 30 119 106 119c18 0 42 -5 66 -12c34 107 89 177 175 177c87 0 144 -76 167 -159c35 -78 61 -85 86 -85c40 0 92 -18 92 -78c0 -37 -16 -80 -92 -80c-39 0 -80 22 -102 56
c-23 -34 -60 -56 -111 -56c-47 0 -96 19 -143 43c-53 23 -86 33 -99 33c-9 0 -13 -9 -13 -20c0 -25 17 -99 26 -138c26 -109 45 -180 49 -241zM435 152c17 0 32 3 32 25c0 43 -31 96 -78 96c-34 0 -57 -26 -75 -84c1 0 1 -1 2 -1c36 -20 79 -36 119 -36z" />
    <glyph glyph-name="uni06BA" unicode="&#x6ba;" horiz-adv-x="671" 
d="M43 106c0 57 16 131 42 177l93 -15c-10 -40 -16 -77 -16 -107c0 -98 52 -155 176 -155c74 0 138 21 169 68c7 9 11 20 11 37c0 61 -38 168 -95 272l128 35c21 -36 76 -151 76 -292c0 -50 -16 -102 -35 -132c-56 -91 -148 -142 -283 -142c-163 0 -266 105 -266 254z" />
    <glyph glyph-name="uni06BA.j" horiz-adv-x="1657" 
d="M16 96l2 3c107 -47 429 -149 789 -149c349 0 623 57 686 134c7 8 9 15 9 35c0 60 -36 169 -93 272l128 27c21 -36 76 -160 76 -290c0 -50 -9 -92 -19 -107c-79 -123 -368 -221 -802 -221c-319 0 -615 86 -704 137z" />
    <glyph glyph-name="uni06BA.fj" horiz-adv-x="1660" 
d="M21 49c135 -59 456 -153 793 -153c395 0 636 57 676 132c6 7 8 20 8 24c0 8 -3 25 -8 47c-14 63 -45 133 -79 191l119 49c15 -22 51 -104 67 -173c13 -5 38 -8 63 -8c40 0 92 -18 92 -78c0 -37 -16 -80 -92 -80c-30 1 -51 4 -65 8c-3 -16 -9 -40 -19 -57
c-64 -114 -319 -204 -767 -204c-337 0 -616 81 -721 140l-72 155z" />
    <glyph glyph-name="uni0646" unicode="&#x646;" horiz-adv-x="671" 
d="M43 106c0 57 16 131 42 177l93 -15c-10 -40 -16 -77 -16 -107c0 -98 52 -155 176 -155c74 0 138 21 169 68c7 9 11 20 11 37c0 61 -38 168 -95 272l128 35c21 -36 76 -151 76 -292c0 -50 -16 -102 -35 -132c-56 -91 -148 -142 -283 -142c-163 0 -266 105 -266 254z
M297 476c-41 0 -71 28 -71 73c0 46 30 76 71 76c44 0 72 -30 72 -76c0 -45 -28 -73 -72 -73z" />
    <glyph glyph-name="uni0646.j" horiz-adv-x="1657" 
d="M16 96l2 3c107 -47 429 -149 789 -149c349 0 623 57 686 134c7 8 9 15 9 35c0 60 -36 169 -93 272l128 27c21 -36 76 -160 76 -290c0 -50 -9 -92 -19 -107c-79 -123 -368 -221 -802 -221c-319 0 -615 86 -704 137zM887 476c-42 0 -72 28 -72 73c0 46 30 76 72 76
c43 0 72 -30 72 -76c0 -45 -29 -73 -72 -73z" />
    <glyph glyph-name="uni0646.fj" horiz-adv-x="1660" 
d="M21 49c135 -59 456 -153 793 -153c395 0 636 57 676 132c6 7 8 20 8 24c0 8 -3 25 -8 47c-14 63 -45 133 -79 191l119 49c15 -22 51 -104 67 -173c13 -5 38 -8 63 -8c40 0 92 -18 92 -78c0 -37 -16 -80 -92 -80c-30 1 -51 4 -65 8c-3 -16 -9 -40 -19 -57
c-64 -114 -319 -204 -767 -204c-337 0 -616 81 -721 140l-72 155zM887 422c-42 0 -72 28 -72 74s30 75 72 75c43 0 72 -29 72 -75s-29 -74 -72 -74z" />
    <glyph glyph-name="uni0647" unicode="&#x647;" horiz-adv-x="475" 
d="M123 437l75 97c89 -62 149 -122 184 -171c37 -54 51 -103 51 -162c0 -134 -103 -210 -203 -210c-116 0 -188 87 -188 197c0 95 48 163 101 234c-6 5 -13 10 -20 15zM240 157c58 0 89 38 89 66c0 42 -28 78 -106 139c-36 -35 -77 -86 -77 -130c0 -34 32 -75 94 -75z" />
    <glyph glyph-name="uni0647.s" horiz-adv-x="753" 
d="M249 480l65 106c53 -35 168 -104 237 -158c107 -82 156 -152 156 -246c0 -117 -101 -202 -223 -202c-61 0 -117 16 -165 43c-72 -37 -161 -60 -261 -61l-39 159c67 0 128 4 181 12c-25 39 -39 80 -39 120c0 90 52 156 122 200zM273 281c0 -45 23 -81 57 -109
c51 29 80 71 80 133c0 52 -28 78 -55 78c-40 0 -82 -43 -82 -102zM497 120c64 0 103 23 103 66c0 47 -41 100 -87 135c4 -14 4 -23 4 -37c0 -55 -24 -111 -66 -161c15 -2 31 -3 46 -3z" />
    <glyph glyph-name="uni0647.fUYG" horiz-adv-x="496" 
d="M391 158h106c39 0 91 -18 91 -78c0 -37 -15 -80 -91 -80h-69c26 -22 38 -49 38 -78c0 -92 -86 -157 -167 -157c-170 0 -247 167 -247 298c0 148 94 314 163 414h35c44 -45 157 -150 157 -240c0 -26 -6 -53 -16 -79zM172 158h44c78 0 87 24 87 47c0 32 -30 83 -66 109
c-20 -27 -50 -82 -65 -156zM215 0h-45c19 -68 69 -116 130 -116c40 0 56 20 56 43c0 34 -41 73 -141 73z" />
    <glyph glyph-name="uni0647.ms" horiz-adv-x="705" 
d="M178 479l66 106c55 -34 170 -106 237 -157c107 -80 157 -152 157 -246v-15c23 -8 54 -9 67 -9c40 0 92 -18 92 -78c0 -37 -15 -80 -92 -80h-16c-43 0 -91 11 -127 29c-40 -31 -94 -49 -150 -49c-68 0 -129 20 -179 51c-58 -20 -127 -31 -204 -31h-29c-69 0 -82 45 -82 81
c0 29 16 77 82 77h39c26 0 51 0 76 1c-16 32 -24 64 -24 95c0 91 56 156 123 199zM203 281c0 -41 18 -74 46 -100c56 20 91 57 91 126c0 48 -29 76 -54 76c-39 0 -83 -38 -83 -102zM424 120c72 0 107 24 107 67c0 49 -42 99 -87 134c3 -14 3 -23 3 -37
c0 -60 -23 -115 -65 -161c14 -2 28 -3 42 -3z" />
    <glyph glyph-name="uni0629" unicode="&#x629;" horiz-adv-x="475" 
d="M126 613c-39 0 -69 26 -69 71c0 44 30 71 69 71c41 0 69 -27 69 -71s-28 -71 -69 -71zM293 613c-40 0 -68 26 -68 71c0 44 28 71 68 71s68 -27 68 -71s-28 -71 -68 -71zM123 437l75 97c89 -62 149 -122 184 -171c37 -54 51 -103 51 -162c0 -134 -103 -210 -203 -210
c-116 0 -188 87 -188 197c0 95 48 163 101 234c-6 5 -13 10 -20 15zM240 157c58 0 89 38 89 66c0 42 -28 78 -106 139c-36 -35 -77 -86 -77 -130c0 -34 32 -75 94 -75z" />
    <glyph glyph-name="uni06BE" unicode="&#x6be;" horiz-adv-x="753" 
d="M249 480l65 106c53 -35 168 -104 237 -158c107 -82 156 -152 156 -246c0 -117 -101 -202 -223 -202c-61 0 -117 16 -165 43c-72 -37 -161 -60 -261 -61l-39 159c67 0 128 4 181 12c-25 39 -39 80 -39 120c0 90 52 156 122 200zM273 281c0 -45 23 -81 57 -109
c51 29 80 71 80 133c0 52 -28 78 -55 78c-40 0 -82 -43 -82 -102zM497 120c64 0 103 23 103 66c0 47 -41 100 -87 135c4 -14 4 -23 4 -37c0 -55 -24 -111 -66 -161c15 -2 31 -3 46 -3z" />
    <glyph glyph-name="uni06C0" unicode="&#x6c0;" horiz-adv-x="475" 
d="M301 623h-83c-55 0 -99 -4 -135 -19l7 67c11 7 30 12 43 13c-16 12 -34 28 -34 61c0 66 59 93 114 93c52 0 86 -16 101 -29l-19 -66c-19 15 -54 24 -76 24c-28 0 -47 -14 -47 -30c0 -25 28 -41 78 -41h80zM123 437l75 97c89 -62 149 -122 184 -171
c37 -54 51 -103 51 -162c0 -134 -103 -210 -203 -210c-116 0 -188 87 -188 197c0 95 48 163 101 234c-6 5 -13 10 -20 15zM240 157c58 0 89 38 89 66c0 42 -28 78 -106 139c-36 -35 -77 -86 -77 -130c0 -34 32 -75 94 -75z" />
    <glyph glyph-name="uni06C1" unicode="&#x6c1;" horiz-adv-x="475" 
d="M123 437l75 97c89 -62 149 -122 184 -171c37 -54 51 -103 51 -162c0 -134 -103 -210 -203 -210c-116 0 -188 87 -188 197c0 95 48 163 101 234c-6 5 -13 10 -20 15zM240 157c58 0 89 38 89 66c0 42 -28 78 -106 139c-36 -35 -77 -86 -77 -130c0 -34 32 -75 94 -75z" />
    <glyph glyph-name="uni06C1.ic" horiz-adv-x="310" 
d="M0 0c-67 0 -82 48 -82 81c0 30 17 77 82 77h30c60 0 102 4 121 17v10c0 58 -40 146 -81 214l119 40c45 -82 76 -193 76 -276c0 -36 -6 -79 -20 -109c-26 -24 -75 -54 -235 -54h-10zM123 -72l97 -33c-20 -29 -40 -61 -40 -105c0 -37 13 -69 40 -102l-104 -44
c-31 30 -54 88 -54 142c0 46 21 99 61 142z" />
    <glyph glyph-name="uni06C1.ia" horiz-adv-x="500" 
d="M0 0c-68 0 -85 45 -85 79c0 44 25 79 85 79c86 0 117 27 130 104l102 4c-3 -15 -5 -25 -5 -40c-4 -59 23 -76 63 -76c28 0 60 18 60 52s-23 91 -38 127l120 28c15 -33 24 -82 24 -137c0 -144 -81 -220 -181 -220c-68 0 -103 40 -121 72c-26 -46 -93 -72 -154 -72z" />
    <glyph glyph-name="uni06C2" unicode="&#x6c2;" horiz-adv-x="475" 
d="M301 623h-83c-55 0 -99 -4 -135 -19l7 67c11 7 30 12 43 13c-16 12 -34 28 -34 61c0 66 59 93 114 93c52 0 86 -16 101 -29l-19 -66c-19 15 -54 24 -76 24c-28 0 -47 -14 -47 -30c0 -25 28 -41 78 -41h80zM123 437l75 97c89 -62 149 -122 184 -171
c37 -54 51 -103 51 -162c0 -134 -103 -210 -203 -210c-116 0 -188 87 -188 197c0 95 48 163 101 234c-6 5 -13 10 -20 15zM240 157c58 0 89 38 89 66c0 42 -28 78 -106 139c-36 -35 -77 -86 -77 -130c0 -34 32 -75 94 -75z" />
    <glyph glyph-name="uni06C3" unicode="&#x6c3;" horiz-adv-x="475" 
d="M126 613c-39 0 -69 26 -69 71c0 44 30 71 69 71c41 0 69 -27 69 -71s-28 -71 -69 -71zM293 613c-40 0 -68 26 -68 71c0 44 28 71 68 71s68 -27 68 -71s-28 -71 -68 -71zM123 437l75 97c89 -62 149 -122 184 -171c37 -54 51 -103 51 -162c0 -134 -103 -210 -203 -210
c-116 0 -188 87 -188 197c0 95 48 163 101 234c-6 5 -13 10 -20 15zM240 157c58 0 89 38 89 66c0 42 -28 78 -106 139c-36 -35 -77 -86 -77 -130c0 -34 32 -75 94 -75z" />
    <glyph glyph-name="uni06D5" unicode="&#x6d5;" horiz-adv-x="475" 
d="M123 437l75 97c89 -62 149 -122 184 -171c37 -54 51 -103 51 -162c0 -134 -103 -210 -203 -210c-116 0 -188 87 -188 197c0 95 48 163 101 234c-6 5 -13 10 -20 15zM240 157c58 0 89 38 89 66c0 42 -28 78 -106 139c-36 -35 -77 -86 -77 -130c0 -34 32 -75 94 -75z" />
    <glyph glyph-name="uni0648" unicode="&#x648;" horiz-adv-x="548" 
d="M14 -161l20 96c20 -10 69 -27 137 -27c101 0 181 58 216 141c-13 -1 -29 -2 -42 -2c-95 0 -208 53 -208 194c0 114 86 197 180 197c131 0 189 -139 189 -271c0 -54 -6 -103 -28 -163c-55 -152 -169 -231 -290 -231c-54 0 -131 17 -174 66zM236 264c0 -56 57 -75 115 -75
c15 0 38 1 53 4c-14 95 -74 126 -108 126c-48 0 -60 -35 -60 -55z" />
    <glyph glyph-name="uni0624" unicode="&#x624;" horiz-adv-x="548" 
d="M373 553h-84c-55 0 -98 -3 -134 -19l7 68c11 6 30 12 43 12c-16 12 -34 29 -34 62c0 65 58 92 114 92c51 0 86 -15 101 -29l-19 -65c-19 14 -54 23 -76 23c-28 0 -47 -13 -47 -29c0 -25 28 -42 78 -42h80zM14 -161l20 96c20 -10 69 -27 137 -27c101 0 181 58 216 141
c-13 -1 -29 -2 -42 -2c-95 0 -208 53 -208 194c0 114 86 197 180 197c131 0 189 -139 189 -271c0 -54 -6 -103 -28 -163c-55 -152 -169 -231 -290 -231c-54 0 -131 17 -174 66zM236 264c0 -56 57 -75 115 -75c15 0 38 1 53 4c-14 95 -74 126 -108 126c-48 0 -60 -35 -60 -55
z" />
    <glyph glyph-name="uni06C6" unicode="&#x6c6;" horiz-adv-x="548" 
d="M319 537h-83c-17 38 -60 98 -114 160l68 52c41 -40 76 -87 92 -114c20 31 49 69 93 118l61 -50c-50 -60 -98 -127 -117 -166zM14 -161l20 96c20 -10 69 -27 137 -27c101 0 181 58 216 141c-13 -1 -29 -2 -42 -2c-95 0 -208 53 -208 194c0 114 86 197 180 197
c131 0 189 -139 189 -271c0 -54 -6 -103 -28 -163c-55 -152 -169 -231 -290 -231c-54 0 -131 17 -174 66zM236 264c0 -56 57 -75 115 -75c15 0 38 1 53 4c-14 95 -74 126 -108 126c-48 0 -60 -35 -60 -55z" />
    <glyph glyph-name="uni06C7" unicode="&#x6c7;" horiz-adv-x="548" 
d="M149 548l5 55c19 -7 48 -8 58 -8c34 0 64 11 77 24c-57 4 -98 35 -98 91c0 51 42 96 101 96c43 0 95 -37 95 -111c1 -111 -85 -166 -163 -165c-36 0 -64 9 -75 18zM248 716c0 -17 16 -43 77 -41c5 31 -11 67 -46 67c-17 0 -31 -11 -31 -26zM14 -161l20 96
c20 -10 69 -27 137 -27c101 0 181 58 216 141c-13 -1 -29 -2 -42 -2c-95 0 -208 53 -208 194c0 114 86 197 180 197c131 0 189 -139 189 -271c0 -54 -6 -103 -28 -163c-55 -152 -169 -231 -290 -231c-54 0 -131 17 -174 66zM236 264c0 -56 57 -75 115 -75c15 0 38 1 53 4
c-14 95 -74 126 -108 126c-48 0 -60 -35 -60 -55z" />
    <glyph glyph-name="uni06C8" unicode="&#x6c8;" horiz-adv-x="548" 
d="M329 550l-97 -7l-20 248l109 9zM14 -161l20 96c20 -10 69 -27 137 -27c101 0 181 58 216 141c-13 -1 -29 -2 -42 -2c-95 0 -208 53 -208 194c0 114 86 197 180 197c131 0 189 -139 189 -271c0 -54 -6 -103 -28 -163c-55 -152 -169 -231 -290 -231c-54 0 -131 17 -174 66z
M236 264c0 -56 57 -75 115 -75c15 0 38 1 53 4c-14 95 -74 126 -108 126c-48 0 -60 -35 -60 -55z" />
    <glyph glyph-name="uni06C9" unicode="&#x6c9;" horiz-adv-x="548" 
d="M441 582l-69 -53c-41 41 -75 88 -91 115c-21 -31 -50 -69 -94 -118l-61 50c50 60 98 127 117 166h83c17 -39 60 -98 115 -160zM14 -161l20 96c20 -10 69 -27 137 -27c101 0 181 58 216 141c-13 -1 -29 -2 -42 -2c-95 0 -208 53 -208 194c0 114 86 197 180 197
c131 0 189 -139 189 -271c0 -54 -6 -103 -28 -163c-55 -152 -169 -231 -290 -231c-54 0 -131 17 -174 66zM236 264c0 -56 57 -75 115 -75c15 0 38 1 53 4c-14 95 -74 126 -108 126c-48 0 -60 -35 -60 -55z" />
    <glyph glyph-name="uni06CB" unicode="&#x6cb;" horiz-adv-x="548" 
d="M282 693c-40 -1 -67 26 -67 71c0 44 27 72 67 72s68 -28 68 -72s-28 -71 -68 -71zM198 544c-39 0 -68 25 -68 70c0 44 29 72 68 72c41 0 69 -28 69 -72c0 -43 -28 -70 -69 -70zM297 614c0 44 28 72 67 72c41 0 68 -28 68 -72c0 -43 -27 -70 -68 -70c-39 0 -67 25 -67 70z
M14 -161l20 96c20 -10 69 -27 137 -27c101 0 181 58 216 141c-13 -1 -29 -2 -42 -2c-95 0 -208 53 -208 194c0 114 86 197 180 197c131 0 189 -139 189 -271c0 -54 -6 -103 -28 -163c-55 -152 -169 -231 -290 -231c-54 0 -131 17 -174 66zM236 264c0 -56 57 -75 115 -75
c15 0 38 1 53 4c-14 95 -74 126 -108 126c-48 0 -60 -35 -60 -55z" />
    <glyph glyph-name="uni06C5" unicode="&#x6c5;" horiz-adv-x="556" 
d="M114 13h265c5 12 10 24 14 36c-14 -1 -30 -2 -44 -2c-95 0 -210 53 -210 194c0 114 85 197 186 197c116 0 189 -134 189 -287c0 -56 -6 -107 -29 -171c-56 -162 -173 -246 -297 -246c-54 0 -131 17 -174 66l20 96c21 -10 69 -27 137 -27c67 0 123 31 164 77l-221 -2v69z
M238 264c0 -53 59 -75 118 -75c12 0 32 1 47 3c-15 91 -67 127 -99 127c-50 0 -66 -35 -66 -55z" />
    <glyph glyph-name="uni0649" unicode="&#x649;" horiz-adv-x="732" 
d="M43 72c0 63 17 135 43 190l90 -9c-11 -49 -16 -81 -16 -120c0 -124 74 -182 198 -182c76 0 135 16 176 47c15 12 25 26 25 36c0 9 -16 21 -82 41l-50 16c-88 26 -112 65 -112 129c0 52 20 119 78 180c50 51 114 85 179 85c45 0 109 -24 125 -99l-74 -94
c-22 47 -68 59 -93 59c-69 0 -106 -56 -106 -82c0 -16 9 -26 55 -40l73 -23c76 -25 123 -54 123 -127c0 -76 -46 -135 -65 -155c-79 -81 -180 -114 -284 -114c-176 0 -283 97 -283 262z" />
    <glyph glyph-name="uni0649.j" horiz-adv-x="1748" 
d="M14 88l1 2c89 -44 402 -172 873 -172c497 0 689 95 689 130c0 9 -8 16 -72 31l-109 26c-94 22 -122 59 -122 121c0 49 22 117 80 172c59 56 140 87 213 87c56 0 131 -30 147 -108l-75 -99c-28 61 -74 79 -115 79c-92 0 -141 -53 -141 -86c0 -11 8 -20 55 -31l135 -31
c79 -19 124 -45 124 -111c0 -188 -266 -322 -814 -322c-429 0 -727 108 -797 151z" />
    <glyph glyph-name="uni0649.fj" horiz-adv-x="1634" 
d="M18 -20c50 -34 450 -149 815 -149c371 0 608 54 671 97c16 11 29 22 29 32c0 14 -33 40 -110 40h-7l41 158h177c39 0 91 -18 91 -78c0 -37 -15 -80 -91 -80h-16c14 -14 17 -33 17 -47c0 -30 -12 -59 -45 -90c-98 -94 -362 -174 -770 -174c-273 0 -609 60 -732 134
l-72 155z" />
    <glyph glyph-name="uni0626" unicode="&#x626;" horiz-adv-x="732" 
d="M43 72c0 63 17 135 43 190l90 -9c-11 -49 -16 -81 -16 -120c0 -124 74 -182 198 -182c76 0 135 16 176 47c15 12 25 26 25 36c0 9 -16 21 -82 41l-50 16c-88 26 -112 65 -112 129c0 52 20 119 78 180c50 51 114 85 179 85c45 0 109 -24 125 -99l-74 -94
c-22 47 -68 59 -93 59c-69 0 -106 -56 -106 -82c0 -16 9 -26 55 -40l73 -23c76 -25 123 -54 123 -127c0 -76 -46 -135 -65 -155c-79 -81 -180 -114 -284 -114c-176 0 -283 97 -283 262zM175 396c-55 0 -99 -4 -135 -20l7 68c11 6 30 12 43 12c-16 13 -34 29 -34 62
c0 65 59 92 114 92c52 0 86 -15 101 -28l-19 -66c-19 14 -54 23 -76 23c-28 0 -46 -13 -46 -29c0 -25 27 -42 77 -42h80l-29 -72h-83z" />
    <glyph glyph-name="uni0626.j" horiz-adv-x="1748" 
d="M14 88l1 2c89 -44 402 -172 873 -172c497 0 689 95 689 130c0 9 -8 16 -72 31l-109 26c-94 22 -122 59 -122 121c0 49 22 117 80 172c59 56 140 87 213 87c56 0 131 -30 147 -108l-75 -99c-28 61 -74 79 -115 79c-92 0 -141 -53 -141 -86c0 -11 8 -20 55 -31l135 -31
c79 -19 124 -45 124 -111c0 -188 -266 -322 -814 -322c-429 0 -727 108 -797 151zM809 396c-55 0 -99 -4 -135 -20l7 68c11 6 30 12 43 12c-16 13 -34 29 -34 62c0 65 59 92 114 92c52 0 86 -15 102 -28l-20 -66c-19 14 -53 23 -75 23c-29 0 -47 -13 -47 -29
c0 -25 27 -42 77 -42h80l-29 -72h-83z" />
    <glyph glyph-name="uni0626.fj" horiz-adv-x="1634" 
d="M18 -20c50 -34 450 -149 815 -149c371 0 608 54 671 97c16 11 29 22 29 32c0 14 -33 40 -110 40h-7l41 158h177c39 0 91 -18 91 -78c0 -37 -15 -80 -91 -80h-16c14 -14 17 -33 17 -47c0 -30 -12 -59 -45 -90c-98 -94 -362 -174 -770 -174c-273 0 -609 60 -732 134
l-72 155zM839 310c-55 0 -99 -4 -135 -19l7 67c11 6 30 12 43 13c-16 12 -34 28 -34 61c0 65 59 93 114 93c52 0 86 -16 102 -29l-20 -66c-19 14 -53 24 -75 24c-29 0 -47 -14 -47 -30c0 -25 27 -42 77 -42h80l-29 -72h-83z" />
    <glyph glyph-name="uni064A" unicode="&#x64a;" horiz-adv-x="732" 
d="M43 72c0 63 17 135 43 190l90 -9c-11 -49 -16 -81 -16 -120c0 -124 74 -182 198 -182c76 0 135 16 176 47c15 12 25 26 25 36c0 9 -16 21 -82 41l-50 16c-88 26 -112 65 -112 129c0 52 20 119 78 180c50 51 114 85 179 85c45 0 109 -24 125 -99l-74 -94
c-22 47 -68 59 -93 59c-69 0 -106 -56 -106 -82c0 -16 9 -26 55 -40l73 -23c76 -25 123 -54 123 -127c0 -76 -46 -135 -65 -155c-79 -81 -180 -114 -284 -114c-176 0 -283 97 -283 262zM452 -276c40 0 68 -28 68 -72c0 -43 -28 -71 -68 -71s-67 26 -67 71c0 44 27 72 67 72z
M286 -276c40 0 68 -28 68 -72c0 -43 -28 -71 -68 -71s-70 26 -70 71c0 44 30 72 70 72z" />
    <glyph glyph-name="uni064A.j" horiz-adv-x="1748" 
d="M14 88l1 2c89 -44 402 -172 873 -172c497 0 689 95 689 130c0 9 -8 16 -72 31l-109 26c-94 22 -122 59 -122 121c0 49 22 117 80 172c59 56 140 87 213 87c56 0 131 -30 147 -108l-75 -99c-28 61 -74 79 -115 79c-92 0 -141 -53 -141 -86c0 -11 8 -20 55 -31l135 -31
c79 -19 124 -45 124 -111c0 -188 -266 -322 -814 -322c-429 0 -727 108 -797 151zM1105 -306c40 0 68 -28 68 -72c0 -43 -28 -71 -68 -71s-67 26 -67 71c0 44 27 72 67 72zM939 -306c40 0 68 -28 68 -72c0 -43 -28 -71 -68 -71s-69 26 -69 71c0 44 29 72 69 72z" />
    <glyph glyph-name="uni064A.fj" horiz-adv-x="1634" 
d="M18 -20c50 -34 450 -149 815 -149c371 0 608 54 671 97c16 11 29 22 29 32c0 14 -33 40 -110 40h-7l41 158h177c39 0 91 -18 91 -78c0 -37 -15 -80 -91 -80h-16c14 -14 17 -33 17 -47c0 -30 -12 -59 -45 -90c-98 -94 -362 -174 -770 -174c-273 0 -609 60 -732 134
l-72 155zM1104 -394c40 0 68 -27 68 -72c0 -43 -28 -70 -68 -70s-67 25 -67 70s27 72 67 72zM938 -394c40 0 68 -27 68 -72c0 -43 -28 -70 -68 -70s-70 25 -70 70s30 72 70 72z" />
    <glyph glyph-name="uni06D0" unicode="&#x6d0;" horiz-adv-x="732" 
d="M43 72c0 63 17 135 43 190l90 -9c-11 -49 -16 -81 -16 -120c0 -124 74 -182 198 -182c76 0 135 16 176 47c15 12 25 26 25 36c0 9 -16 21 -82 41l-50 16c-88 26 -112 65 -112 129c0 52 20 119 78 180c50 51 114 85 179 85c45 0 109 -24 125 -99l-74 -94
c-22 47 -68 59 -93 59c-69 0 -106 -56 -106 -82c0 -16 9 -26 55 -40l73 -23c76 -25 123 -54 123 -127c0 -76 -46 -135 -65 -155c-79 -81 -180 -114 -284 -114c-176 0 -283 97 -283 262zM369 -441c39 0 67 -28 67 -72c0 -43 -28 -71 -67 -71c-40 0 -69 26 -69 71
c0 44 28 72 69 72zM367 -273c41 0 69 -28 69 -72s-28 -71 -69 -71c-39 0 -68 27 -68 71s29 72 68 72z" />
    <glyph glyph-name="uni06D0.j" horiz-adv-x="1748" 
d="M14 88l1 2c89 -44 402 -172 873 -172c497 0 689 95 689 130c0 9 -8 16 -72 31l-109 26c-94 22 -122 59 -122 121c0 49 22 117 80 172c59 56 140 87 213 87c56 0 131 -30 147 -108l-75 -99c-28 61 -74 79 -115 79c-92 0 -141 -53 -141 -86c0 -11 8 -20 55 -31l135 -31
c79 -19 124 -45 124 -111c0 -188 -266 -322 -814 -322c-429 0 -727 108 -797 151zM1022 -471c39 0 67 -28 67 -72c0 -43 -28 -71 -67 -71c-40 0 -69 26 -69 71c0 44 28 72 69 72zM1020 -303c41 0 69 -28 69 -72s-28 -71 -69 -71c-39 0 -67 27 -67 71s28 72 67 72z" />
    <glyph glyph-name="uni06D0.fj" horiz-adv-x="1634" 
d="M18 -20c50 -34 450 -149 815 -149c371 0 608 54 671 97c16 11 29 22 29 32c0 14 -33 40 -110 40h-7l41 158h177c39 0 91 -18 91 -78c0 -37 -15 -80 -91 -80h-16c14 -14 17 -33 17 -47c0 -30 -12 -59 -45 -90c-98 -94 -362 -174 -770 -174c-273 0 -609 60 -732 134
l-72 155zM1021 -559c39 0 67 -28 67 -72c0 -43 -28 -70 -67 -70c-40 0 -69 25 -69 70c0 44 28 72 69 72zM1019 -391c41 0 69 -28 69 -72s-28 -71 -69 -71c-39 0 -67 27 -67 71s28 72 67 72z" />
    <glyph glyph-name="uni06CC" unicode="&#x6cc;" horiz-adv-x="732" 
d="M43 72c0 63 17 135 43 190l90 -9c-11 -49 -16 -81 -16 -120c0 -124 74 -182 198 -182c76 0 135 16 176 47c15 12 25 26 25 36c0 9 -16 21 -82 41l-50 16c-88 26 -112 65 -112 129c0 52 20 119 78 180c50 51 114 85 179 85c45 0 109 -24 125 -99l-74 -94
c-22 47 -68 59 -93 59c-69 0 -106 -56 -106 -82c0 -16 9 -26 55 -40l73 -23c76 -25 123 -54 123 -127c0 -76 -46 -135 -65 -155c-79 -81 -180 -114 -284 -114c-176 0 -283 97 -283 262z" />
    <glyph glyph-name="uni0674" unicode="&#x674;" horiz-adv-x="296" 
d="M20 730l6 67c11 7 31 12 43 13c-16 12 -33 28 -33 61c0 66 58 93 113 93c52 0 87 -15 102 -29l-20 -66c-19 15 -53 24 -75 24c-28 0 -47 -13 -47 -30c0 -25 27 -41 78 -41h80l-30 -73h-83c-55 0 -98 -4 -134 -19z" />
    <glyph glyph-name="uni0675" unicode="&#x675;" horiz-adv-x="384" 
d="M89 0l-30 725l123 9l30 -734h-123zM336 750c-55 0 -99 -4 -135 -19l7 67c11 6 30 12 43 13c-16 12 -34 28 -34 61c0 65 59 93 114 93c52 0 86 -16 101 -29l-19 -66c-19 14 -54 24 -75 24c-29 0 -47 -14 -47 -30c0 -25 27 -42 77 -42h80l-29 -72h-83z" />
    <glyph glyph-name="uni0676" unicode="&#x676;" horiz-adv-x="632" 
d="M525 612h80l-30 -73h-83c-55 0 -98 -4 -135 -19l7 68c11 6 30 11 43 12c-16 12 -34 28 -34 62c0 65 59 92 114 92c52 0 87 -15 102 -29l-20 -65c-19 14 -53 23 -75 23c-28 0 -47 -13 -47 -30c0 -25 27 -41 78 -41zM14 -161l20 96c20 -10 69 -27 137 -27
c101 0 181 58 216 141c-13 -1 -29 -2 -42 -2c-95 0 -208 53 -208 194c0 114 86 197 180 197c131 0 189 -139 189 -271c0 -54 -6 -103 -28 -163c-55 -152 -169 -231 -290 -231c-54 0 -131 17 -174 66zM236 264c0 -56 57 -75 115 -75c15 0 38 1 53 4c-14 95 -74 126 -108 126
c-48 0 -60 -35 -60 -55z" />
    <glyph glyph-name="uni0677" unicode="&#x677;" horiz-adv-x="632" 
d="M80 509l5 55c19 -6 48 -7 58 -7c34 0 64 10 77 24c-57 4 -98 34 -98 90c0 52 42 97 101 97c43 0 95 -37 95 -112c1 -110 -85 -165 -163 -164c-36 0 -64 9 -75 17zM525 612h80l-30 -73h-83c-55 0 -98 -4 -135 -19l7 68c11 6 30 11 43 12c-16 12 -34 28 -34 62
c0 65 59 92 114 92c52 0 87 -15 102 -29l-20 -65c-19 14 -53 23 -75 23c-28 0 -47 -13 -47 -30c0 -25 27 -41 78 -41zM179 677c0 -17 16 -43 78 -41c4 32 -11 67 -47 67c-17 0 -31 -10 -31 -26zM14 -161l20 96c20 -10 69 -27 137 -27c101 0 181 58 216 141
c-13 -1 -29 -2 -42 -2c-95 0 -208 53 -208 194c0 114 86 197 180 197c131 0 189 -139 189 -271c0 -54 -6 -103 -28 -163c-55 -152 -169 -231 -290 -231c-54 0 -131 17 -174 66zM236 264c0 -56 57 -75 115 -75c15 0 38 1 53 4c-14 95 -74 126 -108 126c-48 0 -60 -35 -60 -55
z" />
    <glyph glyph-name="uni0678" unicode="&#x678;" horiz-adv-x="882" 
d="M43 72c0 63 17 135 43 190l90 -9c-11 -49 -16 -81 -16 -120c0 -124 74 -182 198 -182c76 0 135 16 176 47c15 12 25 26 25 36c0 9 -16 21 -82 41l-50 16c-88 26 -112 65 -112 129c0 52 20 119 78 180c50 51 114 85 179 85c45 0 109 -24 125 -99l-74 -94
c-22 47 -68 59 -93 59c-69 0 -106 -56 -106 -82c0 -16 9 -26 55 -40l73 -23c76 -25 123 -54 123 -127c0 -76 -46 -135 -65 -155c-79 -81 -180 -114 -284 -114c-176 0 -283 97 -283 262zM761 573c-55 0 -99 -3 -135 -19l7 68c11 6 30 12 43 12c-16 12 -34 29 -34 62
c0 65 59 92 114 92c52 0 86 -15 102 -29l-20 -65c-19 14 -53 23 -75 23c-29 0 -47 -13 -47 -29c0 -25 27 -42 78 -42h79l-29 -73h-83z" />
    <glyph glyph-name="uni06D2" unicode="&#x6d2;" horiz-adv-x="1084" 
d="M48 166c0 70 32 133 102 181c29 20 70 40 103 69c32 25 64 70 91 106c35 49 59 67 100 67c79 0 126 -90 143 -181l-92 -62c-18 66 -40 90 -62 90c-8 0 -19 -7 -29 -22c-12 -18 -23 -38 -41 -61c-29 -42 -79 -74 -138 -101c-50 -25 -74 -41 -74 -58c0 -26 48 -35 204 -35
c246 0 541 17 714 28l-38 -153c-132 -12 -472 -31 -724 -31c-170 0 -259 45 -259 163z" />
    <glyph glyph-name="uni06D2.fa" horiz-adv-x="510" 
d="M510 0c-92 0 -148 5 -243 5c-94 0 -134 -31 -134 -68c0 -31 27 -53 143 -53c71 0 151 6 223 9l-34 -140c-53 -5 -123 -11 -195 -11c-168 0 -242 64 -242 179c0 52 22 103 42 131c45 65 127 109 262 109c68 0 143 -3 178 -3c40 0 92 -18 92 -78c0 -37 -16 -80 -92 -80z
" />
    <glyph glyph-name="uni06D3" unicode="&#x6d3;" horiz-adv-x="1084" 
d="M48 166c0 70 32 133 102 181c29 20 70 40 103 69c32 25 64 70 91 106c35 49 59 67 100 67c79 0 126 -90 143 -181l-92 -62c-18 66 -40 90 -62 90c-8 0 -19 -7 -29 -22c-12 -18 -23 -38 -41 -61c-29 -42 -79 -74 -138 -101c-50 -25 -74 -41 -74 -58c0 -26 48 -35 204 -35
c246 0 541 17 714 28l-38 -153c-132 -12 -472 -31 -724 -31c-170 0 -259 45 -259 163zM245 621c-55 0 -98 -4 -134 -19l6 68c11 6 31 11 43 12c-16 12 -33 28 -33 62c0 65 58 92 114 92c51 0 86 -15 101 -29l-19 -65c-20 14 -54 23 -76 23c-28 0 -47 -13 -47 -29
c0 -26 27 -42 78 -42h80l-30 -73h-83z" />
    <glyph glyph-name="uni06D3.fa" horiz-adv-x="510" 
d="M510 0c-92 0 -148 5 -243 5c-94 0 -134 -31 -134 -68c0 -31 27 -53 143 -53c71 0 151 6 223 9l-34 -140c-53 -5 -123 -11 -195 -11c-168 0 -242 64 -242 179c0 52 22 103 42 131c45 65 127 109 262 109c68 0 143 -3 178 -3c40 0 92 -18 92 -78c0 -37 -16 -80 -92 -80z
M305 284c-55 0 -99 -4 -135 -19l7 67c11 6 30 12 43 13c-16 12 -34 28 -34 61c0 65 59 93 114 93c52 0 86 -16 102 -29l-20 -66c-19 14 -53 24 -75 24c-29 0 -47 -14 -47 -30c0 -25 27 -42 77 -42h80l-29 -72h-83z" />
    <glyph glyph-name="uni0643.z" unicode="&#x6aa;" horiz-adv-x="1079" 
d="M80 10l-51 168c57 -16 172 -25 242 -25c280 0 502 25 649 36c-4 47 -43 77 -136 77c-53 0 -137 -4 -213 -10c-74 -4 -154 -10 -224 -10c-86 0 -183 9 -183 118c0 51 36 115 116 179c87 69 205 120 270 139l-32 -151c-78 -21 -159 -58 -201 -93c-20 -17 -32 -29 -32 -41
c0 -13 27 -18 60 -18c104 0 206 8 280 12c65 4 118 4 162 4c156 -1 238 -59 240 -217c1 -45 -12 -100 -22 -136c-151 -5 -460 -47 -721 -47c-59 0 -163 7 -204 15z" />
    <glyph glyph-name="uni066E" unicode="&#x66e;" horiz-adv-x="882" 
d="M43 260c0 57 12 109 26 141l86 -14c-3 -18 -7 -46 -7 -67c0 -133 86 -188 265 -188c153 0 253 17 308 37c1 5 1 7 1 11c-5 52 -26 133 -75 221l123 24c30 -55 67 -153 67 -260c0 -49 -7 -69 -15 -104c-115 -48 -258 -78 -423 -78c-275 0 -356 122 -356 277z" />
    <glyph glyph-name="uni066E.j" horiz-adv-x="1670" 
d="M88 39l-72 156l2 2c96 -43 471 -88 754 -88c376 0 663 31 732 57v16c-3 52 -21 141 -69 228l123 24c31 -55 67 -152 67 -260c0 -49 -5 -79 -12 -106c-112 -59 -441 -109 -840 -109c-359 0 -630 55 -685 80z" />
    <glyph glyph-name="uni066E.fj" horiz-adv-x="1669" 
d="M88 39l-72 155l3 3c96 -43 444 -88 752 -88c368 0 615 46 693 87c-2 10 -2 17 -2 29c0 28 4 50 11 69l95 8c-3 -16 -3 -33 -3 -44c-1 -72 44 -100 104 -100c40 0 92 -18 92 -78c0 -37 -16 -80 -92 -80c-86 0 -141 33 -171 79c-116 -69 -393 -119 -727 -120
c-356 0 -628 55 -683 80z" />
    <glyph glyph-name="uni06A1" unicode="&#x6a1;" horiz-adv-x="917" 
d="M73 422l88 -15c-8 -31 -13 -58 -13 -90c0 -136 108 -185 269 -185c138 0 262 19 339 43c1 6 3 12 4 17c-209 -10 -254 101 -254 171c0 37 13 94 60 141c40 44 94 60 126 60c84 0 181 -84 181 -287c0 -43 -9 -136 -38 -203c-99 -54 -276 -91 -430 -91
c-306 0 -362 158 -362 282c0 57 11 110 30 157zM610 379c0 -47 68 -61 154 -63c-9 76 -42 120 -88 120c-38 0 -66 -29 -66 -57z" />
    <glyph glyph-name="uni06A1.j" horiz-adv-x="1784" 
d="M16 198l3 4c134 -47 528 -94 825 -94c325 0 641 22 779 67c2 6 3 12 4 18c-213 -13 -254 99 -254 170c0 37 13 94 59 141c41 44 95 60 126 60c84 0 181 -84 181 -287c0 -43 -8 -138 -37 -203c-178 -85 -525 -115 -876 -116c-277 0 -667 46 -739 89zM1478 379
c0 -48 65 -61 152 -63c-9 76 -44 120 -88 120c-39 0 -64 -29 -64 -57z" />
    <glyph glyph-name="uni06A1.fj" horiz-adv-x="1807" 
d="M1790 158h17c40 0 92 -18 92 -78c0 -37 -16 -80 -92 -80h-10c-91 0 -177 20 -246 54c-135 -56 -364 -96 -751 -96c-269 0 -641 46 -713 89l-71 151l3 4c134 -47 492 -94 790 -94c289 0 491 10 623 35c-34 39 -53 83 -53 130c0 136 119 211 186 211c75 0 172 -66 172 -200
c0 -39 -8 -81 -36 -122c29 -3 60 -4 89 -4zM1483 281c0 -44 37 -74 90 -93c42 24 61 54 61 90c0 32 -29 77 -79 77c-40 0 -72 -33 -72 -74z" />
    <glyph glyph-name="uni066F" unicode="&#x66f;" horiz-adv-x="739" 
d="M83 301l88 -9c-10 -38 -16 -79 -16 -119c0 -127 74 -205 200 -205c73 0 159 21 210 76c3 2 8 6 13 26c-17 -2 -48 -3 -53 -3c-139 1 -206 75 -206 183c0 115 100 202 186 202c102 0 189 -106 189 -279c0 -69 -16 -158 -28 -177c-61 -105 -181 -173 -337 -173
c-161 0 -286 104 -286 298c0 70 20 140 40 180zM423 272c0 -32 38 -67 116 -67c10 0 30 1 45 2c-11 86 -56 123 -99 123c-39 0 -62 -25 -62 -58z" />
    <glyph glyph-name="uni066F.j" horiz-adv-x="1844" 
d="M15 68l3 5c134 -59 525 -156 906 -156c505 0 727 81 750 123c3 5 7 14 11 31c-18 -3 -42 -4 -59 -4c-95 0 -201 46 -201 188c0 106 82 197 184 197c131 0 191 -135 191 -276c0 -93 -20 -185 -34 -203c-88 -115 -369 -205 -848 -205c-395 0 -764 97 -833 142zM1528 273
c0 -42 44 -63 104 -63c14 0 40 1 58 2c-14 99 -68 119 -99 119c-46 0 -63 -34 -63 -58z" />
    <glyph glyph-name="uni066F.fj" horiz-adv-x="1781" 
d="M1711 158h70c39 0 91 -18 91 -78c0 -37 -15 -80 -91 -80h-76c-6 -34 -13 -61 -19 -73c-56 -114 -330 -222 -838 -222c-362 0 -694 93 -763 138l-70 158l3 5c105 -47 463 -151 841 -151c472 0 680 76 716 124c2 2 5 10 9 21h-3c-192 0 -247 99 -247 198
c0 119 87 207 186 207c64 0 173 -46 191 -247zM1584 158h13c-13 86 -56 125 -98 125c-38 0 -60 -25 -60 -54c0 -39 21 -71 145 -71z" />
    <glyph glyph-name="u06440627" horiz-adv-x="644" 
d="M29 48c109 12 197 32 257 63c-5 23 -19 52 -81 150c-61 96 -142 206 -207 290l111 83c51 -65 133 -179 193 -284c60 -103 78 -152 81 -192c37 25 66 60 58 224l-16 341l123 11l16 -344c9 -207 -27 -327 -177 -402c-57 -30 -183 -58 -294 -58h-14z" />
    <glyph glyph-name="u06440627.f" horiz-adv-x="643" 
d="M27 93c75 11 184 40 244 83c-5 16 -21 47 -57 103c-66 104 -143 189 -213 266l108 93c46 -53 101 -124 159 -213c63 -96 87 -150 95 -184c24 17 56 70 53 147l-12 337l124 9l14 -407c5 -130 25 -165 102 -169c39 0 91 -18 91 -78c0 -37 -15 -80 -92 -80
c-105 0 -183 47 -210 174c-48 -111 -182 -197 -346 -197h-12z" />
    <glyph glyph-name="u062D06D2" horiz-adv-x="763" 
d="M28 -97c0 76 46 136 121 191c98 72 225 124 324 151c-69 29 -141 54 -213 54c-43 0 -97 -6 -142 -25l26 136c34 18 88 23 129 23c101 0 181 -37 272 -76c80 -33 105 -40 141 -40h45l-21 -139h-8c-93 -1 -372 -93 -505 -188c-51 -36 -60 -56 -60 -74c0 -17 27 -28 141 -28
c318 0 644 22 847 41l-34 -139c-148 -22 -512 -44 -807 -44c-177 0 -256 58 -256 157z" />
    <glyph glyph-name="u062D06D2.f" horiz-adv-x="774" 
d="M706 200h-19c-8 0 -19 -1 -32 -4c17 -30 59 -38 119 -38c40 0 92 -18 92 -78c0 -37 -16 -80 -92 -80c-135 0 -201 57 -210 167c-120 -44 -283 -123 -363 -178c-41 -28 -65 -55 -64 -72c0 -17 27 -29 141 -29c318 0 684 22 888 41l-34 -139c-149 -22 -553 -44 -848 -44
c-177 0 -256 59 -256 157c0 75 48 136 123 191c92 67 216 122 313 153c-72 24 -134 52 -210 52c-42 0 -95 0 -141 -25l27 136c34 20 97 23 130 23c88 0 170 -24 261 -59c82 -30 122 -36 160 -36h35z" />
    <glyph glyph-name="u062D06D2.s" horiz-adv-x="763" 
d="M28 -97c0 76 46 136 121 191c98 72 225 124 324 151c-69 29 -141 54 -213 54c-43 0 -97 -6 -142 -25l26 136c34 18 88 23 129 23c101 0 181 -37 272 -76c80 -33 105 -40 141 -40h45l-21 -139h-8c-93 -1 -372 -93 -505 -188c-51 -36 -60 -56 -60 -74c0 -17 27 -28 141 -28
c238 0 490 16 649 29l-34 -139c-113 -17 -390 -32 -609 -32c-177 0 -256 58 -256 157z" />
    <glyph glyph-name="u062D06D2.fs" horiz-adv-x="774" 
d="M706 200h-19c-8 0 -19 -1 -32 -4c17 -30 59 -38 119 -38c40 0 92 -18 92 -78c0 -37 -16 -80 -92 -80c-135 0 -201 57 -210 167c-120 -44 -283 -123 -363 -178c-41 -28 -65 -55 -64 -72c0 -17 27 -29 141 -29c199 0 423 11 557 20l-33 -139c-88 -12 -335 -23 -518 -23
c-177 0 -256 59 -256 157c0 75 48 136 123 191c92 67 216 122 313 153c-72 24 -134 52 -210 52c-42 0 -95 0 -141 -25l27 136c34 20 97 23 130 23c88 0 170 -24 261 -59c82 -30 122 -36 160 -36h35z" />
    <glyph glyph-name="u06330631" horiz-adv-x="1182" 
d="M29 -140c33 -21 75 -35 131 -35c77 0 165 54 165 151c0 42 -48 171 -76 223c67 26 221 70 296 85l98 9c-3 -21 -4 -33 -4 -49c0 -63 36 -94 80 -94c46 0 79 28 96 108l102 4c-2 -12 -6 -29 -7 -43c-2 -50 24 -69 59 -69c29 0 62 17 62 52c0 42 -22 90 -37 127l120 28
c14 -35 24 -82 24 -137c0 -144 -79 -220 -179 -220c-67 0 -103 36 -119 69c-38 -54 -95 -69 -137 -69c-65 0 -143 33 -158 159c-25 -2 -103 -24 -138 -37c7 -23 21 -99 21 -149c0 -152 -101 -280 -260 -280c-60 0 -121 23 -154 65z" />
    <glyph glyph-name="u06330631.f" horiz-adv-x="1231" 
d="M29 -140c33 -21 75 -35 131 -35c77 0 165 56 165 147c0 49 -48 177 -76 228c64 23 221 69 297 84l98 9c-4 -22 -5 -33 -5 -49c0 -63 35 -94 79 -94c38 0 73 18 91 108l102 4c-3 -16 -5 -25 -7 -41c-5 -56 15 -71 44 -71c54 0 76 68 86 145l98 8c-2 -13 -3 -17 -3 -38
c-1 -66 18 -107 102 -107c40 0 92 -18 92 -78c0 -37 -15 -80 -92 -80c-62 0 -125 14 -158 87c-27 -54 -77 -87 -132 -87c-65 0 -93 32 -107 70c-29 -46 -71 -70 -131 -70c-65 0 -143 33 -158 159c-25 -2 -104 -22 -138 -36c7 -23 21 -100 21 -150
c0 -150 -101 -280 -260 -280c-60 0 -121 23 -154 65z" />
    <glyph glyph-name="u06330649" horiz-adv-x="1336" 
d="M43 -49c0 80 25 143 50 191l89 -13c-13 -39 -22 -84 -22 -117c0 -106 71 -177 209 -177c70 0 149 15 190 53c8 7 18 18 18 28c0 12 -15 20 -66 34l-39 10c-84 22 -126 46 -126 123c0 44 24 113 82 165c57 53 129 90 220 90c106 0 129 -55 138 -88c13 -47 28 -100 91 -100
c46 0 75 28 92 108l102 4c-2 -12 -6 -29 -6 -43c-3 -50 23 -69 58 -69c29 0 66 17 66 57c0 38 -25 92 -41 122l121 28c14 -35 23 -82 23 -137c0 -144 -77 -220 -177 -220c-67 0 -102 33 -121 69c-34 -48 -89 -69 -131 -69c-100 0 -136 58 -164 164c-5 22 -22 45 -77 45
c-122 0 -165 -61 -165 -87c0 -12 10 -20 56 -31l48 -11c94 -22 134 -44 134 -116c0 -87 -59 -143 -72 -155c-74 -75 -192 -108 -298 -108c-176 0 -282 94 -282 250z" />
    <glyph glyph-name="u06330649.j" horiz-adv-x="2335" 
d="M15 -36c121 -59 452 -177 867 -177c413 0 683 82 682 130c0 10 -16 18 -73 29l-93 18c-95 18 -126 65 -126 119c0 51 17 107 72 159c60 57 152 96 272 96c135 0 162 -58 174 -102c18 -62 41 -86 84 -86c46 0 76 28 93 108l102 4c-3 -12 -5 -29 -6 -43
c-3 -50 22 -70 57 -70c29 0 68 15 68 57c0 40 -26 92 -42 123l121 28c14 -35 23 -82 23 -137c0 -144 -78 -220 -178 -220c-66 0 -97 31 -119 69c-36 -46 -88 -69 -137 -69c-66 0 -129 30 -159 159c-7 25 -50 50 -114 50c-137 0 -199 -59 -199 -86c0 -13 11 -23 58 -31
l104 -19c94 -18 136 -49 136 -121c0 -182 -275 -307 -814 -307c-395 0 -705 114 -784 162l-70 155z" />
    <glyph glyph-name="u06330649.f" horiz-adv-x="1393" 
d="M43 -49c0 78 25 143 50 191l89 -13c-13 -39 -22 -84 -22 -117c0 -106 71 -177 209 -177c70 0 149 17 190 55c8 7 17 18 17 28c0 12 -23 20 -65 32l-39 10c-84 22 -126 46 -126 123c0 44 24 113 82 165c57 53 130 90 221 90c121 0 133 -65 135 -76c2 -9 5 -20 6 -26
c14 -61 43 -86 86 -86c46 0 76 28 93 108l102 4c-2 -12 -6 -29 -6 -43c-3 -50 9 -69 44 -69c54 0 75 68 85 145l98 8c-1 -13 -3 -17 -3 -38c-1 -66 19 -107 103 -107c39 0 92 -18 92 -78c0 -37 -16 -80 -92 -80c-63 0 -126 14 -158 87c-27 -54 -77 -87 -132 -87
c-67 0 -90 29 -108 69c-35 -46 -95 -69 -137 -69c-65 0 -136 36 -156 159c-1 3 -3 12 -4 14c-2 12 -23 35 -75 35c-121 3 -163 -60 -163 -86c0 -12 11 -20 57 -31l45 -11c94 -22 134 -44 134 -116c0 -87 -60 -144 -73 -156c-74 -75 -191 -107 -297 -107
c-176 0 -282 94 -282 250z" />
    <glyph glyph-name="u06330649.fj" horiz-adv-x="2390" 
d="M15 -36c121 -59 452 -177 867 -177c413 0 677 82 677 130c0 10 -11 18 -68 29l-93 18c-93 17 -126 59 -126 126c0 45 17 100 72 152c60 57 152 96 272 96c136 0 162 -58 174 -102c18 -62 41 -86 83 -86c46 0 77 28 94 108l102 4c-2 -12 -6 -29 -7 -43
c-2 -50 13 -70 46 -70c54 0 74 69 84 146l98 8c-2 -13 -3 -17 -3 -38c-1 -66 19 -107 103 -107c39 0 91 -18 91 -78c0 -37 -15 -80 -91 -80c-63 0 -126 14 -158 87c-27 -54 -76 -87 -131 -87c-66 0 -92 29 -109 69c-36 -49 -80 -69 -136 -69c-66 0 -129 30 -159 159
c-7 25 -49 50 -114 50c-137 0 -199 -59 -199 -86c0 -13 11 -23 58 -31l104 -19c94 -18 136 -47 136 -119c0 -184 -275 -309 -814 -309c-395 0 -705 114 -784 162l-70 155z" />
    <glyph glyph-name="u063306D2" horiz-adv-x="1005" 
d="M28 -120c0 80 48 148 122 197c49 34 108 61 152 88c45 28 81 61 106 104l103 4c-3 -13 -6 -24 -9 -44c-5 -46 4 -79 48 -79c46 0 73 34 86 112l103 4c-5 -19 -7 -31 -8 -45c-2 -53 25 -72 61 -72c29 0 65 20 65 56c0 43 -24 87 -40 123l121 29c14 -35 23 -82 23 -137
c0 -144 -80 -220 -180 -220c-68 0 -103 37 -120 69c-27 -46 -71 -69 -127 -69c-100 0 -122 86 -123 138c-12 -31 -31 -59 -78 -93c-35 -23 -61 -33 -118 -66c-47 -26 -81 -56 -81 -76c0 -17 30 -33 144 -33c341 0 896 22 1099 40l-33 -139c-149 -21 -737 -43 -1060 -43
c-177 0 -256 53 -256 152z" />
    <glyph glyph-name="u063306D2.f" horiz-adv-x="1058" 
d="M134 -96c0 -17 30 -34 144 -34c341 0 970 22 1174 41l-34 -139c-149 -22 -811 -44 -1134 -44c-177 0 -256 54 -256 152c0 82 48 148 122 198c49 33 108 60 152 87c45 28 81 61 106 104l103 5c-6 -20 -11 -40 -11 -63c0 -36 13 -61 49 -61c38 0 68 18 86 108l102 4
c-3 -16 -7 -35 -7 -57c0 -44 19 -55 44 -55c54 0 76 68 86 145l98 8c-3 -17 -3 -35 -3 -55c3 -55 26 -90 103 -90c39 0 91 -18 91 -78c0 -37 -15 -80 -91 -80c-63 0 -126 14 -158 87c-27 -54 -77 -87 -133 -87c-65 0 -93 32 -107 70c-29 -46 -69 -70 -129 -70
c-65 0 -115 37 -120 138c-12 -31 -31 -59 -78 -92c-35 -24 -61 -34 -118 -67c-47 -26 -81 -54 -81 -75z" />
    <glyph glyph-name="u063306D2.s" horiz-adv-x="1005" 
d="M28 -120c0 80 48 148 122 197c49 34 108 61 152 88c45 28 81 61 106 104l103 4c-3 -13 -6 -24 -9 -44c-5 -46 4 -79 48 -79c46 0 73 34 86 112l103 4c-5 -19 -7 -31 -8 -45c-2 -53 25 -72 61 -72c29 0 65 20 65 56c0 43 -24 87 -40 123l121 29c14 -35 23 -82 23 -137
c0 -144 -80 -220 -180 -220c-68 0 -103 37 -120 69c-27 -46 -71 -69 -127 -69c-100 0 -122 86 -123 138c-12 -31 -31 -59 -78 -93c-35 -23 -61 -33 -118 -66c-47 -26 -81 -56 -81 -76c0 -17 30 -33 144 -33c272 0 731 16 891 29l-34 -139c-117 -17 -599 -32 -851 -32
c-177 0 -256 53 -256 152z" />
    <glyph glyph-name="u063306D2.fs" horiz-adv-x="1058" 
d="M134 -96c0 -17 30 -34 144 -34c241 0 703 12 842 22l-34 -139c-111 -13 -571 -25 -802 -25c-177 0 -256 54 -256 152c0 82 48 148 122 198c49 33 108 60 152 87c45 28 81 61 106 104l103 5c-6 -20 -11 -40 -11 -63c0 -36 13 -61 49 -61c38 0 68 18 86 108l102 4
c-3 -16 -7 -35 -7 -57c0 -44 19 -55 44 -55c54 0 76 68 86 145l98 8c-3 -17 -3 -35 -3 -55c3 -55 26 -90 103 -90c39 0 91 -18 91 -78c0 -37 -15 -80 -91 -80c-63 0 -126 14 -158 87c-27 -54 -77 -87 -133 -87c-65 0 -93 32 -107 70c-29 -46 -69 -70 -129 -70
c-65 0 -115 37 -120 138c-12 -31 -31 -59 -78 -92c-35 -24 -61 -34 -118 -67c-47 -26 -81 -54 -81 -75z" />
    <glyph glyph-name="u06350631" horiz-adv-x="1323" 
d="M29 -140c33 -21 75 -35 131 -35c77 0 166 51 166 150c0 51 -49 171 -77 223c81 31 214 69 292 82l87 8c3 -67 31 -102 68 -116c82 126 220 263 371 263c144 0 214 -116 214 -207c0 -73 -46 -140 -132 -182c-57 -28 -143 -53 -292 -53c-188 0 -276 58 -317 165
c-27 -2 -100 -22 -133 -35c7 -23 21 -100 21 -150c0 -151 -101 -280 -260 -280c-60 0 -121 23 -154 65zM797 151c30 -3 58 -5 81 -5c76 0 159 7 198 18c54 13 102 34 102 64c0 28 -42 79 -126 79c-77 0 -177 -52 -255 -156z" />
    <glyph glyph-name="u06350631.f" horiz-adv-x="1356" 
d="M541 280l87 8c3 -67 31 -102 68 -116c82 126 220 263 371 263c144 0 214 -116 214 -207c0 -20 -4 -40 -11 -59c26 -7 71 -11 86 -11c39 0 91 -18 91 -78c0 -37 -15 -80 -91 -80h-16c-88 0 -144 24 -176 54c-5 -3 -10 -5 -15 -8c-57 -28 -143 -53 -292 -53
c-188 0 -276 58 -317 165c-27 -2 -100 -22 -133 -35c7 -23 21 -100 21 -150c0 -151 -101 -280 -260 -280c-60 0 -121 23 -154 65l15 102c33 -21 75 -35 131 -35c77 0 166 51 166 150c0 51 -49 171 -77 223c81 31 214 69 292 82zM1076 164c54 13 102 34 102 64
c0 28 -42 79 -126 79c-77 0 -177 -52 -255 -156c30 -3 58 -5 81 -5c76 0 159 7 198 18z" />
    <glyph glyph-name="u06350649" horiz-adv-x="1484" 
d="M43 -49c0 80 25 143 50 191l89 -13c-13 -39 -22 -84 -22 -117c0 -106 71 -177 209 -177c70 0 149 17 189 54c8 8 17 18 17 26c0 12 -22 21 -64 32l-39 11c-84 22 -126 46 -126 122c0 45 24 113 82 166s145 89 237 89c120 0 131 -65 137 -84c9 -28 25 -61 56 -75
c83 124 220 259 371 259c144 0 213 -117 213 -207c0 -73 -46 -140 -132 -182c-58 -28 -141 -53 -290 -53c-182 0 -262 55 -307 178c-7 20 -25 35 -74 35c-123 0 -181 -61 -181 -87c0 -11 12 -19 58 -31l45 -10c94 -23 134 -48 134 -120c0 -74 -57 -135 -72 -150
c-74 -75 -186 -107 -292 -107c-177 0 -288 94 -288 250zM955 153c30 -4 61 -7 84 -7c75 0 165 8 204 18c55 13 95 33 95 62c0 28 -34 81 -125 81c-70 0 -180 -51 -258 -154z" />
    <glyph glyph-name="u06350649.j" horiz-adv-x="2461" 
d="M15 -36c121 -59 452 -177 867 -177c419 0 682 82 681 128c0 10 -14 18 -72 29l-93 17c-93 18 -126 59 -126 126c0 46 21 98 76 150c60 56 164 98 295 98c121 0 130 -62 138 -86c8 -26 25 -61 56 -73c83 124 218 259 370 259c144 0 213 -117 213 -207
c0 -73 -46 -140 -132 -182c-58 -28 -141 -53 -290 -53c-182 0 -263 55 -307 176c-7 22 -25 37 -80 37c-137 0 -231 -62 -231 -89c0 -13 15 -18 62 -27l104 -20c95 -18 136 -52 136 -117c0 -175 -255 -308 -814 -308c-395 0 -705 114 -784 162l-70 155zM1934 153
c31 -4 68 -7 90 -7c76 0 150 8 189 18c54 13 104 34 104 64c0 28 -39 79 -126 79c-78 0 -179 -51 -257 -154z" />
    <glyph glyph-name="u06350649.f" horiz-adv-x="1507" 
d="M511 -53l-39 11c-84 22 -126 46 -126 122c0 45 24 113 82 166s145 89 237 89c120 0 131 -65 137 -84c9 -28 25 -61 56 -75c83 124 220 259 371 259c144 0 213 -117 213 -207c0 -21 -4 -41 -11 -60c25 -6 64 -10 76 -10c40 0 92 -18 92 -78c0 -37 -15 -80 -92 -80h-15
c-57 0 -134 24 -167 54c-5 -3 -10 -6 -15 -8c-58 -28 -141 -53 -290 -53c-182 0 -262 55 -307 178c-7 20 -25 35 -74 35c-123 0 -181 -61 -181 -87c0 -11 12 -19 58 -31l45 -10c94 -23 134 -48 134 -120c0 -74 -57 -135 -72 -150c-74 -75 -186 -107 -292 -107
c-177 0 -288 94 -288 250c0 80 25 143 50 191l89 -13c-13 -39 -22 -84 -22 -117c0 -106 71 -177 209 -177c70 0 149 17 189 54c8 8 17 18 17 26c0 12 -22 21 -64 32zM1243 164c55 13 95 33 95 62c0 28 -34 81 -125 81c-70 0 -180 -51 -258 -154c30 -4 61 -7 84 -7
c75 0 165 8 204 18z" />
    <glyph glyph-name="u06350649.fj" horiz-adv-x="2487" 
d="M1491 -56l-93 17c-93 18 -126 59 -126 126c0 46 21 98 76 150c60 56 164 98 295 98c121 0 130 -62 138 -86c8 -26 25 -61 56 -73c83 124 218 259 370 259c144 0 213 -117 213 -207c0 -20 -4 -40 -11 -59c25 -7 65 -11 78 -11c39 0 91 -18 91 -78c0 -37 -15 -80 -91 -80
h-16c-56 0 -135 24 -168 54c-5 -3 -10 -5 -15 -8c-58 -28 -141 -53 -290 -53c-182 0 -263 55 -307 176c-7 22 -25 37 -80 37c-137 0 -231 -62 -231 -89c0 -13 15 -18 62 -27l104 -20c95 -18 136 -52 136 -117c0 -175 -255 -308 -814 -308c-395 0 -705 114 -784 162l-70 155
l1 2c121 -59 452 -177 867 -177c419 0 682 82 681 128c0 10 -14 18 -72 29zM2213 164c54 13 104 34 104 64c0 28 -39 79 -126 79c-78 0 -179 -51 -257 -154c31 -4 68 -7 90 -7c76 0 150 8 189 18z" />
    <glyph glyph-name="u063506D2" horiz-adv-x="1198" 
d="M134 -96c0 -17 30 -34 144 -34c341 0 904 22 1108 41l-34 -139c-149 -22 -745 -44 -1068 -44c-177 0 -256 54 -256 153c0 81 47 145 125 199c45 32 101 57 146 84c47 28 84 59 109 105l104 5c-1 -62 22 -88 58 -102c82 125 220 263 371 263c144 0 214 -117 214 -207
c0 -73 -46 -140 -132 -182c-58 -28 -143 -53 -292 -53c-190 0 -274 48 -311 150c-11 -32 -50 -74 -96 -104c-37 -22 -72 -38 -115 -64s-75 -54 -75 -71zM673 152c30 -4 56 -6 84 -6c76 0 152 7 191 18c54 13 102 34 102 64c0 28 -35 79 -131 79c-70 0 -168 -53 -246 -155z
" />
    <glyph glyph-name="u063506D2.f" horiz-adv-x="1221" 
d="M1221 0h-16c-58 0 -135 24 -167 54c-5 -3 -10 -6 -15 -8c-58 -28 -143 -53 -292 -53c-189 0 -273 47 -311 149c-12 -32 -49 -73 -96 -103c-36 -21 -73 -40 -115 -64c-43 -24 -76 -51 -75 -69c0 -17 29 -36 144 -36c341 0 1056 24 1259 43l-33 -139
c-149 -22 -779 -46 -1220 -46c-179 0 -256 55 -256 153c0 85 47 145 125 199c45 32 101 57 146 84c47 28 84 71 109 105l104 5c-1 -62 22 -88 58 -102c82 125 220 263 371 263c144 0 214 -117 214 -207c0 -21 -4 -41 -11 -60c25 -6 62 -10 77 -10c39 0 91 -18 91 -78
c0 -37 -15 -80 -91 -80zM919 307c-70 0 -168 -53 -246 -155c30 -4 56 -6 84 -6c76 0 152 7 191 18c54 13 102 34 102 64c0 28 -35 79 -131 79z" />
    <glyph glyph-name="u063506D2.s" horiz-adv-x="1198" 
d="M134 -96c0 -17 30 -34 144 -34c341 0 880 22 1084 41l-34 -139c-149 -22 -721 -44 -1044 -44c-177 0 -256 54 -256 153c0 81 47 145 125 199c45 32 101 57 146 84c47 28 84 59 109 105l104 5c-1 -62 22 -88 58 -102c82 125 220 263 371 263c144 0 214 -117 214 -207
c0 -73 -46 -140 -132 -182c-58 -28 -143 -53 -292 -53c-190 0 -274 48 -311 150c-11 -32 -50 -74 -96 -104c-37 -22 -72 -38 -115 -64s-75 -54 -75 -71zM673 152c30 -4 56 -6 84 -6c76 0 152 7 191 18c54 13 102 34 102 64c0 28 -35 79 -131 79c-70 0 -168 -53 -246 -155z
" />
    <glyph glyph-name="u063506D2.fs" horiz-adv-x="1221" 
d="M1221 0h-16c-58 0 -135 24 -167 54c-5 -3 -10 -6 -15 -8c-58 -28 -143 -53 -292 -53c-189 0 -273 47 -311 149c-12 -32 -49 -73 -96 -103c-36 -21 -73 -40 -115 -64c-43 -24 -76 -51 -75 -69c0 -17 29 -36 144 -36c278 0 848 15 1004 29l-34 -139
c-124 -17 -618 -32 -964 -32c-179 0 -256 55 -256 153c0 85 47 145 125 199c45 32 101 57 146 84c47 28 84 71 109 105l104 5c-1 -62 22 -88 58 -102c82 125 220 263 371 263c144 0 214 -117 214 -207c0 -21 -4 -41 -11 -60c25 -6 62 -10 77 -10c39 0 91 -18 91 -78
c0 -37 -15 -80 -91 -80zM919 307c-70 0 -168 -53 -246 -155c30 -4 56 -6 84 -6c76 0 152 7 191 18c54 13 102 34 102 64c0 28 -35 79 -131 79z" />
    <glyph glyph-name="u063706D2" horiz-adv-x="972" 
d="M450 157h37c132 0 245 9 278 21c36 12 58 29 58 55c0 29 -38 74 -127 74c-73 0 -167 -48 -246 -150zM29 -119v8c0 40 14 102 63 150c44 44 114 83 222 104c8 12 13 26 18 41c8 28 5 76 3 116l-19 425l123 9l11 -279c4 -86 2 -139 -1 -164c71 86 171 144 267 144
c136 0 212 -108 212 -206c0 -60 -22 -140 -133 -186c-65 -28 -197 -43 -414 -43c-199 -1 -244 -61 -245 -86c0 -17 27 -44 143 -44c341 0 727 22 931 41l-34 -139c-148 -22 -569 -44 -892 -44c-178 0 -255 54 -255 153z" />
    <glyph glyph-name="u063706D2.f" horiz-adv-x="994" 
d="M994 0h-16c-64 0 -133 21 -166 50c-6 -2 -11 -5 -17 -7c-65 -28 -197 -43 -414 -43c-199 -1 -244 -62 -244 -86c0 -23 26 -44 142 -44c341 0 869 30 1072 49l-33 -139c-149 -22 -608 -52 -1034 -52c-178 0 -255 55 -255 159c0 40 14 104 63 152c44 44 114 83 222 104
c8 12 13 26 18 41c8 28 5 76 3 116l-19 425l123 9l11 -279c4 -86 2 -139 -1 -164c71 86 171 144 267 144c136 0 212 -108 212 -206c0 -19 -2 -40 -9 -61c24 -9 60 -10 75 -10c40 0 92 -18 92 -78c0 -37 -16 -80 -92 -80zM450 157h37c132 0 245 9 278 21c36 12 58 29 58 55
c0 29 -38 74 -127 74c-73 0 -167 -48 -246 -150z" />
    <glyph glyph-name="u063706D2.s" horiz-adv-x="972" 
d="M450 157h37c132 0 245 9 278 21c36 12 58 29 58 55c0 29 -38 74 -127 74c-73 0 -167 -48 -246 -150zM29 -119v8c0 40 14 102 63 150c44 44 114 83 222 104c8 12 13 26 18 41c8 28 5 76 3 116l-19 425l123 9l11 -279c4 -86 2 -139 -1 -164c71 86 171 144 267 144
c136 0 212 -108 212 -206c0 -60 -22 -140 -133 -186c-65 -28 -197 -43 -414 -43c-199 -1 -244 -61 -245 -86c0 -17 27 -44 143 -44c314 0 668 21 857 39l-34 -139c-136 -21 -522 -42 -818 -42c-178 0 -255 54 -255 153z" />
    <glyph glyph-name="u063706D2.fs" horiz-adv-x="994" 
d="M994 0h-16c-64 0 -133 21 -166 50c-6 -2 -11 -5 -17 -7c-65 -28 -197 -43 -414 -43c-199 -1 -244 -62 -244 -86c0 -23 26 -44 142 -44c245 0 629 18 774 29l-33 -139c-105 -13 -431 -32 -736 -32c-178 0 -255 55 -255 159c0 40 14 104 63 152c44 44 114 83 222 104
c8 12 13 26 18 41c8 28 5 76 3 116l-19 425l123 9l11 -279c4 -86 2 -139 -1 -164c71 86 171 144 267 144c136 0 212 -108 212 -206c0 -19 -2 -40 -9 -61c24 -9 60 -10 75 -10c40 0 92 -18 92 -78c0 -37 -16 -80 -92 -80zM450 157h37c132 0 245 9 278 21c36 12 58 29 58 55
c0 29 -38 74 -127 74c-73 0 -167 -48 -246 -150z" />
    <glyph glyph-name="u063906D2" horiz-adv-x="687" 
d="M131 -87c0 -19 32 -43 147 -43c341 0 654 22 858 41l-34 -139c-149 -22 -495 -44 -818 -44c-179 0 -256 54 -256 154c0 49 18 103 61 147c40 42 103 81 208 118c-26 25 -57 76 -57 130c0 113 99 203 220 203c56 0 99 -14 127 -34l13 -117c-32 17 -85 21 -130 21
c-77 0 -126 -44 -126 -72c0 -52 104 -81 141 -81c38 4 102 18 176 33l-35 -151c-86 -15 -184 -35 -293 -58c-75 -16 -129 -38 -158 -56c-35 -21 -44 -40 -44 -52z" />
    <glyph glyph-name="u063906D2.f" horiz-adv-x="816" 
d="M816 0h-22c-100 0 -192 27 -272 71c-72 -31 -158 -60 -253 -88c-103 -30 -138 -57 -138 -75c0 -22 32 -38 147 -38c350 0 746 25 950 44l-34 -139c-149 -22 -581 -47 -910 -47c-179 0 -256 52 -256 152c0 124 112 186 229 227c51 18 100 35 146 50
c-45 42 -81 89 -109 138c-20 -7 -40 -15 -58 -23l-17 113c55 27 159 64 288 64c217 0 243 -95 243 -148c0 -52 -24 -96 -67 -135c39 -5 81 -8 124 -8h9c39 0 91 -18 91 -78c0 -37 -15 -80 -91 -80zM400 321c31 -50 78 -88 136 -114c68 28 111 53 111 77c0 18 -34 46 -147 46
c-30 0 -64 -3 -100 -9z" />
    <glyph glyph-name="u063906D2.s" horiz-adv-x="687" 
d="M131 -87c0 -19 32 -43 147 -43c227 0 431 12 573 21l-34 -139c-101 -13 -320 -24 -533 -24c-179 0 -256 54 -256 154c0 49 18 103 61 147c40 42 103 81 208 118c-26 25 -57 76 -57 130c0 113 99 203 220 203c56 0 99 -14 127 -34l13 -117c-32 17 -85 21 -130 21
c-77 0 -126 -44 -126 -72c0 -52 104 -81 141 -81c38 4 102 18 176 33l-35 -151c-86 -15 -184 -35 -293 -58c-75 -16 -129 -38 -158 -56c-35 -21 -44 -40 -44 -52z" />
    <glyph glyph-name="u063906D2.fs" horiz-adv-x="816" 
d="M816 0h-22c-100 0 -192 27 -272 71c-72 -31 -158 -60 -253 -88c-103 -30 -138 -57 -138 -75c0 -22 32 -38 147 -38c231 0 463 10 597 20l-33 -139c-87 -11 -348 -23 -558 -23c-179 0 -256 52 -256 152c0 124 112 186 229 227c51 18 100 35 146 50c-45 42 -81 89 -109 138
c-20 -7 -40 -15 -58 -23l-17 113c55 27 159 64 288 64c217 0 243 -95 243 -148c0 -52 -24 -96 -67 -135c39 -5 81 -8 124 -8h9c39 0 91 -18 91 -78c0 -37 -15 -80 -91 -80zM400 321c31 -50 78 -88 136 -114c68 28 111 53 111 77c0 18 -34 46 -147 46c-30 0 -64 -3 -100 -9z
" />
    <glyph glyph-name="u06A10649" horiz-adv-x="711" 
d="M43 14c0 48 15 126 43 175l87 -14c-8 -32 -19 -66 -19 -122c0 -84 53 -172 201 -172c106 0 169 30 198 60c13 12 23 28 23 39c0 22 -28 33 -111 33h-98l45 146h15c49 0 81 24 90 46c-194 -6 -228 111 -228 182c0 88 71 184 179 184c130 0 183 -123 183 -238
c0 -72 -13 -128 -68 -195c38 -17 93 -63 93 -143c0 -40 -10 -74 -27 -101c-54 -88 -172 -154 -320 -154c-185 0 -286 104 -286 274zM391 399c0 -33 25 -75 150 -72c-2 86 -40 128 -91 128c-36 0 -59 -30 -59 -56z" />
    <glyph glyph-name="u06A10649.j" horiz-adv-x="1668" 
d="M16 2c70 -43 416 -171 818 -171c377 0 600 63 660 107c23 16 35 34 35 43c0 23 -29 32 -112 32h-91l44 146h16c49 0 80 24 89 46c-195 -6 -228 107 -228 178c0 88 71 188 180 188c130 0 182 -123 182 -238c0 -72 -13 -129 -68 -196c48 -24 93 -73 93 -140
c0 -54 -20 -86 -47 -119c-80 -96 -329 -189 -766 -189c-346 0 -613 86 -738 152l-69 158zM1349 399c0 -33 24 -76 150 -72c-2 86 -40 128 -91 128c-37 0 -59 -31 -59 -56z" />
    <glyph glyph-name="u06A106D2" horiz-adv-x="646" 
d="M330 413c0 -49 83 -71 159 -64c-1 43 -34 121 -96 121c-36 0 -63 -29 -63 -57zM28 -118c0 57 29 133 152 188c90 41 174 68 237 94c53 23 66 41 67 54c-201 -10 -255 106 -255 179c0 38 12 98 58 144c41 44 83 57 115 57c84 0 192 -85 192 -300
c0 -145 -25 -207 -181 -269c-49 -21 -88 -32 -146 -51c-100 -32 -131 -55 -132 -72c0 -19 28 -36 143 -36c318 0 603 19 807 38l-34 -139c-149 -22 -417 -41 -767 -41c-179 0 -256 54 -256 154z" />
    <glyph glyph-name="u06A106D2.f" horiz-adv-x="684" 
d="M684 0h-29c-77 0 -156 19 -223 51c-47 -26 -100 -48 -159 -67c-103 -33 -137 -64 -137 -81c0 -19 27 -33 142 -33c318 0 606 19 809 38l-34 -139c-148 -22 -419 -41 -769 -41c-179 0 -256 53 -256 153c0 57 34 138 182 198c37 15 77 30 115 45c-43 42 -69 92 -69 147
c0 131 116 213 193 213c73 0 165 -68 165 -204c0 -41 -16 -81 -44 -118c32 -3 65 -4 96 -4h18c40 0 92 -18 92 -78c0 -37 -15 -80 -92 -80zM361 276c0 -44 35 -73 86 -91c36 26 60 54 60 87c0 37 -28 83 -70 83c-39 0 -76 -40 -76 -79z" />
    <glyph glyph-name="u06A106D2.s" horiz-adv-x="646" 
d="M330 413c0 -49 83 -71 159 -64c-1 43 -34 121 -96 121c-36 0 -63 -29 -63 -57zM28 -118c0 57 29 133 152 188c90 41 174 68 237 94c53 23 66 41 67 54c-201 -10 -255 106 -255 179c0 38 12 98 58 144c41 44 83 57 115 57c84 0 192 -85 192 -300
c0 -145 -25 -207 -181 -269c-49 -21 -88 -32 -146 -51c-100 -32 -131 -55 -132 -72c0 -19 28 -36 143 -36c213 0 392 12 531 22l-33 -139c-103 -12 -251 -25 -492 -25c-179 0 -256 54 -256 154z" />
    <glyph glyph-name="u06A106D2.fs" horiz-adv-x="684" 
d="M684 0h-29c-77 0 -156 19 -223 51c-47 -26 -100 -48 -159 -67c-103 -33 -137 -64 -137 -81c0 -19 27 -33 142 -33c181 0 347 9 467 17l-34 -139c-87 -11 -221 -20 -427 -20c-179 0 -256 53 -256 153c0 57 34 138 182 198c37 15 77 30 115 45c-43 42 -69 92 -69 147
c0 131 116 213 193 213c73 0 165 -68 165 -204c0 -41 -16 -81 -44 -118c32 -3 65 -4 96 -4h18c40 0 92 -18 92 -78c0 -37 -15 -80 -92 -80zM361 276c0 -44 35 -73 86 -91c36 26 60 54 60 87c0 37 -28 83 -70 83c-39 0 -76 -40 -76 -79z" />
    <glyph glyph-name="u06430649" horiz-adv-x="753" 
d="M43 14c0 48 12 111 37 158l86 -14c-9 -36 -15 -73 -15 -105c0 -84 56 -172 204 -172c102 0 173 31 205 62c11 11 19 23 19 33c0 22 -25 37 -108 37h-104l48 157h23c118 0 154 12 154 31c0 13 -12 36 -43 66c-41 43 -125 104 -193 140c3 52 10 129 18 149c3 8 11 15 44 32
c80 44 214 105 357 145l-35 -145c-74 -16 -212 -68 -274 -102c35 -23 95 -68 122 -94c89 -81 108 -124 108 -180c0 -66 -44 -103 -69 -118c23 -16 49 -53 49 -102c0 -40 -10 -73 -27 -101c-53 -85 -169 -151 -320 -151c-185 0 -286 104 -286 274z" />
    <glyph glyph-name="u06430649.j" horiz-adv-x="1713" 
d="M17 -1c48 -35 448 -168 827 -168c384 0 597 63 658 110c22 17 33 32 33 41c0 23 -14 31 -97 31h-109l45 157h23c117 0 155 9 155 31c1 14 -11 34 -44 65c-40 43 -124 104 -191 140c3 52 10 130 18 150c3 8 11 15 43 32c80 44 214 105 357 145l-34 -145
c-74 -16 -212 -68 -274 -102c35 -23 91 -68 119 -94c89 -82 111 -122 111 -179c0 -65 -44 -105 -68 -119c20 -16 47 -47 47 -96c0 -48 -18 -83 -49 -116c-83 -92 -297 -193 -752 -193c-342 0 -643 89 -751 149l-69 158z" />
    <glyph glyph-name="u06430649.f" horiz-adv-x="895" 
d="M43 14c0 48 12 111 37 158l90 -14c-10 -36 -16 -73 -16 -105c0 -84 53 -172 201 -172c102 0 165 28 197 59c11 11 19 26 19 36c0 22 -19 37 -102 37h-102l42 157h79c103 0 108 20 108 32c0 8 -4 20 -33 53c-39 46 -97 99 -168 150c2 49 7 124 19 151c5 9 18 18 50 36
c76 42 204 100 351 139l-32 -143c-76 -17 -198 -63 -281 -107c74 -62 147 -136 250 -252c60 -71 115 -71 143 -71c39 0 92 -18 92 -78c0 -37 -16 -80 -92 -80c-72 0 -135 19 -218 123c-7 -16 -28 -31 -40 -35c25 -26 39 -59 39 -99c0 -41 -11 -71 -27 -98
c-54 -86 -169 -151 -320 -151c-185 0 -286 104 -286 274z" />
    <glyph glyph-name="u06430649.fj" horiz-adv-x="1854" 
d="M17 -1c48 -35 448 -168 827 -168c384 0 587 65 650 109c22 15 36 33 36 42c0 19 -20 31 -103 31h-103l45 157h59c114 0 133 19 133 31c0 10 -6 21 -35 54c-38 44 -102 107 -172 158c2 48 7 116 19 143c5 9 18 18 50 36c75 42 204 100 350 139l-31 -143
c-76 -17 -197 -63 -281 -107c74 -62 145 -137 250 -252c48 -57 87 -71 143 -71c39 0 91 -18 91 -78c0 -37 -15 -80 -91 -80c-73 0 -133 14 -218 123c-7 -17 -32 -33 -39 -35c27 -23 38 -57 39 -90c0 -48 -18 -83 -49 -116c-83 -92 -297 -193 -752 -193
c-342 0 -643 89 -751 149l-69 158z" />
    <glyph glyph-name="u064306D2" horiz-adv-x="531" 
d="M272 -267c-168 0 -244 46 -244 145c0 60 31 117 70 152c55 48 136 81 221 118c34 15 61 27 62 44c-1 42 -91 135 -238 216c0 33 8 123 18 150c3 8 14 15 31 25c77 43 226 113 369 150l-33 -148c-73 -17 -210 -68 -271 -102c99 -71 227 -160 227 -287
c0 -77 -40 -134 -136 -175c-23 -10 -91 -35 -143 -59c-44 -20 -74 -37 -74 -56c0 -18 31 -31 145 -31c308 0 490 12 693 30l-33 -139c-149 -22 -309 -33 -664 -33z" />
    <glyph glyph-name="u064306D2.f" horiz-adv-x="644" 
d="M270 -267c-168 0 -242 47 -242 146c0 59 29 113 69 147c55 49 137 81 222 118c38 16 64 34 65 51c0 12 -18 36 -41 67c-51 63 -107 112 -144 142c0 17 10 131 17 148c2 7 6 15 39 33c92 49 263 113 391 146l-31 -147c-63 -15 -240 -69 -314 -107
c91 -78 149 -150 237 -262c38 -51 71 -55 106 -57c40 0 92 -18 92 -78c0 -37 -16 -80 -92 -80c-74 2 -120 13 -191 103c-16 -32 -54 -56 -105 -78c-23 -10 -92 -34 -143 -58c-45 -21 -74 -39 -74 -58s29 -34 143 -34c308 0 558 13 762 31l-34 -139
c-149 -22 -377 -34 -732 -34z" />
    <glyph glyph-name="u064306D2.s" horiz-adv-x="531" 
d="M272 -267c-168 0 -244 46 -244 145c0 60 31 117 70 152c55 48 136 81 221 118c34 15 61 27 62 44c-1 42 -91 135 -238 216c0 33 8 123 18 150c3 8 14 15 31 25c77 43 226 113 369 150l-33 -148c-73 -17 -210 -68 -271 -102c99 -71 227 -160 227 -287
c0 -77 -40 -134 -136 -175c-23 -10 -91 -35 -143 -59c-44 -20 -74 -37 -74 -56c0 -18 31 -31 145 -31c188 0 296 6 418 12l-34 -139c-90 -9 -176 -15 -388 -15z" />
    <glyph glyph-name="u064306D2.fs" horiz-adv-x="644" 
d="M270 -267c-168 0 -242 47 -242 146c0 59 29 113 69 147c55 49 137 81 222 118c38 16 64 34 65 51c0 12 -18 36 -41 67c-51 63 -107 112 -144 142c0 17 10 131 17 148c2 7 6 15 39 33c92 49 263 113 391 146l-31 -147c-63 -15 -240 -69 -314 -107
c91 -78 149 -150 237 -262c38 -51 71 -55 106 -57c40 0 92 -18 92 -78c0 -37 -16 -80 -92 -80c-74 2 -120 13 -191 103c-16 -32 -54 -56 -105 -78c-23 -10 -92 -34 -143 -58c-45 -21 -74 -39 -74 -58s29 -34 143 -34c172 0 317 5 424 11l-34 -139c-84 -9 -208 -14 -394 -14z
" />
    <glyph glyph-name="u06440649" horiz-adv-x="729" 
d="M43 6c0 48 16 126 43 175l88 -14c-8 -33 -18 -67 -18 -122c0 -85 51 -172 200 -172c90 0 180 29 217 62c15 14 26 26 26 37c0 20 -22 28 -89 28h-140l41 158c77 0 95 30 91 118l-20 449l124 9l18 -430c4 -84 -10 -132 -40 -157c76 -22 120 -73 120 -147
c0 -33 -8 -79 -39 -121c-64 -89 -192 -147 -336 -147c-185 0 -286 104 -286 274z" />
    <glyph glyph-name="u06440649.j" horiz-adv-x="1662" 
d="M17 -4c48 -34 414 -171 827 -171c371 0 598 60 655 106c22 18 28 35 28 45c0 17 -34 24 -101 24h-122l41 158c78 0 93 30 90 118l-20 449l124 9l18 -430c4 -84 -10 -132 -40 -158c72 -21 120 -65 120 -147c0 -52 -21 -94 -48 -127c-79 -94 -309 -189 -758 -189
c-341 0 -628 87 -747 152l-69 158z" />
    <glyph glyph-name="u06440649.f" horiz-adv-x="930" 
d="M43 6c0 48 16 126 43 175l88 -14c-8 -33 -18 -67 -18 -122c0 -85 51 -172 200 -172c90 0 168 23 203 56c15 14 26 30 26 43c0 21 -32 28 -100 28h-51l40 158h98c117 0 139 27 134 142l-18 425l124 9l18 -441c3 -98 30 -130 100 -135c39 0 91 -18 91 -78
c0 -37 -15 -80 -91 -80c-78 0 -132 30 -165 94c-16 -42 -46 -70 -87 -83c5 -8 8 -29 8 -43c0 -18 -9 -65 -36 -100c-65 -88 -177 -136 -321 -136c-185 0 -286 104 -286 274z" />
    <glyph glyph-name="u06440649.fj" horiz-adv-x="1872" 
d="M17 -7c51 -34 417 -168 813 -168c416 0 608 60 667 106c22 18 28 36 28 44c0 19 -19 25 -91 25h-57l39 158h99c117 0 139 30 134 142l-17 425l123 9l17 -441c4 -98 29 -130 100 -135c40 0 92 -18 92 -78c0 -37 -15 -80 -92 -80c-75 0 -131 30 -164 94
c-12 -37 -44 -67 -80 -81c4 -5 7 -16 7 -25c0 -48 -18 -82 -45 -115c-81 -94 -312 -190 -772 -190c-295 0 -615 79 -734 149l-69 158z" />
    <glyph glyph-name="u064406D2" horiz-adv-x="517" 
d="M264 -267c-173 0 -236 49 -236 146c0 42 12 93 66 142c28 25 70 52 124 76c97 43 100 66 98 124l-23 504l123 9l23 -492c7 -144 -24 -185 -164 -248c-23 -11 -52 -22 -75 -35c-39 -19 -69 -37 -69 -52c0 -16 24 -32 134 -32c249 0 399 9 603 27l-34 -139
c-109 -18 -283 -30 -570 -30z" />
    <glyph glyph-name="u064406D2.f" horiz-adv-x="537" 
d="M263 -267c-173 0 -235 49 -235 146c0 42 9 90 68 142c25 23 68 50 122 76c94 45 102 63 96 200l-17 428l122 9l17 -440c4 -104 32 -131 100 -136c39 0 91 -18 91 -78c0 -36 -15 -80 -91 -80c-71 0 -125 21 -164 93c-13 -52 -57 -80 -101 -101c-24 -11 -48 -20 -71 -33
c-39 -19 -69 -36 -69 -54c0 -15 23 -30 133 -30c249 0 460 11 663 29l-33 -139c-109 -18 -344 -32 -631 -32z" />
    <glyph glyph-name="u064406D2.s" horiz-adv-x="517" 
d="M264 -267c-173 0 -236 49 -236 146c0 42 12 93 66 142c28 25 70 52 124 76c97 43 100 66 98 124l-23 504l123 9l23 -492c7 -144 -24 -185 -164 -248c-23 -11 -52 -22 -75 -35c-39 -19 -69 -37 -69 -52c0 -16 24 -32 134 -32c178 0 273 6 415 16l-33 -139
c-76 -12 -193 -19 -383 -19z" />
    <glyph glyph-name="u064406D2.fs" horiz-adv-x="537" 
d="M263 -267c-173 0 -235 49 -235 146c0 42 9 90 68 142c25 23 68 50 122 76c94 45 102 63 96 200l-17 428l122 9l17 -440c4 -104 32 -131 100 -136c39 0 91 -18 91 -78c0 -36 -15 -80 -91 -80c-71 0 -125 21 -164 93c-13 -52 -57 -80 -101 -101c-24 -11 -48 -20 -71 -33
c-39 -19 -69 -36 -69 -54c0 -15 23 -30 133 -30c119 0 226 1 328 7l-34 -139c-47 -7 -157 -10 -295 -10z" />
    <glyph glyph-name="u0645406D2" horiz-adv-x="794" 
d="M484 248c32 -27 91 -46 124 -46c23 0 38 18 38 39c0 43 -39 84 -83 84c-31 0 -60 -17 -79 -77zM207 105c101 47 147 75 178 165c45 133 97 184 186 184c106 0 178 -119 178 -220c0 -97 -44 -184 -136 -184c-63 0 -129 27 -190 66c-18 -54 -93 -93 -156 -121
c-61 -27 -136 -65 -136 -88c0 -17 33 -32 147 -32c318 0 628 21 831 40l-33 -139c-149 -22 -497 -43 -792 -43c-177 0 -256 49 -256 147c0 60 27 154 179 225z" />
    <glyph glyph-name="u064506D2.f" horiz-adv-x="821" 
d="M1213 -133l-34 -139c-149 -22 -513 -49 -895 -49c-177 0 -256 49 -256 147c0 60 27 146 179 217c101 47 147 76 178 166c45 132 97 183 186 183c92 0 158 -89 174 -178c28 -54 53 -56 76 -56c40 0 92 -18 92 -78c0 -37 -16 -80 -92 -80c-37 0 -79 15 -102 49
c-22 -37 -58 -61 -106 -61c-63 0 -129 27 -190 66c-18 -54 -101 -96 -156 -121c-61 -26 -136 -57 -136 -80c0 -17 33 -32 147 -32c318 0 731 27 935 46zM563 263c-31 0 -60 -16 -79 -76c32 -27 91 -47 124 -47c23 0 38 18 38 40c0 42 -39 83 -83 83z" />
    <glyph glyph-name="u064506D2.s" horiz-adv-x="794" 
d="M484 248c32 -27 91 -46 124 -46c23 0 38 18 38 39c0 43 -39 84 -83 84c-31 0 -60 -17 -79 -77zM207 105c101 47 147 75 178 165c45 133 97 184 186 184c106 0 178 -119 178 -220c0 -97 -44 -184 -136 -184c-63 0 -129 27 -190 66c-18 -54 -93 -93 -156 -121
c-61 -27 -136 -65 -136 -88c0 -17 33 -32 147 -32c257 0 511 16 679 29l-33 -139c-123 -16 -406 -32 -640 -32c-177 0 -256 49 -256 147c0 60 27 154 179 225z" />
    <glyph glyph-name="u064506D2.fs" horiz-adv-x="821" 
d="M868 -159l-33 -139c-85 -9 -313 -23 -551 -23c-177 0 -256 49 -256 147c0 60 27 146 179 217c101 47 147 76 178 166c45 132 97 183 186 183c92 0 158 -89 174 -178c28 -54 53 -56 76 -56c40 0 92 -18 92 -78c0 -37 -16 -80 -92 -80c-37 0 -79 15 -102 49
c-22 -37 -58 -61 -106 -61c-63 0 -129 27 -190 66c-18 -54 -101 -96 -156 -121c-61 -26 -136 -57 -136 -80c0 -17 33 -32 147 -32c208 0 456 12 590 20zM563 263c-31 0 -60 -16 -79 -76c32 -27 91 -47 124 -47c23 0 38 18 38 40c0 42 -39 83 -83 83z" />
    <glyph glyph-name="u0647406D2" horiz-adv-x="824" 
d="M323 523l65 106c54 -34 168 -104 237 -157c108 -82 157 -152 157 -247c0 -117 -102 -201 -224 -201c-51 0 -98 11 -140 30c-50 -33 -109 -64 -172 -93c-48 -23 -108 -57 -108 -80c0 -20 26 -34 140 -34c318 0 628 21 831 40l-33 -139c-149 -21 -506 -43 -801 -43
c-177 0 -247 48 -247 147c0 126 118 195 177 227c37 21 71 39 100 57c-44 48 -70 106 -70 160c0 91 52 156 122 200zM347 324c0 -49 27 -88 68 -116c47 40 70 81 70 140c0 51 -28 78 -56 78c-39 0 -82 -43 -82 -102zM674 229c0 48 -40 100 -87 136c4 -15 5 -25 5 -39
c0 -62 -19 -115 -52 -160c10 -1 21 -2 31 -2c65 0 103 22 103 65z" />
    <glyph glyph-name="u064706D2.f" horiz-adv-x="849" 
d="M849 0h-5c-64 0 -119 25 -148 66c-38 -26 -86 -41 -138 -41c-51 0 -98 11 -140 30c-50 -34 -109 -64 -172 -94c-48 -23 -108 -57 -108 -80c0 -19 26 -33 140 -33c318 0 759 30 963 48l-34 -139c-149 -21 -574 -52 -932 -52c-176 0 -247 49 -247 148
c0 126 118 194 177 227c37 21 71 39 100 56c-44 49 -70 107 -70 161c0 91 52 156 122 200l-34 27l65 106c54 -34 168 -104 237 -158c108 -82 157 -151 157 -246c0 -20 -3 -38 -8 -56c21 -10 53 -12 75 -12c40 0 92 -18 92 -78c0 -37 -16 -80 -92 -80zM347 325
c0 -49 27 -89 67 -116c48 40 71 80 71 139c0 52 -28 79 -56 79c-39 0 -82 -43 -82 -102zM674 230c0 48 -40 100 -87 135c4 -14 5 -24 5 -38c0 -62 -19 -115 -53 -161c11 -1 21 -2 32 -2c65 0 103 23 103 66z" />
    <glyph glyph-name="u064706D2.s" horiz-adv-x="824" 
d="M323 523l65 106c54 -34 168 -104 237 -157c108 -82 157 -152 157 -247c0 -117 -102 -201 -224 -201c-51 0 -98 11 -140 30c-50 -33 -109 -64 -172 -93c-48 -23 -108 -57 -108 -80c0 -20 26 -34 140 -34c270 0 533 16 709 29l-33 -139c-130 -17 -432 -32 -679 -32
c-177 0 -247 48 -247 147c0 126 118 195 177 227c37 21 71 39 100 57c-44 48 -70 106 -70 160c0 91 52 156 122 200zM347 324c0 -49 27 -88 68 -116c47 40 70 81 70 140c0 51 -28 78 -56 78c-39 0 -82 -43 -82 -102zM674 229c0 48 -40 100 -87 136c4 -15 5 -25 5 -39
c0 -62 -19 -115 -52 -160c10 -1 21 -2 31 -2c65 0 103 22 103 65z" />
    <glyph glyph-name="u064706D2.fs" horiz-adv-x="849" 
d="M849 0h-5c-64 0 -119 25 -148 66c-38 -26 -86 -41 -138 -41c-51 0 -98 11 -140 30c-50 -34 -109 -64 -172 -94c-48 -23 -108 -57 -108 -80c0 -19 26 -33 140 -33c210 0 490 11 626 19l-34 -139c-86 -10 -372 -23 -595 -23c-176 0 -247 49 -247 148c0 126 118 194 177 227
c37 21 71 39 100 56c-44 49 -70 107 -70 161c0 91 52 156 122 200l-34 27l65 106c54 -34 168 -104 237 -158c108 -82 157 -151 157 -246c0 -20 -3 -38 -8 -56c21 -10 53 -12 75 -12c40 0 92 -18 92 -78c0 -37 -16 -80 -92 -80zM347 325c0 -49 27 -89 67 -116
c48 40 71 80 71 139c0 52 -28 79 -56 79c-39 0 -82 -43 -82 -102zM674 230c0 48 -40 100 -87 135c4 -14 5 -24 5 -38c0 -62 -19 -115 -53 -161c11 -1 21 -2 32 -2c65 0 103 23 103 66z" />
    <glyph glyph-name="u064706D2.fa" horiz-adv-x="854" 
d="M855 0h-68c26 -22 37 -49 37 -78c0 -92 -85 -157 -166 -157c-130 0 -206 99 -234 203c-87 -28 -165 -73 -218 -116c-51 -41 -77 -84 -77 -109c0 -28 32 -47 180 -47c318 -1 734 21 938 39l-34 -139c-149 -21 -612 -44 -910 -42c-228 0 -284 79 -284 178
c0 72 38 150 98 216c89 97 189 152 301 188c23 128 98 257 155 341h36c44 -45 157 -150 157 -240c0 -26 -6 -53 -16 -79h105c40 0 92 -18 92 -78c0 -36 -16 -80 -92 -80zM596 314c-20 -28 -50 -81 -65 -156h50c58 0 81 24 81 47c0 32 -30 83 -66 109zM659 -116
c40 0 56 20 56 43c0 33 -42 72 -139 73c-17 0 -31 -2 -45 -4c20 -67 69 -112 128 -112z" />
    <glyph glyph-name="u064706D2.fsa" horiz-adv-x="854" 
d="M855 0h-68c26 -22 37 -49 37 -78c0 -92 -85 -157 -166 -157c-130 0 -206 99 -234 203c-87 -28 -165 -73 -218 -116c-51 -41 -77 -84 -77 -109c0 -28 32 -47 180 -47c226 0 501 10 646 19l-33 -139c-97 -11 -413 -22 -619 -22c-228 0 -284 79 -284 178c0 72 38 150 98 216
c89 97 189 152 301 188c23 128 98 257 155 341h36c44 -45 157 -150 157 -240c0 -26 -6 -53 -16 -79h105c40 0 92 -18 92 -78c0 -36 -16 -80 -92 -80zM596 314c-20 -28 -50 -81 -65 -156h50c58 0 81 24 81 47c0 32 -30 83 -66 109zM659 -116c40 0 56 20 56 43
c0 33 -42 72 -139 73c-17 0 -31 -2 -45 -4c20 -67 69 -112 128 -112z" />
    <glyph glyph-name="u06490631.f" horiz-adv-x="754" 
d="M39 -55c35 -20 79 -29 128 -29c72 0 149 55 149 120c0 43 -40 138 -101 235l115 42c34 -59 70 -77 116 -77c62 0 104 32 112 92l100 9c-5 -30 -8 -58 -8 -77c0 -79 42 -101 104 -102c39 0 91 -18 91 -78c0 -37 -15 -80 -91 -80c-109 0 -175 54 -191 146
c-24 -33 -77 -49 -123 -49c-7 0 -20 1 -25 1c5 -21 7 -50 7 -68c0 -131 -96 -265 -244 -265c-54 0 -120 16 -158 65z" />
    <glyph glyph-name="u064906BA.f" horiz-adv-x="950" 
d="M43 35c0 71 22 142 45 184l91 -15c-10 -38 -22 -78 -22 -128c0 -98 72 -151 164 -151c130 0 182 73 182 124c0 45 -29 136 -88 248l115 48c35 -69 57 -108 127 -108c61 0 92 33 98 92l100 5c-5 -30 -8 -56 -8 -76c0 -81 41 -99 103 -100c39 0 91 -18 91 -78
c0 -37 -15 -80 -91 -80c-113 0 -174 58 -189 144c-23 -30 -64 -43 -106 -43c-15 0 -37 3 -48 7c2 -10 4 -32 4 -42c0 -67 -23 -119 -42 -152c-53 -89 -153 -138 -266 -138c-177 0 -260 120 -260 259z" />
    <glyph glyph-name="u064906BA.fj" horiz-adv-x="1952" 
d="M22 27c178 -72 440 -131 772 -131c356 0 647 55 706 131c6 10 9 18 9 31c0 41 -31 122 -90 234l115 47c35 -69 55 -100 124 -100c62 0 93 33 99 91l100 5c-4 -29 -8 -56 -8 -76c0 -81 42 -100 103 -101c40 0 92 -18 92 -78c0 -37 -16 -80 -92 -80
c-112 0 -175 60 -190 146c-26 -28 -67 -43 -113 -43c-15 0 -36 3 -45 7c5 -16 7 -47 7 -56c0 -48 -8 -79 -18 -95c-76 -124 -402 -212 -821 -212c-308 0 -542 56 -679 124l-73 153z" />
    <glyph glyph-name="u06490649" horiz-adv-x="700" 
d="M43 14c0 48 16 126 43 175l90 -14c-8 -32 -18 -66 -18 -122c0 -84 49 -172 197 -172c102 0 166 29 198 60c10 10 18 24 18 34c0 22 -26 38 -106 38h-98l46 146h18c62 1 80 21 80 41c0 45 -35 100 -98 185l116 54c44 -59 94 -155 94 -216c0 -36 -13 -71 -44 -95
c65 -31 97 -80 97 -137c0 -33 -10 -72 -28 -101c-53 -85 -168 -150 -319 -150c-185 0 -286 104 -286 274z" />
    <glyph glyph-name="u06490649.j" horiz-adv-x="1661" 
d="M13 2c48 -34 413 -171 827 -171c407 0 593 61 657 107c23 16 35 35 35 44c0 23 -30 31 -111 31h-93l45 146h19c61 1 75 22 75 42c0 45 -30 99 -93 184l116 54c44 -59 93 -155 93 -216c0 -36 -8 -64 -39 -89c56 -27 93 -64 93 -128c0 -53 -20 -96 -49 -128
c-87 -98 -314 -189 -755 -189c-390 0 -653 97 -753 153l-69 158z" />
    <glyph glyph-name="u06490649.f" horiz-adv-x="914" 
d="M43 -49c0 80 25 143 50 191l89 -13c-13 -39 -22 -84 -22 -117c0 -106 71 -177 209 -177c70 0 152 18 192 56c9 7 18 16 18 26c0 12 -22 21 -64 33l-39 10c-84 22 -130 46 -130 123c0 44 24 113 82 165c58 53 144 90 237 90c121 0 139 -68 141 -79c2 -7 3 -13 3 -16
c4 -60 59 -84 105 -85c40 0 92 -18 92 -78c0 -37 -15 -80 -92 -80c-142 0 -191 91 -196 159c-1 5 -2 8 -3 12c-4 16 -27 37 -77 37c-122 0 -181 -60 -181 -86c0 -12 13 -20 59 -31l45 -11c94 -22 134 -44 134 -116c0 -87 -58 -143 -71 -155c-74 -75 -193 -108 -299 -108
c-176 0 -282 94 -282 250z" />
    <glyph glyph-name="u06490649.fj" horiz-adv-x="1894" 
d="M15 -37c131 -68 460 -176 875 -176c427 0 674 86 673 130c0 10 -15 18 -72 29l-93 18c-93 17 -126 59 -126 126c0 45 17 100 72 152c60 57 152 96 272 96c125 0 163 -56 171 -85c2 -10 3 -11 4 -17c12 -59 57 -77 103 -78c40 0 92 -18 92 -78c0 -37 -16 -80 -92 -80
c-142 0 -176 79 -192 153c-1 6 -2 8 -3 12c-8 29 -56 44 -114 44c-137 0 -204 -59 -204 -86c0 -13 14 -23 61 -31l104 -19c94 -18 136 -47 136 -119c0 -189 -304 -309 -798 -309c-397 0 -700 94 -800 162l-70 154z" />
    <glyph glyph-name="u0649406D2" horiz-adv-x="552" 
d="M262 -270c-168 0 -234 54 -234 153c0 76 50 147 125 197c50 33 119 67 164 91c39 21 60 31 71 45c5 6 6 15 6 26c-1 59 -40 169 -81 236l119 41c45 -82 76 -197 76 -280c0 -36 0 -56 -14 -86c-17 -35 -52 -58 -152 -112c-39 -21 -69 -34 -127 -64
c-43 -24 -78 -52 -78 -71s17 -34 129 -34c294 0 554 17 758 36l-34 -139c-149 -22 -432 -39 -728 -39z" />
    <glyph glyph-name="u06C106D2.f" horiz-adv-x="617" 
d="M267 -270c-168 0 -239 56 -239 155c0 75 50 145 126 195c50 32 119 64 163 91c70 45 87 67 103 124l97 7c-3 -15 -3 -30 -3 -43c0 -60 21 -98 103 -101c40 0 92 -18 92 -78c0 -37 -16 -80 -92 -80c-99 0 -163 40 -182 145c-13 -35 -46 -66 -93 -98
c-35 -23 -68 -39 -126 -70c-43 -23 -78 -54 -78 -73s19 -31 133 -31c294 0 549 16 753 35l-34 -139c-149 -21 -427 -39 -723 -39z" />
    <glyph glyph-name="u06C106D2.s" horiz-adv-x="552" 
d="M262 -270c-168 0 -234 54 -234 153c0 76 50 147 125 197c43 32 102 65 140 89c39 22 60 31 71 45c5 5 6 14 6 26c-1 60 -40 170 -81 238l119 41c45 -82 76 -198 76 -282c0 -36 -1 -57 -14 -86c-17 -35 -53 -58 -152 -112c-31 -20 -56 -32 -103 -62
c-43 -24 -78 -52 -78 -71s17 -34 129 -34c172 0 330 8 449 15l-33 -139c-96 -10 -246 -18 -420 -18z" />
    <glyph glyph-name="u06C106D2.fs" horiz-adv-x="617" 
d="M267 -270c-168 0 -239 56 -239 155c0 75 50 145 126 195c50 32 119 64 163 91c70 45 87 67 103 124l97 7c-3 -15 -3 -30 -3 -43c0 -60 21 -98 103 -101c40 0 92 -18 92 -78c0 -37 -16 -80 -92 -80c-99 0 -163 40 -182 145c-13 -35 -46 -66 -93 -98
c-35 -23 -68 -39 -126 -70c-43 -23 -78 -54 -78 -73s19 -31 133 -31c167 0 290 4 404 12l-33 -139c-90 -11 -207 -16 -375 -16z" />
    <glyph glyph-name="u06C106D2" horiz-adv-x="788" 
d="M564 -300l98 -33c-21 -28 -41 -61 -41 -105c0 -36 14 -68 41 -101l-104 -44c-32 29 -55 88 -55 142c0 46 21 99 61 141zM275 -270c-171 0 -247 56 -247 155c0 75 50 145 126 195c50 32 119 64 163 91c64 34 79 52 93 96l97 7c-2 -14 -3 -26 -3 -39c0 -47 15 -85 74 -85
c28 0 60 18 60 52s-16 83 -38 127l121 28c13 -33 23 -82 23 -137c0 -144 -73 -220 -164 -220c-86 0 -136 49 -152 132c-13 -31 -40 -54 -86 -85c-35 -23 -68 -39 -126 -70c-43 -23 -78 -54 -78 -73s19 -31 133 -31c294 0 694 16 897 35l-33 -139c-149 -21 -565 -39 -860 -39
z" />
    <glyph glyph-name="u064906D2.f" horiz-adv-x="854" 
d="M304 -446c-228 0 -285 89 -285 187c0 72 36 139 95 194c73 68 165 117 243 165c87 53 160 103 208 212l106 -20c-50 -106 -79 -205 -79 -279c0 -57 13 -90 35 -122l9 5c-5 18 -7 43 -7 71c0 124 58 192 186 191h37c39 0 91 -18 91 -78c0 -37 -15 -80 -91 -80h-35
c-65 0 -87 -29 -87 -92c0 -50 5 -70 16 -104l-141 -66c-97 74 -136 179 -130 296c-59 -54 -185 -127 -271 -189c-57 -41 -75 -71 -75 -96c0 -30 32 -53 180 -53c294 0 731 18 935 37l-34 -139c-149 -22 -579 -40 -906 -40z" />
    <glyph glyph-name="u064906D2.s" horiz-adv-x="788" 
d="M564 -300l98 -33c-21 -28 -41 -61 -41 -105c0 -36 14 -68 41 -101l-104 -44c-32 29 -55 88 -55 142c0 46 21 99 61 141zM275 -270c-171 0 -247 56 -247 155c0 75 50 145 126 195c50 32 119 64 163 91c64 34 79 52 93 96l97 7c-2 -14 -3 -26 -3 -39c0 -47 15 -85 74 -85
c28 0 60 18 60 52s-16 83 -38 127l121 28c13 -33 23 -82 23 -137c0 -144 -73 -220 -164 -220c-86 0 -136 49 -152 132c-13 -31 -40 -54 -86 -85c-35 -23 -68 -39 -126 -70c-43 -23 -78 -54 -78 -73s19 -31 133 -31c223 0 521 11 681 25l-34 -139c-110 -16 -416 -29 -643 -29
z" />
    <glyph glyph-name="u064906D2.fs" horiz-adv-x="854" 
d="M304 -446c-228 0 -285 89 -285 187c0 72 36 139 95 194c73 68 165 117 243 165c87 53 160 103 208 212l106 -20c-50 -106 -79 -205 -79 -279c0 -57 13 -90 35 -122l9 5c-5 18 -7 43 -7 71c0 124 58 192 186 191h37c39 0 91 -18 91 -78c0 -37 -15 -80 -91 -80h-35
c-65 0 -87 -29 -87 -92c0 -50 5 -70 16 -104l-141 -66c-97 74 -136 179 -130 296c-59 -54 -185 -127 -271 -189c-57 -41 -75 -71 -75 -96c0 -30 32 -53 180 -53c207 0 511 8 659 17l-34 -139c-97 -11 -406 -20 -630 -20z" />
    <glyph glyph-name="u0641064E0644065006440647" horiz-adv-x="1360" 
d="M647 851l-97 -30l-25 180l110 30zM676 803l60 24c15 -32 19 -67 19 -89c0 -69 -41 -106 -82 -106c-19 0 -39 8 -56 25c-20 -43 -58 -58 -80 -58c-49 0 -67 40 -67 87c0 19 3 36 7 49l61 22c-3 -19 -4 -41 -4 -57c0 -23 9 -32 20 -32c14 0 33 18 26 101l57 21
c4 -66 15 -88 36 -88c12 0 21 8 21 32c-1 13 0 27 -18 69zM1269 734l29 -734h-123l-30 725zM988 605l17 -352c8 -176 -52 -253 -198 -253c-74 0 -129 36 -151 93c-39 -63 -94 -93 -173 -93c-70 0 -128 17 -158 95c-36 -23 -91 -33 -119 -33c-98 0 -163 56 -163 135
c0 67 31 116 94 170c36 30 97 60 159 86l-2 68l107 7l10 -265c5 -82 37 -105 78 -105c60 0 95 30 91 137l-11 252l122 9l11 -262c4 -104 37 -135 93 -136c61 -1 90 30 86 113l-15 325zM305 212l-6 128c-99 -28 -139 -69 -139 -102c0 -26 26 -41 70 -41c28 0 57 8 75 15z" />
    <glyph glyph-name="u064406440647" horiz-adv-x="1082" 
d="M647 851l-97 -30l-25 180l110 30zM676 803l60 24c15 -32 19 -67 19 -89c0 -69 -41 -106 -82 -106c-19 0 -39 8 -56 25c-20 -43 -58 -58 -80 -58c-49 0 -67 40 -67 87c0 19 3 36 7 49l61 22c-3 -19 -4 -41 -4 -57c0 -23 9 -32 20 -32c14 0 33 18 26 101l57 21
c4 -66 15 -88 36 -88c12 0 21 8 21 32c-1 13 0 27 -18 69zM988 605l17 -352c8 -176 -52 -253 -198 -253c-74 0 -129 36 -151 93c-39 -63 -94 -93 -173 -93c-70 0 -128 17 -158 95c-36 -23 -91 -33 -119 -33c-98 0 -163 56 -163 135c0 67 31 116 94 170c36 30 97 60 159 86
l-2 68l107 7l10 -265c5 -82 37 -105 78 -105c60 0 95 30 91 137l-11 252l122 9l11 -262c4 -104 37 -135 93 -136c61 -1 90 30 86 113l-15 325zM305 212l-6 128c-99 -28 -139 -69 -139 -102c0 -26 26 -41 70 -41c28 0 57 8 75 15z" />
    <glyph glyph-name="uni0640" unicode="&#x640;" horiz-adv-x="289" 
d="M0 158h289c68 0 83 -47 83 -82c0 -31 -20 -76 -83 -76h-289c-67 0 -82 47 -82 82c0 31 19 76 82 76z" />
    <glyph glyph-name="uni0640.s" horiz-adv-x="144" 
d="M144 0h-144c-67 0 -82 47 -82 82c0 31 19 76 82 76h144c67 0 82 -47 82 -82c0 -31 -20 -76 -82 -76z" />
    <glyph glyph-name="uni0640.l" horiz-adv-x="579" 
d="M0 158h579c67 0 82 -47 82 -82c0 -31 -19 -76 -82 -76h-579c-67 0 -82 47 -82 82c0 31 19 76 82 76z" />
    <glyph glyph-name="uni064E" unicode="&#x64e;" 
d="M-22 767l-11 76c91 27 199 62 269 91l11 -81c-80 -34 -194 -68 -269 -86z" />
    <glyph glyph-name="uni064B" unicode="&#x64b;" 
d="M-22 767l-11 76c90 27 199 61 269 91l11 -81c-80 -34 -194 -68 -269 -86zM-27 902l-11 77c91 27 199 61 269 91l11 -81c-80 -34 -195 -68 -269 -87z" />
    <glyph glyph-name="uni064F" unicode="&#x64f;" 
d="M60 787c-36 0 -64 8 -75 17l5 55c19 -6 48 -7 58 -7c34 0 64 10 77 24c-57 3 -98 34 -98 90c0 52 42 97 101 97c43 0 95 -38 95 -112c1 -110 -85 -165 -163 -164zM162 931c4 31 -11 67 -47 67c-17 0 -31 -10 -31 -26c0 -17 16 -43 78 -41z" />
    <glyph glyph-name="uni064C" unicode="&#x64c;" 
d="M-3 770c-12 0 -35 2 -43 2c8 32 14 76 14 97s-6 26 -16 26s-31 -4 -56 -19l7 67c22 18 45 28 72 28c28 0 52 -20 52 -75c0 -17 0 -30 -3 -45c43 -1 86 7 108 29c-55 11 -92 50 -92 98c0 61 46 105 103 105c51 0 97 -40 97 -122c0 -137 -122 -191 -243 -191zM172 948
c5 27 -7 69 -40 69c-19 0 -31 -12 -31 -27c0 -25 28 -41 71 -42z" />
    <glyph glyph-name="uni0651" unicode="&#x651;" 
d="M22 780c-53 0 -74 42 -74 95c0 21 3 38 7 54l62 24c-1 -17 -3 -40 -3 -56c0 -27 10 -38 23 -38c14 0 38 16 31 106l59 23c4 -70 16 -92 39 -92c12 0 24 8 24 35c-1 13 -3 37 -21 71l68 26c17 -36 20 -79 20 -102c0 -62 -38 -110 -83 -110c-20 0 -44 9 -61 30
c-21 -49 -66 -66 -91 -66z" />
    <glyph glyph-name="uni0652" unicode="&#x652;" 
d="M113 795c-63 0 -108 38 -109 104c-1 70 46 135 109 135c62 0 106 -67 106 -135c0 -66 -44 -104 -106 -104zM113 859c29 0 46 15 46 45c0 41 -21 66 -46 66c-27 0 -50 -26 -50 -67c0 -26 19 -44 50 -44z" />
    <glyph glyph-name="uni0653" unicode="&#x653;" 
d="M14 785l-70 24c1 64 33 112 95 112c50 0 85 -25 130 -25c25 0 49 13 75 36l13 -68c-20 -35 -57 -54 -97 -54c-46 0 -73 20 -109 20c-13 0 -32 -3 -37 -45z" />
    <glyph glyph-name="uni0654" unicode="&#x654;" 
d="M-9 790l7 67c11 7 30 12 43 13c-16 12 -34 28 -34 61c0 66 59 93 114 93c52 0 86 -15 101 -29l-19 -66c-19 15 -54 24 -76 24c-28 0 -46 -13 -46 -30c0 -25 27 -41 77 -41h80l-29 -73h-83c-55 0 -99 -4 -135 -19z" />
    <glyph glyph-name="uni0670" unicode="&#x670;" 
d="M68 799l-20 249l109 8l8 -250z" />
    <glyph glyph-name="uni0657" unicode="&#x657;" 
d="M89 791c-35 0 -80 26 -81 101c-1 110 106 175 193 171l12 -61c-46 -1 -107 -21 -123 -65c47 0 75 -27 75 -71c0 -48 -30 -75 -76 -75z" />
    <glyph glyph-name="uni0658" unicode="&#x658;" 
d="M109 795c-66 0 -119 39 -128 153l63 15c8 -50 25 -80 71 -80c47 0 60 37 73 90l62 -4c-11 -116 -63 -174 -141 -174z" />
    <glyph glyph-name="uni0615" unicode="&#x615;" 
d="M6 791l-36 74l58 -3c10 20 12 47 10 82l-12 159l63 5l6 -101c2 -22 3 -43 0 -60c31 39 62 55 100 55c51 0 77 -38 77 -81c0 -92 -86 -130 -181 -130h-85zM86 862c96 0 123 13 123 43c0 14 -13 25 -32 25c-27 0 -57 -20 -91 -68z" />
    <glyph glyph-name="uni0659" unicode="&#x659;" 
d="M-24 796l14 87h268l-15 -87h-267z" />
    <glyph glyph-name="uni065A" unicode="&#x65a;" 
d="M72 794c-17 38 -59 97 -114 160l68 52c41 -41 76 -88 92 -115c20 31 49 69 94 118l61 -49c-51 -61 -99 -128 -118 -166h-83z" />
    <glyph glyph-name="uni065B" unicode="&#x65b;" 
d="M23 782l-61 50c50 60 98 127 117 166h83c17 -38 60 -98 115 -160l-69 -52c-41 40 -75 87 -91 114c-21 -30 -50 -69 -94 -118z" />
    <glyph glyph-name="uni065D" unicode="&#x65d;" 
d="M154 787c-79 -1 -174 43 -174 158c0 76 58 118 104 118c62 0 101 -48 101 -100c0 -47 -34 -83 -95 -90c30 -19 79 -25 130 -20l-6 -56c-12 -7 -35 -10 -60 -10zM46 924c50 5 76 20 76 47c0 16 -13 28 -31 28c-21 0 -46 -15 -46 -53c0 -5 0 -18 1 -22z" />
    <glyph glyph-name="uni065E" unicode="&#x65e;" 
d="M22 790l-33 41l225 203l34 -40zM36 949c-26 0 -43 18 -43 44c0 27 17 46 43 46c25 0 41 -19 41 -46c0 -26 -16 -44 -41 -44zM199 779c-24 0 -42 20 -42 47c0 25 18 44 43 44c24 0 41 -19 41 -44c0 -27 -15 -47 -42 -47z" />
    <glyph glyph-name="u06510670" 
d="M62 989l-23 172l80 14l12 -172zM33 780c-44 0 -64 38 -64 79c0 18 3 37 7 47l61 19c-4 -18 -4 -30 -4 -44c0 -22 9 -30 18 -30c14 0 31 10 25 85l57 20c4 -61 16 -75 33 -75c12 0 20 11 20 24c-1 13 -1 24 -17 63l60 22c12 -26 17 -52 17 -85c0 -50 -34 -94 -81 -94
c-17 0 -41 6 -54 24c-20 -40 -55 -55 -78 -55z" />
    <glyph glyph-name="u064E0651" 
d="M-27 972l-11 63c78 23 184 56 243 81l11 -68c-77 -33 -167 -57 -243 -76zM33 780c-44 0 -64 38 -64 79c0 18 3 37 7 47l61 19c-4 -18 -4 -30 -4 -44c0 -22 9 -30 18 -30c14 0 31 10 25 85l57 20c4 -61 16 -75 33 -75c12 0 20 11 20 24c-1 13 -1 24 -17 63l60 22
c12 -26 17 -52 17 -85c0 -50 -34 -94 -81 -94c-17 0 -41 6 -54 24c-20 -40 -55 -55 -78 -55z" />
    <glyph glyph-name="u064B0651" 
d="M-27 972l-11 63c78 23 184 56 243 81l11 -68c-77 -33 -167 -57 -243 -76zM-27 1092l-9 63c90 27 177 54 241 83l11 -68c-77 -33 -173 -61 -243 -78zM33 780c-44 0 -64 38 -64 79c0 18 3 37 7 47l61 19c-4 -18 -4 -30 -4 -44c0 -22 9 -30 18 -30c14 0 31 10 25 85l57 20
c4 -61 16 -75 33 -75c12 0 20 11 20 24c-1 13 -1 24 -17 63l60 22c12 -26 17 -52 17 -85c0 -50 -34 -94 -81 -94c-17 0 -41 6 -54 24c-20 -40 -55 -55 -78 -55z" />
    <glyph glyph-name="u064F0651" 
d="M40 997c-33 0 -58 9 -67 16l6 54c18 -7 44 -9 53 -9c31 0 52 3 67 16c-50 3 -86 40 -86 83c0 47 40 88 95 88c41 0 88 -32 88 -102c1 -104 -82 -146 -156 -146zM138 1126c5 27 -10 61 -44 61c-15 0 -27 -10 -27 -23c0 -15 15 -32 71 -38zM33 780c-44 0 -64 38 -64 79
c0 18 3 37 7 47l61 19c-4 -18 -4 -30 -4 -44c0 -22 9 -30 18 -30c14 0 31 10 25 85l57 20c4 -61 16 -75 33 -75c12 0 20 11 20 24c-1 13 -1 24 -17 63l60 22c12 -26 17 -52 17 -85c0 -50 -34 -94 -81 -94c-17 0 -41 6 -54 24c-20 -40 -55 -55 -78 -55z" />
    <glyph glyph-name="u064C0651" 
d="M-8 982h-27c6 28 13 67 13 85c0 20 -7 24 -15 24c-9 0 -27 -4 -51 -16l8 59c19 17 39 25 62 25c27 0 48 -17 48 -65c0 -16 -2 -28 -4 -41c38 1 72 12 94 28c-50 10 -80 44 -80 86c0 50 40 93 92 93c39 0 87 -32 87 -100c0 -133 -149 -178 -227 -178zM158 1141
c4 24 -7 61 -35 61c-17 0 -27 -13 -27 -25c0 -21 24 -36 62 -36zM33 780c-44 0 -64 38 -64 79c0 18 3 37 7 47l61 19c-4 -18 -4 -30 -4 -44c0 -22 9 -30 18 -30c14 0 31 10 25 85l57 20c4 -61 16 -75 33 -75c12 0 20 11 20 24c-1 13 -1 24 -17 63l60 22
c12 -26 17 -52 17 -85c0 -50 -34 -94 -81 -94c-17 0 -41 6 -54 24c-20 -40 -55 -55 -78 -55z" />
    <glyph glyph-name="u06500651" 
d="M22 907c-44 0 -61 44 -61 85c0 16 3 36 7 46l55 19c-3 -17 -4 -37 -4 -51c0 -21 10 -30 19 -30c14 0 31 17 25 92l51 20c5 -60 16 -81 33 -81c12 0 20 8 20 30c0 13 0 24 -16 63l54 22c14 -28 17 -66 17 -88c0 -60 -35 -97 -73 -97c-19 0 -37 6 -52 24
c-19 -40 -52 -54 -75 -54zM-10 770l-10 65c86 23 179 54 242 81l11 -67c-71 -31 -178 -63 -243 -79z" />
    <glyph glyph-name="u064D0651" 
d="M-17 766l-11 64c78 23 184 55 243 81l11 -69c-77 -33 -166 -57 -243 -76zM-17 886l-10 63c90 27 177 55 242 83l11 -67c-77 -33 -173 -61 -243 -79zM14 1023c-44 0 -61 41 -61 82c0 15 2 32 6 42l56 20c-3 -18 -4 -31 -4 -45c0 -22 10 -30 19 -30c14 0 31 10 25 86l51 20
c5 -61 16 -76 33 -76c12 0 20 11 20 27c0 13 -1 27 -15 61l53 22c14 -28 17 -63 17 -84c0 -61 -36 -95 -74 -95c-20 0 -36 5 -51 24c-19 -41 -52 -54 -75 -54z" />
    <glyph glyph-name="u0654064E" 
d="M-19 1036l-11 72c78 22 184 55 243 81l11 -77c-77 -33 -167 -57 -243 -76zM-9 790l7 68c11 6 30 12 43 13c-16 12 -34 27 -34 60c0 66 59 94 115 94c51 0 85 -16 101 -29l-20 -67c-19 15 -53 24 -75 24c-28 0 -47 -13 -47 -30c0 -25 27 -41 77 -41h80l-29 -73h-83
c-55 0 -99 -4 -135 -19z" />
    <glyph glyph-name="u0654064B" 
d="M-17 1047l-11 63c78 23 180 55 240 80l11 -68c-77 -33 -163 -57 -240 -75zM-17 1167l-9 63c90 27 173 53 238 82l11 -68c-77 -33 -170 -60 -240 -77zM-9 790l7 68c11 6 30 12 43 13c-16 12 -34 27 -34 60c0 66 59 94 115 94c51 0 85 -16 101 -29l-20 -67
c-19 15 -53 24 -75 24c-28 0 -47 -13 -47 -30c0 -25 27 -41 77 -41h80l-29 -73h-83c-55 0 -99 -4 -135 -19z" />
    <glyph glyph-name="u0654064F" 
d="M48 1065c-33 0 -59 9 -68 16l6 54c19 -6 44 -9 53 -9c31 0 51 4 67 15c-50 5 -85 40 -85 82c0 47 40 90 95 90c40 0 87 -33 87 -102c1 -104 -82 -146 -155 -146zM146 1194c5 28 -11 61 -45 61c-14 0 -27 -9 -27 -23c0 -15 15 -31 72 -38zM-9 790l7 68c11 6 30 12 43 13
c-16 12 -34 27 -34 60c0 66 59 94 115 94c51 0 85 -16 101 -29l-20 -67c-19 15 -53 24 -75 24c-28 0 -47 -13 -47 -30c0 -25 27 -41 77 -41h80l-29 -73h-83c-55 0 -99 -4 -135 -19z" />
    <glyph glyph-name="u0654064C" 
d="M8 1062h-27c6 29 13 68 13 87s-7 23 -15 23c-10 0 -28 -2 -52 -16l8 60c19 18 39 25 63 25c25 0 48 -16 48 -66c0 -16 -2 -28 -3 -42c38 1 73 13 95 30c-51 10 -81 44 -81 87c0 51 40 93 93 93c39 0 88 -31 88 -101c0 -134 -142 -180 -230 -180zM176 1223
c4 24 -7 62 -36 62c-17 0 -27 -13 -27 -25c0 -22 24 -37 63 -37zM-9 790l7 68c11 6 30 12 43 13c-16 12 -34 27 -34 60c0 66 59 94 115 94c51 0 85 -16 101 -29l-20 -67c-19 15 -53 24 -75 24c-28 0 -47 -13 -47 -30c0 -25 27 -41 77 -41h80l-29 -73h-83
c-55 0 -99 -4 -135 -19z" />
    <glyph glyph-name="u06540652" 
d="M103 1067c-58 0 -101 35 -102 97c0 66 45 127 102 127c58 0 101 -63 101 -127c0 -61 -43 -97 -101 -97zM103 1128c27 0 43 14 43 41c0 38 -20 62 -42 62c-25 0 -47 -25 -47 -63c0 -24 19 -40 46 -40zM-9 790l7 68c11 6 30 12 43 13c-16 12 -34 27 -34 60
c0 66 59 94 115 94c51 0 85 -16 101 -29l-20 -67c-19 15 -53 24 -75 24c-28 0 -47 -13 -47 -30c0 -25 27 -41 77 -41h80l-29 -73h-83c-55 0 -99 -4 -135 -19z" />
    <glyph glyph-name="uni0650" unicode="&#x650;" 
d="M124 9l12 -81c-81 -34 -194 -67 -270 -87l-11 77c93 28 200 61 269 91z" />
    <glyph glyph-name="uni064D" unicode="&#x64d;" 
d="M129 -126l12 -82c-81 -34 -194 -67 -270 -86l-11 76c93 28 200 62 269 92zM124 9l12 -81c-81 -34 -194 -67 -270 -87l-11 77c93 28 200 61 269 91z" />
    <glyph glyph-name="uni0655" unicode="&#x655;" 
d="M22 -21c52 0 86 -15 102 -29l-20 -65c-19 14 -53 23 -75 23c-29 0 -47 -13 -47 -30c0 -25 27 -41 78 -41h79l-29 -73h-83c-55 0 -99 -4 -135 -19l7 67c11 7 30 12 43 13c-16 12 -34 28 -34 61c0 66 59 93 114 93z" />
    <glyph glyph-name="uni0656" unicode="&#x656;" 
d="M51 -19l7 -251l-97 -7l-20 249z" />
    <glyph glyph-name="uni065C" unicode="&#x65c;" 
d="M0 -12c44 0 72 -30 72 -76s-28 -74 -72 -74c-41 0 -71 28 -71 74s30 76 71 76z" />
    <glyph glyph-name="u06550650" 
d="M130 -254l10 -77c-59 -21 -184 -44 -242 -52l-12 76c69 12 190 37 244 53zM15 -7c51 0 86 -15 101 -29l-19 -66c-20 15 -54 24 -76 24c-28 0 -47 -14 -47 -30c0 -25 27 -42 78 -42h80l-29 -72h-84c-55 0 -98 -4 -134 -20l7 68c10 6 30 12 43 13c-17 12 -34 28 -34 61
c0 65 58 93 114 93z" />
    <glyph glyph-name="u0655064D" 
d="M130 -254l10 -69c-59 -21 -184 -44 -242 -52l-12 68c69 12 190 37 244 53zM130 -385l10 -76c-59 -21 -183 -45 -242 -52l-12 68c69 12 191 44 244 60zM15 -7c51 0 86 -15 101 -29l-19 -66c-20 15 -54 24 -76 24c-28 0 -47 -14 -47 -30c0 -25 27 -42 78 -42h80l-29 -72
h-84c-55 0 -98 -4 -134 -20l7 68c10 6 30 12 43 13c-17 12 -34 28 -34 61c0 65 58 93 114 93z" />
    <glyph glyph-name="uni0660" unicode="&#x660;" horiz-adv-x="333" 
d="M166 189c-70 0 -120 47 -120 123c0 77 50 126 121 126c69 0 120 -49 120 -126c0 -76 -51 -123 -120 -123h-1z" />
    <glyph glyph-name="uni0661" unicode="&#x661;" horiz-adv-x="314" 
d="M164 0c-3 232 -42 457 -144 650l142 11c83 -168 131 -431 131 -661h-129z" />
    <glyph glyph-name="uni0662" unicode="&#x662;" horiz-adv-x="504" 
d="M161 0c-2 234 -41 444 -141 650l137 9c10 -22 22 -51 27 -59c20 -42 47 -59 96 -59c56 0 89 29 96 109l105 7c1 -8 1 -17 1 -28c0 -136 -82 -220 -179 -220c-27 0 -49 5 -68 17c28 -92 54 -263 55 -426h-129z" />
    <glyph glyph-name="uni0663" unicode="&#x663;" horiz-adv-x="546" 
d="M163 0c-3 245 -42 451 -143 650l139 12c10 -17 26 -57 33 -76c10 -24 19 -36 44 -36c31 0 42 26 42 59c0 15 -1 24 -4 41l87 6c8 -63 22 -86 45 -86c26 0 32 21 32 51c0 10 0 19 -2 29l83 7c3 -14 6 -42 6 -71c0 -89 -42 -144 -93 -144c-22 0 -41 5 -65 31
c-15 -45 -47 -64 -80 -64c-17 0 -37 7 -52 25c32 -94 55 -265 58 -434h-130z" />
    <glyph glyph-name="uni0664" unicode="&#x664;" horiz-adv-x="463" 
d="M90 152c0 72 45 121 91 152c-83 9 -128 60 -128 129c0 121 136 210 274 229l33 -128c-126 -23 -192 -50 -192 -86c0 -25 27 -43 123 -43c18 0 55 2 75 4v-128c-132 -28 -155 -69 -155 -95c0 -20 15 -46 83 -46c37 0 93 8 145 34l2 -140c-53 -30 -97 -43 -169 -43
c-85 0 -182 50 -182 161z" />
    <glyph glyph-name="uni0665" unicode="&#x665;" horiz-adv-x="514" 
d="M243 41c-81 0 -193 57 -194 244c-1 204 109 354 220 354c115 0 197 -164 197 -318c0 -145 -57 -280 -223 -280zM256 192c82 0 106 59 106 118c0 33 -18 173 -106 173c-61 0 -99 -89 -99 -162c0 -79 29 -129 99 -129z" />
    <glyph glyph-name="uni0666" unicode="&#x666;" horiz-adv-x="479" 
d="M326 0c-75 185 -87 349 -86 508h-96c-40 0 -99 3 -125 11l10 139c15 -4 73 -7 149 -7h196c-6 -49 -9 -103 -9 -156c0 -131 23 -336 93 -495h-132z" />
    <glyph glyph-name="uni0667" unicode="&#x667;" horiz-adv-x="562" 
d="M220 0c-30 180 -95 444 -202 652l154 6c57 -131 108 -348 126 -484h3c17 125 55 328 103 484l142 -6c-56 -144 -139 -456 -178 -652h-148z" />
    <glyph glyph-name="uni0668" unicode="&#x668;" horiz-adv-x="562" 
d="M17 0c56 144 139 455 178 651l148 6c30 -136 104 -449 202 -657h-154c-49 121 -105 340 -126 446h-3c-16 -126 -56 -290 -103 -446h-142z" />
    <glyph glyph-name="uni0669" unicode="&#x669;" horiz-adv-x="519" 
d="M365 0c-25 96 -33 191 -44 264c-17 -3 -40 -5 -64 -5c-96 0 -210 57 -210 200c0 126 97 203 191 203c83 0 168 -56 189 -228c22 -211 31 -294 70 -434h-132zM275 398c10 0 30 1 37 3c-8 98 -38 126 -90 126c-41 0 -67 -31 -67 -60c0 -39 37 -69 120 -69z" />
    <glyph glyph-name="uni06F0" unicode="&#x6f0;" horiz-adv-x="333" 
d="M166 189c-70 0 -120 47 -120 123c0 77 50 126 121 126c69 0 120 -49 120 -126c0 -76 -51 -123 -120 -123h-1z" />
    <glyph glyph-name="uni06F1" unicode="&#x6f1;" horiz-adv-x="314" 
d="M164 0c-3 232 -42 457 -144 650l142 11c83 -168 131 -431 131 -661h-129z" />
    </font>
</defs>
</svg>
